<ttFont>
<head>
    <!-- Most of this table will be recalculated by the compiler -->
    <tableVersion value="1.0"/>
    <fontRevision value="1.052"/>
    <checkSumAdjustment value="0x6c7afccc"/>
    <magicNumber value="0x5f0f3cf5"/>
    <flags value="00000000 00000001"/>
    <unitsPerEm value="1000"/>
    <created value="Sat Apr  9 12:31:12 2016"/>
    <modified value="Wed Jul 27 14:57:34 2016"/>
    <xMin value="-221"/>
    <yMin value="-339"/>
    <xMax value="1281"/>
    <yMax value="924"/>
    <macStyle value="00000000 00000000"/>
    <lowestRecPPEM value="6"/>
    <fontDirectionHint value="2"/>
    <indexToLocFormat value="0"/>
    <glyphDataFormat value="0"/>
  </head>
    <TTGlyph name=".notdef" xMin="50" yMin="0" xMax="450" yMax="660">
      <contour>
        <pt x="450" y="0" on="1"/>
        <pt x="50" y="0" on="1"/>
        <pt x="50" y="660" on="1"/>
        <pt x="450" y="660" on="1"/>
      </contour>
      <contour>
        <pt x="130" y="580" on="1"/>
        <pt x="130" y="80" on="1"/>
        <pt x="370" y="80" on="1"/>
        <pt x="370" y="580" on="1"/>
      </contour>
    </TTGlyph>
    <TTGlyph name="Hinferior" xMin="46" yMin="-189" xMax="427" yMax="208">
      <component glyphName="Hsuperior" x="0" y="-522" flags="0x4"/>
    </TTGlyph>
    <TTGlyph name="Hsuperior" xMin="46" yMin="333" xMax="427" yMax="730">
      <contour>
        <pt x="323" y="333" on="1"/>
        <pt x="323" y="495" on="1"/>
        <pt x="151" y="495" on="1"/>
        <pt x="151" y="333" on="1"/>
        <pt x="46" y="333" on="1"/>
        <pt x="46" y="730" on="1"/>
        <pt x="151" y="730" on="1"/>
        <pt x="151" y="574" on="1"/>
        <pt x="323" y="574" on="1"/>
        <pt x="323" y="730" on="1"/>
        <pt x="427" y="730" on="1"/>
        <pt x="427" y="333" on="1"/>
      </contour>
    </TTGlyph>
    <TTGlyph name="Iacute_J.loclNLD" xMin="86" yMin="-10" xMax="900" yMax="892">
      <component glyphName="uni0049" x="0" y="0" flags="0x4"/>
      <component glyphName="uni0301.cap" x="161" y="0" flags="0x4"/>
      <component glyphName="uni004A" x="310" y="0" flags="0x4"/>
      <component glyphName="uni0301.cap" x="772" y="0" flags="0x4"/>
    </TTGlyph>
    <TTGlyph name="Iacute_J.loclNLD.ss05" xMin="65" yMin="-10" xMax="633" yMax="892">
      <component glyphName="uni0301.cap" x="505" y="0" flags="0x4"/>
      <component glyphName="uni0301.cap" x="145" y="0" flags="0x4"/>
      <component glyphName="uni0132.ss05" x="-10" y="0" flags="0x4"/>
    </TTGlyph>
    <TTGlyph name="Oinferior" xMin="30" yMin="-195" xMax="438" yMax="213">
      <component glyphName="Osuperior" x="0" y="-522" flags="0x4"/>
    </TTGlyph>
    <TTGlyph name="Osuperior" xMin="30" yMin="327" xMax="438" yMax="735">
      <contour>
        <pt x="30" y="531" on="1"/>
        <pt x="30" y="627" on="0"/>
        <pt x="140" y="735" on="0"/>
        <pt x="234" y="735" on="1"/>
        <pt x="329" y="735" on="0"/>
        <pt x="438" y="627" on="0"/>
        <pt x="438" y="531" on="1"/>
        <pt x="438" y="435" on="0"/>
        <pt x="329" y="327" on="0"/>
        <pt x="234" y="327" on="1"/>
        <pt x="140" y="327" on="0"/>
        <pt x="30" y="435" on="0"/>
      </contour>
      <contour>
        <pt x="333" y="531" on="1"/>
        <pt x="333" y="658" on="0"/>
        <pt x="234" y="658" on="1"/>
        <pt x="134" y="658" on="0"/>
        <pt x="134" y="531" on="1"/>
        <pt x="134" y="404" on="0"/>
        <pt x="234" y="404" on="1"/>
        <pt x="333" y="404" on="0"/>
      </contour>
    </TTGlyph>
    <TTGlyph name="__swash_topleft" xMin="58" yMin="268" xMax="517" yMax="660">
      <contour>
        <pt x="282" y="364" on="1"/>
        <pt x="239" y="268" on="1"/>
        <pt x="163" y="275" on="0"/>
        <pt x="58" y="379" on="0"/>
        <pt x="58" y="464" on="1"/>
        <pt x="58" y="556" on="0"/>
        <pt x="180" y="660" on="0"/>
        <pt x="289" y="660" on="1"/>
        <pt x="517" y="660" on="1"/>
        <pt x="517" y="557" on="1"/>
        <pt x="300" y="557" on="1"/>
        <pt x="185" y="557" on="0"/>
        <pt x="185" y="462" on="1"/>
        <pt x="185" y="423" on="0"/>
        <pt x="239" y="370" on="0"/>
      </contour>
    </TTGlyph>
    <TTGlyph name="bracketleftinferior" xMin="58" yMin="-269" xMax="225" yMax="288">
      <component glyphName="bracketleftsuperior" x="0" y="-522" flags="0x4"/>
    </TTGlyph>
    <TTGlyph name="bracketleftsuperior" xMin="58" yMin="253" xMax="225" yMax="810">
      <contour>
        <pt x="58" y="253" on="1"/>
        <pt x="58" y="810" on="1"/>
        <pt x="225" y="810" on="1"/>
        <pt x="225" y="738" on="1"/>
        <pt x="144" y="738" on="1"/>
        <pt x="144" y="325" on="1"/>
        <pt x="225" y="325" on="1"/>
        <pt x="225" y="253" on="1"/>
      </contour>
    </TTGlyph>
    <TTGlyph name="bracketrightinferior" xMin="9" yMin="-269" xMax="176" yMax="288">
      <component glyphName="bracketrightsuperior" x="0" y="-522" flags="0x4"/>
    </TTGlyph>
    <TTGlyph name="bracketrightsuperior" xMin="9" yMin="253" xMax="176" yMax="810">
      <component glyphName="bracketleftsuperior" x="234" y="0" scalex="-1.0" scaley="1.0" flags="0x4"/>
    </TTGlyph>
    <TTGlyph name="coloninferior" xMin="42" yMin="-195" xMax="170" yMax="148">
      <component glyphName="colonsuperior" x="0" y="-522" flags="0x4"/>
    </TTGlyph>
    <TTGlyph name="colonsuperior" xMin="42" yMin="327" xMax="170" yMax="670">
      <component glyphName="periodsuperior" x="0" y="0" flags="0x4"/>
      <component glyphName="periodsuperior" x="0" y="226" flags="0x4"/>
    </TTGlyph>
    <TTGlyph name="commainferior" xMin="37" yMin="-301" xMax="177" yMax="-78">
      <component glyphName="commasuperior" x="0" y="-522" flags="0x4"/>
    </TTGlyph>
    <TTGlyph name="commasuperior" xMin="37" yMin="221" xMax="177" yMax="444">
      <contour>
        <pt x="42" y="385" on="1"/>
        <pt x="42" y="444" on="0"/>
        <pt x="106" y="444" on="1"/>
        <pt x="141" y="444" on="0"/>
        <pt x="177" y="397" on="0"/>
        <pt x="177" y="359" on="1"/>
        <pt x="177" y="316" on="0"/>
        <pt x="130" y="242" on="0"/>
        <pt x="83" y="221" on="1"/>
        <pt x="37" y="256" on="1"/>
        <pt x="68" y="268" on="0"/>
        <pt x="113" y="308" on="0"/>
        <pt x="117" y="330" on="1"/>
        <pt x="114" y="332" on="1"/>
        <pt x="107" y="327" on="0"/>
        <pt x="98" y="327" on="1"/>
        <pt x="79" y="327" on="0"/>
        <pt x="42" y="357" on="0"/>
      </contour>
    </TTGlyph>
    <TTGlyph name="daggerdblsuperior" xMin="32" yMin="222" xMax="426" yMax="730">
      <contour>
        <pt x="426" y="352" on="1"/>
        <pt x="281" y="352" on="1"/>
        <pt x="281" y="222" on="1"/>
        <pt x="178" y="222" on="1"/>
        <pt x="178" y="352" on="1"/>
        <pt x="32" y="352" on="1"/>
        <pt x="32" y="432" on="1"/>
        <pt x="178" y="432" on="1"/>
        <pt x="178" y="520" on="1"/>
        <pt x="32" y="520" on="1"/>
        <pt x="32" y="600" on="1"/>
        <pt x="178" y="600" on="1"/>
        <pt x="178" y="730" on="1"/>
        <pt x="281" y="730" on="1"/>
        <pt x="281" y="600" on="1"/>
        <pt x="426" y="600" on="1"/>
        <pt x="426" y="520" on="1"/>
        <pt x="281" y="520" on="1"/>
        <pt x="281" y="432" on="1"/>
        <pt x="426" y="432" on="1"/>
      </contour>
    </TTGlyph>
    <TTGlyph name="daggersuperior" xMin="32" yMin="222" xMax="426" yMax="730">
      <contour>
        <pt x="426" y="501" on="1"/>
        <pt x="281" y="501" on="1"/>
        <pt x="281" y="222" on="1"/>
        <pt x="178" y="222" on="1"/>
        <pt x="178" y="501" on="1"/>
        <pt x="32" y="501" on="1"/>
        <pt x="32" y="589" on="1"/>
        <pt x="178" y="589" on="1"/>
        <pt x="178" y="730" on="1"/>
        <pt x="281" y="730" on="1"/>
        <pt x="281" y="589" on="1"/>
        <pt x="426" y="589" on="1"/>
      </contour>
    </TTGlyph>
    <TTGlyph name="emdashinferior" xMin="53" yMin="-30" xMax="619" yMax="46">
      <component glyphName="emdashsuperior" x="0" y="-522" flags="0x4"/>
    </TTGlyph>
    <TTGlyph name="emdashsuperior" xMin="53" yMin="492" xMax="619" yMax="568">
      <contour>
        <pt x="53" y="568" on="1"/>
        <pt x="619" y="568" on="1"/>
        <pt x="619" y="492" on="1"/>
        <pt x="53" y="492" on="1"/>
      </contour>
    </TTGlyph>
    <TTGlyph name="endashinferior" xMin="53" yMin="-30" xMax="401" yMax="46">
      <component glyphName="endashsuperior" x="0" y="-522" flags="0x4"/>
    </TTGlyph>
    <TTGlyph name="endashsuperior" xMin="53" yMin="492" xMax="401" yMax="568">
      <contour>
        <pt x="53" y="568" on="1"/>
        <pt x="401" y="568" on="1"/>
        <pt x="401" y="492" on="1"/>
        <pt x="53" y="492" on="1"/>
      </contour>
    </TTGlyph>
    <TTGlyph name="f_t.liga" xMin="21" yMin="-10" xMax="766" yMax="730">
      <contour>
        <pt x="766" y="31" on="1"/>
        <pt x="716" y="-10" on="0"/>
        <pt x="630" y="-10" on="1"/>
        <pt x="556" y="-10" on="0"/>
        <pt x="463" y="59" on="0"/>
        <pt x="462" y="141" on="1"/>
        <pt x="462" y="398" on="1"/>
        <pt x="245" y="398" on="1"/>
        <pt x="245" y="0" on="1"/>
        <pt x="108" y="0" on="1"/>
        <pt x="108" y="398" on="1"/>
        <pt x="21" y="398" on="1"/>
        <pt x="21" y="500" on="1"/>
        <pt x="108" y="500" on="1"/>
        <pt x="108" y="560" on="1"/>
        <pt x="108" y="645" on="0"/>
        <pt x="211" y="730" on="0"/>
        <pt x="291" y="730" on="1"/>
        <pt x="353" y="730" on="0"/>
        <pt x="388" y="704" on="1"/>
        <pt x="373" y="613" on="1"/>
        <pt x="350" y="627" on="0"/>
        <pt x="319" y="627" on="1"/>
        <pt x="283" y="627" on="0"/>
        <pt x="239" y="591" on="0"/>
        <pt x="239" y="550" on="1"/>
        <pt x="239" y="500" on="1"/>
        <pt x="462" y="500" on="1"/>
        <pt x="462" y="615" on="1"/>
        <pt x="599" y="653" on="1"/>
        <pt x="599" y="500" on="1"/>
        <pt x="762" y="500" on="1"/>
        <pt x="762" y="398" on="1"/>
        <pt x="599" y="398" on="1"/>
        <pt x="599" y="163" on="1"/>
        <pt x="599" y="94" on="0"/>
        <pt x="669" y="94" on="1"/>
        <pt x="712" y="94" on="0"/>
        <pt x="745" y="122" on="1"/>
      </contour>
    </TTGlyph>
    <TTGlyph name="g.ss01_j.liga" xMin="48" yMin="-215" xMax="855" yMax="719">
      <contour>
        <pt x="685" y="645" on="1"/>
        <pt x="685" y="719" on="0"/>
        <pt x="769" y="719" on="1"/>
        <pt x="855" y="719" on="0"/>
        <pt x="855" y="645" on="1"/>
        <pt x="855" y="572" on="0"/>
        <pt x="769" y="572" on="1"/>
        <pt x="685" y="572" on="0"/>
      </contour>
      <contour>
        <pt x="303" y="113" on="1"/>
        <pt x="356" y="113" on="0"/>
        <pt x="419" y="187" on="0"/>
        <pt x="419" y="254" on="1"/>
        <pt x="419" y="264" on="1"/>
        <pt x="419" y="331" on="0"/>
        <pt x="357" y="405" on="0"/>
        <pt x="303" y="405" on="1"/>
        <pt x="186" y="405" on="0"/>
        <pt x="186" y="259" on="1"/>
        <pt x="186" y="113" on="0"/>
      </contour>
      <contour>
        <pt x="286" y="-215" on="1"/>
        <pt x="201" y="-215" on="0"/>
        <pt x="77" y="-155" on="0"/>
        <pt x="63" y="-78" on="1"/>
        <pt x="194" y="-38" on="1"/>
        <pt x="204" y="-121" on="0"/>
        <pt x="301" y="-121" on="1"/>
        <pt x="354" y="-121" on="0"/>
        <pt x="419" y="-52" on="0"/>
        <pt x="419" y="7" on="1"/>
        <pt x="419" y="87" on="1"/>
        <pt x="395" y="52" on="0"/>
        <pt x="315" y="9" on="0"/>
        <pt x="262" y="9" on="1"/>
        <pt x="162" y="9" on="0"/>
        <pt x="48" y="140" on="0"/>
        <pt x="48" y="258" on="1"/>
        <pt x="48" y="377" on="0"/>
        <pt x="163" y="510" on="0"/>
        <pt x="262" y="510" on="1"/>
        <pt x="323" y="510" on="0"/>
        <pt x="408" y="454" on="0"/>
        <pt x="428" y="409" on="1"/>
        <pt x="436" y="500" on="1"/>
        <pt x="556" y="500" on="1"/>
        <pt x="556" y="40" on="1"/>
        <pt x="556" y="-95" on="0"/>
        <pt x="413" y="-215" on="0"/>
      </contour>
      <contour>
        <pt x="701" y="500" on="1"/>
        <pt x="838" y="500" on="1"/>
        <pt x="838" y="-40" on="1"/>
        <pt x="838" y="-145" on="0"/>
        <pt x="722" y="-215" on="0"/>
        <pt x="658" y="-215" on="1"/>
        <pt x="604" y="-215" on="0"/>
        <pt x="562" y="-189" on="1"/>
        <pt x="584" y="-85" on="1"/>
        <pt x="611" y="-108" on="0"/>
        <pt x="646" y="-108" on="1"/>
        <pt x="671" y="-108" on="0"/>
        <pt x="701" y="-74" on="0"/>
        <pt x="701" y="-32" on="1"/>
      </contour>
    </TTGlyph>
    <TTGlyph name="g_j.liga" xMin="25" yMin="-215" xMax="794" yMax="719">
      <contour>
        <pt x="624" y="645" on="1"/>
        <pt x="624" y="719" on="0"/>
        <pt x="709" y="719" on="1"/>
        <pt x="794" y="719" on="0"/>
        <pt x="794" y="645" on="1"/>
        <pt x="794" y="572" on="0"/>
        <pt x="709" y="572" on="1"/>
        <pt x="624" y="572" on="0"/>
      </contour>
      <contour>
        <pt x="370" y="341" on="1"/>
        <pt x="370" y="423" on="0"/>
        <pt x="276" y="423" on="1"/>
        <pt x="181" y="423" on="0"/>
        <pt x="181" y="341" on="1"/>
        <pt x="181" y="258" on="0"/>
        <pt x="276" y="258" on="1"/>
        <pt x="370" y="258" on="0"/>
      </contour>
      <contour>
        <pt x="529" y="-45" on="1"/>
        <pt x="529" y="-127" on="0"/>
        <pt x="386" y="-215" on="0"/>
        <pt x="271" y="-215" on="1"/>
        <pt x="147" y="-215" on="0"/>
        <pt x="25" y="-147" on="0"/>
        <pt x="25" y="-92" on="1"/>
        <pt x="25" y="-17" on="0"/>
        <pt x="109" y="8" on="1"/>
        <pt x="80" y="23" on="0"/>
        <pt x="43" y="71" on="0"/>
        <pt x="43" y="105" on="1"/>
        <pt x="43" y="178" on="0"/>
        <pt x="123" y="206" on="1"/>
        <pt x="47" y="250" on="0"/>
        <pt x="47" y="340" on="1"/>
        <pt x="47" y="420" on="0"/>
        <pt x="169" y="510" on="0"/>
        <pt x="278" y="510" on="1"/>
        <pt x="336" y="510" on="0"/>
        <pt x="381" y="497" on="1"/>
        <pt x="390" y="550" on="0"/>
        <pt x="467" y="622" on="0"/>
        <pt x="531" y="619" on="1"/>
        <pt x="549" y="521" on="1"/>
        <pt x="457" y="530" on="0"/>
        <pt x="438" y="470" on="1"/>
        <pt x="504" y="426" on="0"/>
        <pt x="504" y="340" on="1"/>
        <pt x="504" y="261" on="0"/>
        <pt x="388" y="171" on="0"/>
        <pt x="278" y="171" on="1"/>
        <pt x="230" y="171" on="0"/>
        <pt x="190" y="180" on="1"/>
        <pt x="144" y="171" on="0"/>
        <pt x="144" y="137" on="1"/>
        <pt x="144" y="94" on="0"/>
        <pt x="221" y="94" on="1"/>
        <pt x="354" y="94" on="1"/>
        <pt x="437" y="94" on="0"/>
        <pt x="529" y="23" on="0"/>
      </contour>
      <contour>
        <pt x="278" y="-121" on="1"/>
        <pt x="348" y="-121" on="0"/>
        <pt x="418" y="-85" on="0"/>
        <pt x="418" y="-59" on="1"/>
        <pt x="418" y="-40" on="0"/>
        <pt x="384" y="-17" on="0"/>
        <pt x="339" y="-17" on="1"/>
        <pt x="221" y="-17" on="1"/>
        <pt x="133" y="-17" on="0"/>
        <pt x="133" y="-64" on="1"/>
        <pt x="133" y="-121" on="0"/>
      </contour>
      <contour>
        <pt x="641" y="500" on="1"/>
        <pt x="778" y="500" on="1"/>
        <pt x="778" y="-40" on="1"/>
        <pt x="778" y="-145" on="0"/>
        <pt x="674" y="-215" on="0"/>
        <pt x="610" y="-215" on="1"/>
        <pt x="566" y="-215" on="0"/>
        <pt x="534" y="-202" on="1"/>
        <pt x="554" y="-97" on="1"/>
        <pt x="572" y="-108" on="0"/>
        <pt x="597" y="-108" on="1"/>
        <pt x="641" y="-108" on="0"/>
        <pt x="641" y="-32" on="1"/>
      </contour>
    </TTGlyph>
    <TTGlyph name="hypheninferior" xMin="52" yMin="-30" xMax="275" yMax="46">
      <component glyphName="hyphensuperior" x="0" y="-522" flags="0x4"/>
    </TTGlyph>
    <TTGlyph name="hyphensuperior" xMin="52" yMin="492" xMax="275" yMax="568">
      <contour>
        <pt x="52" y="568" on="1"/>
        <pt x="275" y="568" on="1"/>
        <pt x="275" y="492" on="1"/>
        <pt x="52" y="492" on="1"/>
      </contour>
    </TTGlyph>
    <TTGlyph name="iacute_j.loclNLD" xMin="72" yMin="-215" xMax="567" yMax="742">
      <contour>
        <pt x="354" y="500" on="1"/>
        <pt x="491" y="500" on="1"/>
        <pt x="491" y="-37" on="1"/>
        <pt x="491" y="-135" on="0"/>
        <pt x="389" y="-215" on="0"/>
        <pt x="313" y="-215" on="1"/>
        <pt x="241" y="-215" on="0"/>
        <pt x="193" y="-183" on="1"/>
        <pt x="215" y="-85" on="1"/>
        <pt x="242" y="-109" on="0"/>
        <pt x="285" y="-109" on="1"/>
        <pt x="317" y="-109" on="0"/>
        <pt x="354" y="-71" on="0"/>
        <pt x="354" y="-24" on="1"/>
      </contour>
      <contour>
        <pt x="72" y="500" on="1"/>
        <pt x="209" y="500" on="1"/>
        <pt x="209" y="0" on="1"/>
        <pt x="72" y="0" on="1"/>
      </contour>
      <contour>
        <pt x="567" y="742" on="1"/>
        <pt x="435" y="742" on="1"/>
        <pt x="365" y="572" on="1"/>
        <pt x="467" y="572" on="1"/>
      </contour>
      <contour>
        <pt x="282" y="742" on="1"/>
        <pt x="150" y="742" on="1"/>
        <pt x="80" y="572" on="1"/>
        <pt x="182" y="572" on="1"/>
      </contour>
    </TTGlyph>
    <TTGlyph name="iacute_j.loclNLD.sc" xMin="78" yMin="-8" xMax="835" yMax="792">
      <component glyphName="uni0069.sc" x="0" y="0" flags="0x4"/>
      <component glyphName="uni006A.sc" x="294" y="0" flags="0x4"/>
      <component glyphName="uni0301.cap" x="707" y="-100" flags="0x4"/>
      <component glyphName="uni0301.cap" x="153" y="-100" flags="0x4"/>
    </TTGlyph>
    <TTGlyph name="iacute_j.loclNLD.sc.ss05" xMin="60" yMin="-8" xMax="586" yMax="792">
      <component glyphName="uni0133.sc.ss05" x="0" y="0" flags="0x4"/>
      <component glyphName="uni0301.cap" x="146" y="-100" flags="0x4"/>
      <component glyphName="uni0301.cap" x="458" y="-100" flags="0x4"/>
    </TTGlyph>
    <TTGlyph name="idotaccent" xMin="56" yMin="0" xMax="226" yMax="719">
      <component glyphName="uni0069" x="0" y="0" flags="0x4"/>
    </TTGlyph>
    <TTGlyph name="idotaccent.sc" xMin="67" yMin="0" xMax="228" yMax="752">
      <component glyphName="uni0069.sc" x="0" y="0" flags="0x4"/>
      <component glyphName="uni02D9" x="-103" y="32" flags="0x4"/>
    </TTGlyph>
    <TTGlyph name="indexring" xMin="77" yMin="-40" xMax="833" yMax="700">
      <contour>
        <pt x="833" y="330" on="1"/>
        <pt x="833" y="164" on="0"/>
        <pt x="625" y="-40" on="0"/>
        <pt x="455" y="-40" on="1"/>
        <pt x="286" y="-40" on="0"/>
        <pt x="77" y="164" on="0"/>
        <pt x="77" y="330" on="1"/>
        <pt x="77" y="496" on="0"/>
        <pt x="286" y="700" on="0"/>
        <pt x="455" y="700" on="1"/>
        <pt x="625" y="700" on="0"/>
        <pt x="833" y="496" on="0"/>
      </contour>
      <contour>
        <pt x="157" y="330" on="1"/>
        <pt x="157" y="197" on="0"/>
        <pt x="322" y="32" on="0"/>
        <pt x="455" y="32" on="1"/>
        <pt x="588" y="32" on="0"/>
        <pt x="753" y="197" on="0"/>
        <pt x="753" y="330" on="1"/>
        <pt x="753" y="464" on="0"/>
        <pt x="588" y="628" on="0"/>
        <pt x="455" y="628" on="1"/>
        <pt x="322" y="628" on="0"/>
        <pt x="157" y="464" on="0"/>
      </contour>
    </TTGlyph>
    <TTGlyph name="j_j.liga" xMin="-89" yMin="-215" xMax="507" yMax="719">
      <contour>
        <pt x="337" y="645" on="1"/>
        <pt x="337" y="719" on="0"/>
        <pt x="422" y="719" on="1"/>
        <pt x="507" y="719" on="0"/>
        <pt x="507" y="645" on="1"/>
        <pt x="507" y="572" on="0"/>
        <pt x="422" y="572" on="1"/>
        <pt x="337" y="572" on="0"/>
      </contour>
      <contour>
        <pt x="56" y="645" on="1"/>
        <pt x="56" y="719" on="0"/>
        <pt x="141" y="719" on="1"/>
        <pt x="226" y="719" on="0"/>
        <pt x="226" y="645" on="1"/>
        <pt x="226" y="572" on="0"/>
        <pt x="141" y="572" on="1"/>
        <pt x="56" y="572" on="0"/>
      </contour>
      <contour>
        <pt x="354" y="500" on="1"/>
        <pt x="491" y="500" on="1"/>
        <pt x="491" y="-40" on="1"/>
        <pt x="491" y="-145" on="0"/>
        <pt x="375" y="-215" on="0"/>
        <pt x="311" y="-215" on="1"/>
        <pt x="257" y="-215" on="0"/>
        <pt x="215" y="-189" on="1"/>
        <pt x="236" y="-85" on="1"/>
        <pt x="263" y="-108" on="0"/>
        <pt x="298" y="-108" on="1"/>
        <pt x="323" y="-108" on="0"/>
        <pt x="354" y="-74" on="0"/>
        <pt x="354" y="-32" on="1"/>
      </contour>
      <contour>
        <pt x="72" y="500" on="1"/>
        <pt x="209" y="500" on="1"/>
        <pt x="209" y="-37" on="1"/>
        <pt x="209" y="-135" on="0"/>
        <pt x="107" y="-215" on="0"/>
        <pt x="31" y="-215" on="1"/>
        <pt x="-41" y="-215" on="0"/>
        <pt x="-89" y="-183" on="1"/>
        <pt x="-67" y="-85" on="1"/>
        <pt x="-40" y="-109" on="0"/>
        <pt x="3" y="-109" on="1"/>
        <pt x="35" y="-109" on="0"/>
        <pt x="72" y="-71" on="0"/>
        <pt x="72" y="-24" on="1"/>
      </contour>
    </TTGlyph>
    <TTGlyph name="periodinferior" xMin="42" yMin="-195" xMax="170" yMax="-78">
      <component glyphName="periodsuperior" x="0" y="-522" flags="0x4"/>
    </TTGlyph>
    <TTGlyph name="periodsuperior" xMin="42" yMin="327" xMax="170" yMax="444">
      <contour>
        <pt x="42" y="385" on="1"/>
        <pt x="42" y="444" on="0"/>
        <pt x="106" y="444" on="1"/>
        <pt x="170" y="444" on="0"/>
        <pt x="170" y="385" on="1"/>
        <pt x="170" y="327" on="0"/>
        <pt x="106" y="327" on="1"/>
        <pt x="42" y="327" on="0"/>
      </contour>
    </TTGlyph>
    <TTGlyph name="registeredsuperior" xMin="23" yMin="138" xMax="563" yMax="670">
      <contour>
        <pt x="563" y="404" on="1"/>
        <pt x="563" y="284" on="0"/>
        <pt x="415" y="138" on="0"/>
        <pt x="293" y="138" on="1"/>
        <pt x="171" y="138" on="0"/>
        <pt x="23" y="284" on="0"/>
        <pt x="23" y="404" on="1"/>
        <pt x="23" y="524" on="0"/>
        <pt x="171" y="670" on="0"/>
        <pt x="293" y="670" on="1"/>
        <pt x="415" y="670" on="0"/>
        <pt x="563" y="524" on="0"/>
      </contour>
      <contour>
        <pt x="94" y="404" on="1"/>
        <pt x="94" y="314" on="0"/>
        <pt x="204" y="204" on="0"/>
        <pt x="293" y="204" on="1"/>
        <pt x="382" y="204" on="0"/>
        <pt x="492" y="314" on="0"/>
        <pt x="492" y="404" on="1"/>
        <pt x="492" y="495" on="0"/>
        <pt x="382" y="605" on="0"/>
        <pt x="293" y="605" on="1"/>
        <pt x="204" y="605" on="0"/>
        <pt x="94" y="495" on="0"/>
      </contour>
      <contour>
        <pt x="302" y="493" on="1"/>
        <pt x="258" y="493" on="1"/>
        <pt x="258" y="410" on="1"/>
        <pt x="302" y="410" on="1"/>
        <pt x="349" y="410" on="0"/>
        <pt x="349" y="451" on="1"/>
        <pt x="349" y="493" on="0"/>
      </contour>
      <contour>
        <pt x="348" y="265" on="1"/>
        <pt x="292" y="361" on="1"/>
        <pt x="258" y="361" on="1"/>
        <pt x="258" y="265" on="1"/>
        <pt x="191" y="265" on="1"/>
        <pt x="191" y="548" on="1"/>
        <pt x="309" y="548" on="1"/>
        <pt x="357" y="548" on="0"/>
        <pt x="417" y="496" on="0"/>
        <pt x="417" y="452" on="1"/>
        <pt x="417" y="386" on="0"/>
        <pt x="356" y="367" on="1"/>
        <pt x="423" y="265" on="1"/>
      </contour>
    </TTGlyph>
    <TTGlyph name="t_t.liga" xMin="20" yMin="-10" xMax="786" yMax="653">
      <contour>
        <pt x="786" y="31" on="1"/>
        <pt x="734" y="-10" on="0"/>
        <pt x="649" y="-10" on="1"/>
        <pt x="575" y="-10" on="0"/>
        <pt x="482" y="59" on="0"/>
        <pt x="481" y="141" on="1"/>
        <pt x="481" y="398" on="1"/>
        <pt x="248" y="398" on="1"/>
        <pt x="248" y="163" on="1"/>
        <pt x="248" y="94" on="0"/>
        <pt x="311" y="94" on="1"/>
        <pt x="353" y="94" on="0"/>
        <pt x="385" y="123" on="1"/>
        <pt x="407" y="31" on="1"/>
        <pt x="358" y="-10" on="0"/>
        <pt x="274" y="-10" on="1"/>
        <pt x="202" y="-10" on="0"/>
        <pt x="111" y="59" on="0"/>
        <pt x="111" y="141" on="1"/>
        <pt x="111" y="398" on="1"/>
        <pt x="20" y="398" on="1"/>
        <pt x="20" y="500" on="1"/>
        <pt x="111" y="500" on="1"/>
        <pt x="111" y="615" on="1"/>
        <pt x="248" y="653" on="1"/>
        <pt x="248" y="500" on="1"/>
        <pt x="481" y="500" on="1"/>
        <pt x="481" y="615" on="1"/>
        <pt x="618" y="653" on="1"/>
        <pt x="618" y="500" on="1"/>
        <pt x="781" y="500" on="1"/>
        <pt x="781" y="398" on="1"/>
        <pt x="618" y="398" on="1"/>
        <pt x="618" y="163" on="1"/>
        <pt x="618" y="94" on="0"/>
        <pt x="688" y="94" on="1"/>
        <pt x="731" y="94" on="0"/>
        <pt x="764" y="122" on="1"/>
      </contour>
    </TTGlyph>
    <TTGlyph name="uni0021" xMin="60" yMin="-9" xMax="230" yMax="660">
      <contour>
        <pt x="73" y="660" on="1"/>
        <pt x="217" y="660" on="1"/>
        <pt x="217" y="420" on="1"/>
        <pt x="200" y="213" on="1"/>
        <pt x="90" y="213" on="1"/>
        <pt x="73" y="420" on="1"/>
      </contour>
      <contour>
        <pt x="60" y="68" on="1"/>
        <pt x="60" y="145" on="0"/>
        <pt x="145" y="145" on="1"/>
        <pt x="230" y="145" on="0"/>
        <pt x="230" y="68" on="1"/>
        <pt x="230" y="-9" on="0"/>
        <pt x="145" y="-9" on="1"/>
        <pt x="60" y="-9" on="0"/>
      </contour>
    </TTGlyph>
    <TTGlyph name="uni0021.sc" xMin="55" yMin="-8" xMax="216" yMax="560">
      <contour>
        <pt x="65" y="560" on="1"/>
        <pt x="205" y="560" on="1"/>
        <pt x="205" y="382" on="1"/>
        <pt x="190" y="187" on="1"/>
        <pt x="81" y="187" on="1"/>
        <pt x="65" y="382" on="1"/>
      </contour>
      <contour>
        <pt x="55" y="64" on="1"/>
        <pt x="55" y="137" on="0"/>
        <pt x="135" y="137" on="1"/>
        <pt x="216" y="137" on="0"/>
        <pt x="216" y="64" on="1"/>
        <pt x="216" y="-8" on="0"/>
        <pt x="135" y="-8" on="1"/>
        <pt x="55" y="-8" on="0"/>
      </contour>
    </TTGlyph>
    <TTGlyph name="uni0022" xMin="70" yMin="416" xMax="379" yMax="682">
      <component glyphName="uni0027" x="187" y="0" flags="0x4"/>
      <component glyphName="uni0027" x="0" y="0" flags="0x4"/>
    </TTGlyph>
    <TTGlyph name="uni0022.sc" xMin="70" yMin="325" xMax="379" yMax="591">
      <component glyphName="uni0027.sc" x="187" y="0" flags="0x4"/>
      <component glyphName="uni0027.sc" x="0" y="0" flags="0x4"/>
    </TTGlyph>
    <TTGlyph name="uni0023" xMin="24" yMin="0" xMax="646" yMax="660">
      <contour>
        <pt x="391" y="257" on="1"/>
        <pt x="415" y="406" on="1"/>
        <pt x="272" y="406" on="1"/>
        <pt x="248" y="257" on="1"/>
      </contour>
      <contour>
        <pt x="349" y="0" on="1"/>
        <pt x="377" y="170" on="1"/>
        <pt x="234" y="170" on="1"/>
        <pt x="206" y="0" on="1"/>
        <pt x="108" y="0" on="1"/>
        <pt x="136" y="170" on="1"/>
        <pt x="24" y="170" on="1"/>
        <pt x="24" y="257" on="1"/>
        <pt x="150" y="257" on="1"/>
        <pt x="174" y="406" on="1"/>
        <pt x="67" y="406" on="1"/>
        <pt x="67" y="493" on="1"/>
        <pt x="188" y="493" on="1"/>
        <pt x="215" y="660" on="1"/>
        <pt x="314" y="660" on="1"/>
        <pt x="287" y="493" on="1"/>
        <pt x="430" y="493" on="1"/>
        <pt x="457" y="660" on="1"/>
        <pt x="555" y="660" on="1"/>
        <pt x="528" y="493" on="1"/>
        <pt x="646" y="493" on="1"/>
        <pt x="646" y="406" on="1"/>
        <pt x="513" y="406" on="1"/>
        <pt x="489" y="257" on="1"/>
        <pt x="603" y="257" on="1"/>
        <pt x="603" y="170" on="1"/>
        <pt x="475" y="170" on="1"/>
        <pt x="447" y="0" on="1"/>
      </contour>
    </TTGlyph>
    <TTGlyph name="uni0023.tf" xMin="16" yMin="0" xMax="588" yMax="660">
      <contour>
        <pt x="365" y="257" on="1"/>
        <pt x="388" y="406" on="1"/>
        <pt x="247" y="406" on="1"/>
        <pt x="224" y="257" on="1"/>
      </contour>
      <contour>
        <pt x="326" y="0" on="1"/>
        <pt x="352" y="170" on="1"/>
        <pt x="211" y="170" on="1"/>
        <pt x="185" y="0" on="1"/>
        <pt x="97" y="0" on="1"/>
        <pt x="123" y="170" on="1"/>
        <pt x="16" y="170" on="1"/>
        <pt x="16" y="257" on="1"/>
        <pt x="136" y="257" on="1"/>
        <pt x="159" y="406" on="1"/>
        <pt x="55" y="406" on="1"/>
        <pt x="55" y="493" on="1"/>
        <pt x="172" y="493" on="1"/>
        <pt x="198" y="660" on="1"/>
        <pt x="286" y="660" on="1"/>
        <pt x="260" y="493" on="1"/>
        <pt x="401" y="493" on="1"/>
        <pt x="427" y="660" on="1"/>
        <pt x="515" y="660" on="1"/>
        <pt x="490" y="493" on="1"/>
        <pt x="588" y="493" on="1"/>
        <pt x="588" y="406" on="1"/>
        <pt x="477" y="406" on="1"/>
        <pt x="454" y="257" on="1"/>
        <pt x="548" y="257" on="1"/>
        <pt x="548" y="170" on="1"/>
        <pt x="441" y="170" on="1"/>
        <pt x="415" y="0" on="1"/>
      </contour>
    </TTGlyph>
    <TTGlyph name="uni0024" xMin="33" yMin="-92" xMax="590" yMax="752">
      <contour>
        <pt x="183" y="471" on="1"/>
        <pt x="183" y="436" on="0"/>
        <pt x="239" y="402" on="0"/>
        <pt x="279" y="391" on="1"/>
        <pt x="279" y="558" on="1"/>
        <pt x="183" y="544" on="0"/>
      </contour>
      <contour>
        <pt x="365" y="263" on="1"/>
        <pt x="365" y="100" on="1"/>
        <pt x="462" y="111" on="0"/>
        <pt x="462" y="181" on="1"/>
        <pt x="462" y="217" on="0"/>
        <pt x="406" y="253" on="0"/>
      </contour>
      <contour>
        <pt x="365" y="-92" on="1"/>
        <pt x="279" y="-92" on="1"/>
        <pt x="279" y="1" on="1"/>
        <pt x="188" y="8" on="0"/>
        <pt x="68" y="80" on="0"/>
        <pt x="33" y="143" on="1"/>
        <pt x="114" y="219" on="1"/>
        <pt x="133" y="170" on="0"/>
        <pt x="222" y="109" on="0"/>
        <pt x="279" y="100" on="1"/>
        <pt x="279" y="282" on="1"/>
        <pt x="226" y="293" on="0"/>
        <pt x="123" y="327" on="0"/>
        <pt x="57" y="398" on="0"/>
        <pt x="57" y="462" on="1"/>
        <pt x="57" y="539" on="0"/>
        <pt x="173" y="648" on="0"/>
        <pt x="279" y="658" on="1"/>
        <pt x="279" y="752" on="1"/>
        <pt x="365" y="752" on="1"/>
        <pt x="365" y="658" on="1"/>
        <pt x="450" y="652" on="0"/>
        <pt x="552" y="587" on="0"/>
        <pt x="590" y="532" on="1"/>
        <pt x="513" y="453" on="1"/>
        <pt x="460" y="548" on="0"/>
        <pt x="365" y="559" on="1"/>
        <pt x="365" y="373" on="1"/>
        <pt x="419" y="362" on="0"/>
        <pt x="521" y="326" on="0"/>
        <pt x="587" y="254" on="0"/>
        <pt x="587" y="188" on="1"/>
        <pt x="587" y="108" on="0"/>
        <pt x="463" y="10" on="0"/>
        <pt x="365" y="2" on="1"/>
      </contour>
    </TTGlyph>
    <TTGlyph name="uni0024.tf" xMin="34" yMin="-92" xMax="569" yMax="752">
      <contour>
        <pt x="176" y="471" on="1"/>
        <pt x="176" y="437" on="0"/>
        <pt x="229" y="402" on="0"/>
        <pt x="269" y="391" on="1"/>
        <pt x="269" y="559" on="1"/>
        <pt x="176" y="544" on="0"/>
      </contour>
      <contour>
        <pt x="450" y="181" on="1"/>
        <pt x="450" y="215" on="0"/>
        <pt x="397" y="250" on="0"/>
        <pt x="356" y="261" on="1"/>
        <pt x="356" y="100" on="1"/>
        <pt x="450" y="112" on="0"/>
      </contour>
      <contour>
        <pt x="356" y="-92" on="1"/>
        <pt x="269" y="-92" on="1"/>
        <pt x="269" y="2" on="1"/>
        <pt x="103" y="16" on="0"/>
        <pt x="34" y="143" on="1"/>
        <pt x="119" y="219" on="1"/>
        <pt x="134" y="172" on="0"/>
        <pt x="219" y="111" on="0"/>
        <pt x="269" y="101" on="1"/>
        <pt x="269" y="281" on="1"/>
        <pt x="218" y="292" on="0"/>
        <pt x="123" y="328" on="0"/>
        <pt x="61" y="398" on="0"/>
        <pt x="61" y="462" on="1"/>
        <pt x="61" y="538" on="0"/>
        <pt x="170" y="647" on="0"/>
        <pt x="269" y="658" on="1"/>
        <pt x="269" y="752" on="1"/>
        <pt x="356" y="752" on="1"/>
        <pt x="356" y="658" on="1"/>
        <pt x="434" y="651" on="0"/>
        <pt x="529" y="586" on="0"/>
        <pt x="569" y="532" on="1"/>
        <pt x="490" y="452" on="1"/>
        <pt x="446" y="545" on="0"/>
        <pt x="356" y="559" on="1"/>
        <pt x="356" y="371" on="1"/>
        <pt x="407" y="359" on="0"/>
        <pt x="502" y="323" on="0"/>
        <pt x="564" y="252" on="0"/>
        <pt x="564" y="188" on="1"/>
        <pt x="564" y="108" on="0"/>
        <pt x="448" y="12" on="0"/>
        <pt x="356" y="2" on="1"/>
      </contour>
    </TTGlyph>
    <TTGlyph name="uni0025" xMin="34" yMin="-10" xMax="874" yMax="670">
      <contour>
        <pt x="34" y="484" on="1"/>
        <pt x="34" y="568" on="0"/>
        <pt x="131" y="670" on="0"/>
        <pt x="210" y="670" on="1"/>
        <pt x="290" y="670" on="0"/>
        <pt x="386" y="568" on="0"/>
        <pt x="386" y="484" on="1"/>
        <pt x="386" y="400" on="0"/>
        <pt x="290" y="298" on="0"/>
        <pt x="210" y="298" on="1"/>
        <pt x="131" y="298" on="0"/>
        <pt x="34" y="400" on="0"/>
      </contour>
      <contour>
        <pt x="287" y="0" on="1"/>
        <pt x="177" y="0" on="1"/>
        <pt x="622" y="660" on="1"/>
        <pt x="732" y="660" on="1"/>
      </contour>
      <contour>
        <pt x="280" y="484" on="1"/>
        <pt x="280" y="575" on="0"/>
        <pt x="210" y="575" on="1"/>
        <pt x="140" y="575" on="0"/>
        <pt x="140" y="484" on="1"/>
        <pt x="140" y="394" on="0"/>
        <pt x="210" y="394" on="1"/>
        <pt x="280" y="394" on="0"/>
      </contour>
      <contour>
        <pt x="522" y="176" on="1"/>
        <pt x="522" y="260" on="0"/>
        <pt x="618" y="362" on="0"/>
        <pt x="698" y="362" on="1"/>
        <pt x="778" y="362" on="0"/>
        <pt x="874" y="260" on="0"/>
        <pt x="874" y="176" on="1"/>
        <pt x="874" y="92" on="0"/>
        <pt x="778" y="-10" on="0"/>
        <pt x="698" y="-10" on="1"/>
        <pt x="618" y="-10" on="0"/>
        <pt x="522" y="92" on="0"/>
      </contour>
      <contour>
        <pt x="768" y="176" on="1"/>
        <pt x="768" y="266" on="0"/>
        <pt x="698" y="266" on="1"/>
        <pt x="628" y="266" on="0"/>
        <pt x="628" y="176" on="1"/>
        <pt x="628" y="85" on="0"/>
        <pt x="698" y="85" on="1"/>
        <pt x="768" y="85" on="0"/>
      </contour>
    </TTGlyph>
    <TTGlyph name="uni0026" xMin="33" yMin="-10" xMax="637" yMax="670">
      <contour>
        <pt x="620" y="-10" on="1"/>
        <pt x="573" y="-10" on="0"/>
        <pt x="500" y="14" on="0"/>
        <pt x="450" y="58" on="1"/>
        <pt x="375" y="-10" on="0"/>
        <pt x="258" y="-10" on="1"/>
        <pt x="159" y="-10" on="0"/>
        <pt x="34" y="84" on="0"/>
        <pt x="34" y="166" on="1"/>
        <pt x="33" y="217" on="0"/>
        <pt x="94" y="318" on="0"/>
        <pt x="178" y="353" on="1"/>
        <pt x="136" y="404" on="0"/>
        <pt x="106" y="471" on="0"/>
        <pt x="106" y="510" on="1"/>
        <pt x="106" y="569" on="0"/>
        <pt x="197" y="670" on="0"/>
        <pt x="290" y="670" on="1"/>
        <pt x="375" y="670" on="0"/>
        <pt x="472" y="589" on="0"/>
        <pt x="472" y="521" on="1"/>
        <pt x="472" y="465" on="0"/>
        <pt x="411" y="375" on="0"/>
        <pt x="332" y="340" on="1"/>
        <pt x="344" y="325" on="0"/>
        <pt x="372" y="293" on="0"/>
        <pt x="388" y="275" on="1"/>
        <pt x="409" y="251" on="0"/>
        <pt x="445" y="210" on="0"/>
        <pt x="460" y="193" on="1"/>
        <pt x="493" y="258" on="0"/>
        <pt x="489" y="345" on="1"/>
        <pt x="584" y="340" on="1"/>
        <pt x="587" y="217" on="0"/>
        <pt x="520" y="132" on="1"/>
        <pt x="552" y="103" on="0"/>
        <pt x="603" y="85" on="0"/>
        <pt x="637" y="88" on="1"/>
      </contour>
      <contour>
        <pt x="226" y="507" on="1"/>
        <pt x="226" y="485" on="0"/>
        <pt x="247" y="442" on="0"/>
        <pt x="283" y="398" on="1"/>
        <pt x="334" y="431" on="0"/>
        <pt x="360" y="486" on="0"/>
        <pt x="360" y="515" on="1"/>
        <pt x="360" y="574" on="0"/>
        <pt x="292" y="574" on="1"/>
        <pt x="260" y="574" on="0"/>
        <pt x="226" y="536" on="0"/>
      </contour>
      <contour>
        <pt x="267" y="85" on="1"/>
        <pt x="334" y="85" on="0"/>
        <pt x="389" y="117" on="1"/>
        <pt x="358" y="149" on="0"/>
        <pt x="316" y="197" on="1"/>
        <pt x="292" y="223" on="0"/>
        <pt x="250" y="269" on="0"/>
        <pt x="233" y="289" on="1"/>
        <pt x="184" y="256" on="0"/>
        <pt x="153" y="206" on="0"/>
        <pt x="153" y="176" on="1"/>
        <pt x="153" y="136" on="0"/>
        <pt x="219" y="85" on="0"/>
      </contour>
    </TTGlyph>
    <TTGlyph name="uni0026.sc" xMin="29" yMin="-8" xMax="576" yMax="568">
      <contour>
        <pt x="558" y="-8" on="1"/>
        <pt x="518" y="-8" on="0"/>
        <pt x="455" y="13" on="0"/>
        <pt x="411" y="49" on="1"/>
        <pt x="346" y="-8" on="0"/>
        <pt x="237" y="-8" on="1"/>
        <pt x="137" y="-8" on="0"/>
        <pt x="29" y="70" on="0"/>
        <pt x="29" y="137" on="1"/>
        <pt x="29" y="184" on="0"/>
        <pt x="84" y="263" on="0"/>
        <pt x="161" y="295" on="1"/>
        <pt x="122" y="338" on="0"/>
        <pt x="94" y="397" on="0"/>
        <pt x="94" y="430" on="1"/>
        <pt x="94" y="481" on="0"/>
        <pt x="176" y="568" on="0"/>
        <pt x="263" y="568" on="1"/>
        <pt x="337" y="568" on="0"/>
        <pt x="424" y="501" on="0"/>
        <pt x="424" y="440" on="1"/>
        <pt x="424" y="392" on="0"/>
        <pt x="376" y="317" on="0"/>
        <pt x="304" y="282" on="1"/>
        <pt x="321" y="264" on="0"/>
        <pt x="350" y="232" on="1"/>
        <pt x="390" y="189" on="0"/>
        <pt x="416" y="163" on="1"/>
        <pt x="445" y="212" on="0"/>
        <pt x="442" y="295" on="1"/>
        <pt x="526" y="285" on="1"/>
        <pt x="527" y="229" on="0"/>
        <pt x="498" y="145" on="0"/>
        <pt x="473" y="113" on="1"/>
        <pt x="502" y="91" on="0"/>
        <pt x="548" y="77" on="0"/>
        <pt x="576" y="78" on="1"/>
      </contour>
      <contour>
        <pt x="210" y="425" on="1"/>
        <pt x="210" y="406" on="0"/>
        <pt x="227" y="370" on="0"/>
        <pt x="256" y="336" on="1"/>
        <pt x="298" y="362" on="0"/>
        <pt x="321" y="404" on="0"/>
        <pt x="321" y="430" on="1"/>
        <pt x="321" y="480" on="0"/>
        <pt x="265" y="480" on="1"/>
        <pt x="210" y="480" on="0"/>
      </contour>
      <contour>
        <pt x="244" y="77" on="1"/>
        <pt x="303" y="77" on="0"/>
        <pt x="351" y="103" on="1"/>
        <pt x="326" y="126" on="0"/>
        <pt x="293" y="160" on="1"/>
        <pt x="270" y="182" on="0"/>
        <pt x="231" y="221" on="0"/>
        <pt x="214" y="238" on="1"/>
        <pt x="174" y="214" on="0"/>
        <pt x="145" y="175" on="0"/>
        <pt x="145" y="152" on="1"/>
        <pt x="145" y="118" on="0"/>
        <pt x="204" y="77" on="0"/>
      </contour>
    </TTGlyph>
    <TTGlyph name="uni0027" xMin="70" yMin="416" xMax="192" yMax="682">
      <contour>
        <pt x="70" y="682" on="1"/>
        <pt x="192" y="682" on="1"/>
        <pt x="164" y="416" on="1"/>
        <pt x="70" y="416" on="1"/>
      </contour>
    </TTGlyph>
    <TTGlyph name="uni0027.sc" xMin="70" yMin="325" xMax="192" yMax="591">
      <contour>
        <pt x="70" y="591" on="1"/>
        <pt x="192" y="591" on="1"/>
        <pt x="164" y="325" on="1"/>
        <pt x="70" y="325" on="1"/>
      </contour>
    </TTGlyph>
    <TTGlyph name="uni0028" xMin="65" yMin="-191" xMax="359" yMax="742">
      <contour>
        <pt x="65" y="276" on="1"/>
        <pt x="65" y="574" on="0"/>
        <pt x="291" y="742" on="1"/>
        <pt x="359" y="675" on="1"/>
        <pt x="269" y="593" on="0"/>
        <pt x="192" y="410" on="0"/>
        <pt x="192" y="276" on="1"/>
        <pt x="192" y="142" on="0"/>
        <pt x="269" y="-42" on="0"/>
        <pt x="359" y="-124" on="1"/>
        <pt x="291" y="-191" on="1"/>
        <pt x="65" y="-23" on="0"/>
      </contour>
    </TTGlyph>
    <TTGlyph name="uni0028.case" xMin="65" yMin="-140" xMax="359" yMax="793">
      <component glyphName="uni0028" x="0" y="51" flags="0x4"/>
    </TTGlyph>
    <TTGlyph name="uni0029" xMin="17" yMin="-191" xMax="311" yMax="742">
      <component glyphName="uni0028" x="376" y="0" scalex="-1.0" scaley="1.0" flags="0x4"/>
    </TTGlyph>
    <TTGlyph name="uni0029.case" xMin="17" yMin="-140" xMax="311" yMax="793">
      <component glyphName="uni0028.case" x="376" y="0" scalex="-1.0" scaley="1.0" flags="0x4"/>
    </TTGlyph>
    <TTGlyph name="uni002A" xMin="44" yMin="259" xMax="538" yMax="730">
      <contour>
        <pt x="394" y="259" on="1"/>
        <pt x="318" y="366" on="1"/>
        <pt x="291" y="422" on="1"/>
        <pt x="264" y="366" on="1"/>
        <pt x="188" y="259" on="1"/>
        <pt x="107" y="318" on="1"/>
        <pt x="186" y="423" on="1"/>
        <pt x="230" y="466" on="1"/>
        <pt x="169" y="475" on="1"/>
        <pt x="44" y="514" on="1"/>
        <pt x="74" y="609" on="1"/>
        <pt x="199" y="567" on="1"/>
        <pt x="253" y="539" on="1"/>
        <pt x="243" y="599" on="1"/>
        <pt x="240" y="730" on="1"/>
        <pt x="341" y="730" on="1"/>
        <pt x="339" y="599" on="1"/>
        <pt x="329" y="539" on="1"/>
        <pt x="383" y="567" on="1"/>
        <pt x="508" y="609" on="1"/>
        <pt x="538" y="514" on="1"/>
        <pt x="413" y="475" on="1"/>
        <pt x="352" y="466" on="1"/>
        <pt x="397" y="423" on="1"/>
        <pt x="475" y="318" on="1"/>
      </contour>
    </TTGlyph>
    <TTGlyph name="uni002B" xMin="54" yMin="63" xMax="550" yMax="580">
      <contour>
        <pt x="550" y="270" on="1"/>
        <pt x="359" y="270" on="1"/>
        <pt x="359" y="63" on="1"/>
        <pt x="246" y="63" on="1"/>
        <pt x="246" y="270" on="1"/>
        <pt x="54" y="270" on="1"/>
        <pt x="54" y="374" on="1"/>
        <pt x="246" y="374" on="1"/>
        <pt x="246" y="580" on="1"/>
        <pt x="359" y="580" on="1"/>
        <pt x="359" y="374" on="1"/>
        <pt x="550" y="374" on="1"/>
      </contour>
    </TTGlyph>
    <TTGlyph name="uni002C" xMin="44" yMin="-154" xMax="235" yMax="153">
      <contour>
        <pt x="52" y="69" on="1"/>
        <pt x="52" y="108" on="0"/>
        <pt x="101" y="153" on="0"/>
        <pt x="139" y="153" on="1"/>
        <pt x="186" y="153" on="0"/>
        <pt x="235" y="86" on="0"/>
        <pt x="235" y="36" on="1"/>
        <pt x="235" y="-23" on="0"/>
        <pt x="172" y="-125" on="0"/>
        <pt x="107" y="-154" on="1"/>
        <pt x="44" y="-106" on="1"/>
        <pt x="137" y="-71" on="0"/>
        <pt x="158" y="-1" on="1"/>
        <pt x="154" y="2" on="1"/>
        <pt x="144" y="-8" on="0"/>
        <pt x="125" y="-8" on="1"/>
        <pt x="100" y="-8" on="0"/>
        <pt x="52" y="29" on="0"/>
      </contour>
    </TTGlyph>
    <TTGlyph name="uni002C.tf" xMin="57" yMin="-154" xMax="248" yMax="153">
      <component glyphName="uni002C" x="13" y="0" flags="0x4"/>
    </TTGlyph>
    <TTGlyph name="uni002D" xMin="84" yMin="206" xMax="437" yMax="324">
      <contour>
        <pt x="84" y="324" on="1"/>
        <pt x="437" y="324" on="1"/>
        <pt x="437" y="206" on="1"/>
        <pt x="84" y="206" on="1"/>
      </contour>
    </TTGlyph>
    <TTGlyph name="uni002D.case" xMin="84" yMin="274" xMax="437" yMax="392">
      <component glyphName="uni002D" x="0" y="68" flags="0x4"/>
    </TTGlyph>
    <TTGlyph name="uni002E" xMin="54" yMin="-9" xMax="228" yMax="153">
      <contour>
        <pt x="54" y="72" on="1"/>
        <pt x="54" y="153" on="0"/>
        <pt x="141" y="153" on="1"/>
        <pt x="228" y="153" on="0"/>
        <pt x="228" y="72" on="1"/>
        <pt x="228" y="-9" on="0"/>
        <pt x="141" y="-9" on="1"/>
        <pt x="54" y="-9" on="0"/>
      </contour>
    </TTGlyph>
    <TTGlyph name="uni002E.tf" xMin="64" yMin="-9" xMax="238" yMax="153">
      <component glyphName="uni002E" x="10" y="0" flags="0x4"/>
    </TTGlyph>
    <TTGlyph name="uni002F" xMin="20" yMin="-70" xMax="437" yMax="719">
      <contour>
        <pt x="309" y="719" on="1"/>
        <pt x="437" y="719" on="1"/>
        <pt x="147" y="-70" on="1"/>
        <pt x="20" y="-70" on="1"/>
      </contour>
    </TTGlyph>
    <TTGlyph name="uni0030" xMin="54" yMin="-10" xMax="582" yMax="670">
      <contour>
        <pt x="582" y="330" on="1"/>
        <pt x="582" y="-10" on="0"/>
        <pt x="318" y="-10" on="1"/>
        <pt x="54" y="-10" on="0"/>
        <pt x="54" y="330" on="1"/>
        <pt x="54" y="670" on="0"/>
        <pt x="318" y="670" on="1"/>
        <pt x="582" y="670" on="0"/>
      </contour>
      <contour>
        <pt x="192" y="330" on="1"/>
        <pt x="192" y="101" on="0"/>
        <pt x="318" y="101" on="1"/>
        <pt x="444" y="101" on="0"/>
        <pt x="444" y="330" on="1"/>
        <pt x="444" y="559" on="0"/>
        <pt x="318" y="559" on="1"/>
        <pt x="192" y="559" on="0"/>
      </contour>
    </TTGlyph>
    <TTGlyph name="uni0030.dnom" xMin="28" yMin="-10" xMax="379" yMax="398">
      <component glyphName="uni2070" x="0" y="-337" flags="0x4"/>
    </TTGlyph>
    <TTGlyph name="uni0030.numr" xMin="28" yMin="262" xMax="379" yMax="670">
      <component glyphName="uni2070" x="0" y="-65" flags="0x4"/>
    </TTGlyph>
    <TTGlyph name="uni0030.osf" xMin="48" yMin="-10" xMax="561" yMax="570">
      <contour>
        <pt x="48" y="280" on="1"/>
        <pt x="48" y="570" on="0"/>
        <pt x="305" y="570" on="1"/>
        <pt x="561" y="570" on="0"/>
        <pt x="561" y="280" on="1"/>
        <pt x="561" y="-10" on="0"/>
        <pt x="305" y="-10" on="1"/>
        <pt x="48" y="-10" on="0"/>
      </contour>
      <contour>
        <pt x="426" y="280" on="1"/>
        <pt x="426" y="469" on="0"/>
        <pt x="305" y="469" on="1"/>
        <pt x="183" y="469" on="0"/>
        <pt x="183" y="280" on="1"/>
        <pt x="183" y="91" on="0"/>
        <pt x="305" y="91" on="1"/>
        <pt x="426" y="91" on="0"/>
      </contour>
    </TTGlyph>
    <TTGlyph name="uni0030.osf.zero" xMin="48" yMin="-10" xMax="561" yMax="570">
      <contour>
        <pt x="448" y="476" on="1"/>
        <pt x="233" y="47" on="1"/>
        <pt x="167" y="76" on="1"/>
        <pt x="385" y="514" on="1"/>
      </contour>
      <contour>
        <pt x="48" y="280" on="1"/>
        <pt x="48" y="570" on="0"/>
        <pt x="305" y="570" on="1"/>
        <pt x="561" y="570" on="0"/>
        <pt x="561" y="280" on="1"/>
        <pt x="561" y="-10" on="0"/>
        <pt x="305" y="-10" on="1"/>
        <pt x="48" y="-10" on="0"/>
      </contour>
      <contour>
        <pt x="426" y="280" on="1"/>
        <pt x="426" y="469" on="0"/>
        <pt x="305" y="469" on="1"/>
        <pt x="183" y="469" on="0"/>
        <pt x="183" y="280" on="1"/>
        <pt x="183" y="91" on="0"/>
        <pt x="305" y="91" on="1"/>
        <pt x="426" y="91" on="0"/>
      </contour>
    </TTGlyph>
    <TTGlyph name="uni0030.sc" xMin="44" yMin="-9" xMax="541" yMax="569">
      <contour>
        <pt x="44" y="280" on="1"/>
        <pt x="44" y="569" on="0"/>
        <pt x="293" y="569" on="1"/>
        <pt x="541" y="569" on="0"/>
        <pt x="541" y="280" on="1"/>
        <pt x="541" y="-9" on="0"/>
        <pt x="293" y="-9" on="1"/>
        <pt x="44" y="-9" on="0"/>
      </contour>
      <contour>
        <pt x="406" y="280" on="1"/>
        <pt x="406" y="462" on="0"/>
        <pt x="293" y="462" on="1"/>
        <pt x="179" y="462" on="0"/>
        <pt x="179" y="280" on="1"/>
        <pt x="179" y="98" on="0"/>
        <pt x="293" y="98" on="1"/>
        <pt x="406" y="98" on="0"/>
      </contour>
    </TTGlyph>
    <TTGlyph name="uni0030.tf" xMin="44" yMin="-10" xMax="560" yMax="670">
      <contour>
        <pt x="560" y="330" on="1"/>
        <pt x="560" y="-10" on="0"/>
        <pt x="302" y="-10" on="1"/>
        <pt x="44" y="-10" on="0"/>
        <pt x="44" y="330" on="1"/>
        <pt x="44" y="670" on="0"/>
        <pt x="302" y="670" on="1"/>
        <pt x="560" y="670" on="0"/>
      </contour>
      <contour>
        <pt x="180" y="330" on="1"/>
        <pt x="180" y="101" on="0"/>
        <pt x="302" y="101" on="1"/>
        <pt x="424" y="101" on="0"/>
        <pt x="424" y="330" on="1"/>
        <pt x="424" y="559" on="0"/>
        <pt x="302" y="559" on="1"/>
        <pt x="180" y="559" on="0"/>
      </contour>
    </TTGlyph>
    <TTGlyph name="uni0030.tf.zero" xMin="44" yMin="-10" xMax="560" yMax="670">
      <contour>
        <pt x="440" y="577" on="1"/>
        <pt x="228" y="46" on="1"/>
        <pt x="165" y="75" on="1"/>
        <pt x="381" y="614" on="1"/>
      </contour>
      <contour>
        <pt x="560" y="330" on="1"/>
        <pt x="560" y="-10" on="0"/>
        <pt x="302" y="-10" on="1"/>
        <pt x="44" y="-10" on="0"/>
        <pt x="44" y="330" on="1"/>
        <pt x="44" y="670" on="0"/>
        <pt x="302" y="670" on="1"/>
        <pt x="560" y="670" on="0"/>
      </contour>
      <contour>
        <pt x="180" y="330" on="1"/>
        <pt x="180" y="101" on="0"/>
        <pt x="302" y="101" on="1"/>
        <pt x="424" y="101" on="0"/>
        <pt x="424" y="330" on="1"/>
        <pt x="424" y="559" on="0"/>
        <pt x="302" y="559" on="1"/>
        <pt x="180" y="559" on="0"/>
      </contour>
    </TTGlyph>
    <TTGlyph name="uni0030.tosf" xMin="49" yMin="-10" xMax="555" yMax="570">
      <contour>
        <pt x="49" y="280" on="1"/>
        <pt x="49" y="570" on="0"/>
        <pt x="302" y="570" on="1"/>
        <pt x="555" y="570" on="0"/>
        <pt x="555" y="280" on="1"/>
        <pt x="555" y="-10" on="0"/>
        <pt x="302" y="-10" on="1"/>
        <pt x="49" y="-10" on="0"/>
      </contour>
      <contour>
        <pt x="419" y="280" on="1"/>
        <pt x="419" y="469" on="0"/>
        <pt x="302" y="469" on="1"/>
        <pt x="185" y="469" on="0"/>
        <pt x="185" y="280" on="1"/>
        <pt x="185" y="91" on="0"/>
        <pt x="302" y="91" on="1"/>
        <pt x="419" y="91" on="0"/>
      </contour>
    </TTGlyph>
    <TTGlyph name="uni0030.tosf.zero" xMin="49" yMin="-10" xMax="555" yMax="570">
      <contour>
        <pt x="451" y="476" on="1"/>
        <pt x="236" y="47" on="1"/>
        <pt x="170" y="76" on="1"/>
        <pt x="389" y="514" on="1"/>
      </contour>
      <contour>
        <pt x="49" y="280" on="1"/>
        <pt x="49" y="570" on="0"/>
        <pt x="302" y="570" on="1"/>
        <pt x="555" y="570" on="0"/>
        <pt x="555" y="280" on="1"/>
        <pt x="555" y="-10" on="0"/>
        <pt x="302" y="-10" on="1"/>
        <pt x="49" y="-10" on="0"/>
      </contour>
      <contour>
        <pt x="419" y="280" on="1"/>
        <pt x="419" y="469" on="0"/>
        <pt x="302" y="469" on="1"/>
        <pt x="185" y="469" on="0"/>
        <pt x="185" y="280" on="1"/>
        <pt x="185" y="91" on="0"/>
        <pt x="302" y="91" on="1"/>
        <pt x="419" y="91" on="0"/>
      </contour>
    </TTGlyph>
    <TTGlyph name="uni0030.zero" xMin="54" yMin="-10" xMax="582" yMax="670">
      <contour>
        <pt x="463" y="578" on="1"/>
        <pt x="242" y="47" on="1"/>
        <pt x="176" y="77" on="1"/>
        <pt x="401" y="616" on="1"/>
      </contour>
      <contour>
        <pt x="582" y="330" on="1"/>
        <pt x="582" y="-10" on="0"/>
        <pt x="318" y="-10" on="1"/>
        <pt x="54" y="-10" on="0"/>
        <pt x="54" y="330" on="1"/>
        <pt x="54" y="670" on="0"/>
        <pt x="318" y="670" on="1"/>
        <pt x="582" y="670" on="0"/>
      </contour>
      <contour>
        <pt x="192" y="330" on="1"/>
        <pt x="192" y="101" on="0"/>
        <pt x="318" y="101" on="1"/>
        <pt x="444" y="101" on="0"/>
        <pt x="444" y="330" on="1"/>
        <pt x="444" y="559" on="0"/>
        <pt x="318" y="559" on="1"/>
        <pt x="192" y="559" on="0"/>
      </contour>
    </TTGlyph>
    <TTGlyph name="uni0031" xMin="31" yMin="0" xMax="343" yMax="660">
      <contour>
        <pt x="343" y="0" on="1"/>
        <pt x="209" y="0" on="1"/>
        <pt x="209" y="492" on="1"/>
        <pt x="209" y="503" on="0"/>
        <pt x="210" y="516" on="1"/>
        <pt x="176" y="485" on="0"/>
        <pt x="93" y="438" on="0"/>
        <pt x="49" y="430" on="1"/>
        <pt x="31" y="546" on="1"/>
        <pt x="76" y="551" on="0"/>
        <pt x="206" y="623" on="0"/>
        <pt x="231" y="660" on="1"/>
        <pt x="343" y="660" on="1"/>
      </contour>
    </TTGlyph>
    <TTGlyph name="uni0031.dnom" xMin="16" yMin="-4" xMax="232" yMax="393">
      <component glyphName="uni00B9" x="0" y="-337" flags="0x4"/>
    </TTGlyph>
    <TTGlyph name="uni0031.numr" xMin="16" yMin="268" xMax="232" yMax="665">
      <component glyphName="uni00B9" x="0" y="-65" flags="0x4"/>
    </TTGlyph>
    <TTGlyph name="uni0031.osf" xMin="24" yMin="0" xMax="330" yMax="560">
      <contour>
        <pt x="330" y="0" on="1"/>
        <pt x="196" y="0" on="1"/>
        <pt x="196" y="392" on="1"/>
        <pt x="196" y="405" on="0"/>
        <pt x="197" y="420" on="1"/>
        <pt x="164" y="389" on="0"/>
        <pt x="83" y="344" on="0"/>
        <pt x="40" y="337" on="1"/>
        <pt x="24" y="450" on="1"/>
        <pt x="74" y="459" on="0"/>
        <pt x="193" y="523" on="0"/>
        <pt x="218" y="560" on="1"/>
        <pt x="330" y="560" on="1"/>
      </contour>
    </TTGlyph>
    <TTGlyph name="uni0031.sc" xMin="18" yMin="0" xMax="319" yMax="560">
      <contour>
        <pt x="319" y="0" on="1"/>
        <pt x="182" y="0" on="1"/>
        <pt x="182" y="332" on="1"/>
        <pt x="182" y="371" on="0"/>
        <pt x="186" y="423" on="1"/>
        <pt x="118" y="368" on="0"/>
        <pt x="35" y="354" on="1"/>
        <pt x="18" y="464" on="1"/>
        <pt x="62" y="469" on="0"/>
        <pt x="176" y="526" on="0"/>
        <pt x="204" y="560" on="1"/>
        <pt x="319" y="560" on="1"/>
      </contour>
    </TTGlyph>
    <TTGlyph name="uni0031.tf" xMin="81" yMin="0" xMax="569" yMax="660">
      <contour>
        <pt x="569" y="0" on="1"/>
        <pt x="89" y="0" on="1"/>
        <pt x="89" y="109" on="1"/>
        <pt x="275" y="109" on="1"/>
        <pt x="275" y="490" on="1"/>
        <pt x="275" y="507" on="0"/>
        <pt x="276" y="526" on="1"/>
        <pt x="239" y="492" on="0"/>
        <pt x="146" y="443" on="0"/>
        <pt x="99" y="435" on="1"/>
        <pt x="81" y="546" on="1"/>
        <pt x="112" y="550" on="0"/>
        <pt x="197" y="586" on="0"/>
        <pt x="275" y="636" on="0"/>
        <pt x="292" y="660" on="1"/>
        <pt x="404" y="660" on="1"/>
        <pt x="404" y="109" on="1"/>
        <pt x="569" y="109" on="1"/>
      </contour>
    </TTGlyph>
    <TTGlyph name="uni0031.tosf" xMin="92" yMin="0" xMax="573" yMax="560">
      <contour>
        <pt x="573" y="0" on="1"/>
        <pt x="92" y="0" on="1"/>
        <pt x="92" y="105" on="1"/>
        <pt x="281" y="105" on="1"/>
        <pt x="281" y="380" on="1"/>
        <pt x="281" y="402" on="0"/>
        <pt x="283" y="429" on="1"/>
        <pt x="247" y="396" on="0"/>
        <pt x="157" y="349" on="0"/>
        <pt x="110" y="342" on="1"/>
        <pt x="92" y="446" on="1"/>
        <pt x="123" y="450" on="0"/>
        <pt x="209" y="486" on="0"/>
        <pt x="286" y="536" on="0"/>
        <pt x="303" y="560" on="1"/>
        <pt x="408" y="560" on="1"/>
        <pt x="408" y="105" on="1"/>
        <pt x="573" y="105" on="1"/>
      </contour>
    </TTGlyph>
    <TTGlyph name="uni0032" xMin="44" yMin="0" xMax="541" yMax="670">
      <contour>
        <pt x="541" y="0" on="1"/>
        <pt x="65" y="0" on="1"/>
        <pt x="65" y="94" on="1"/>
        <pt x="245" y="214" on="0"/>
        <pt x="392" y="376" on="0"/>
        <pt x="392" y="452" on="1"/>
        <pt x="392" y="498" on="0"/>
        <pt x="336" y="557" on="0"/>
        <pt x="285" y="557" on="1"/>
        <pt x="169" y="557" on="0"/>
        <pt x="163" y="411" on="1"/>
        <pt x="44" y="456" on="1"/>
        <pt x="51" y="557" on="0"/>
        <pt x="186" y="670" on="0"/>
        <pt x="293" y="670" on="1"/>
        <pt x="413" y="670" on="0"/>
        <pt x="531" y="543" on="0"/>
        <pt x="531" y="460" on="1"/>
        <pt x="531" y="365" on="0"/>
        <pt x="388" y="200" on="0"/>
        <pt x="238" y="108" on="1"/>
        <pt x="238" y="107" on="1"/>
        <pt x="260" y="109" on="0"/>
        <pt x="334" y="111" on="0"/>
        <pt x="359" y="111" on="1"/>
        <pt x="541" y="111" on="1"/>
      </contour>
    </TTGlyph>
    <TTGlyph name="uni0032.dnom" xMin="20" yMin="-4" xMax="357" yMax="398">
      <component glyphName="uni00B2" x="0" y="-337" flags="0x4"/>
    </TTGlyph>
    <TTGlyph name="uni0032.numr" xMin="20" yMin="268" xMax="357" yMax="670">
      <component glyphName="uni00B2" x="0" y="-65" flags="0x4"/>
    </TTGlyph>
    <TTGlyph name="uni0032.osf" xMin="38" yMin="0" xMax="524" yMax="570">
      <contour>
        <pt x="39" y="368" on="1"/>
        <pt x="38" y="451" on="0"/>
        <pt x="150" y="570" on="0"/>
        <pt x="273" y="570" on="1"/>
        <pt x="391" y="570" on="0"/>
        <pt x="507" y="465" on="0"/>
        <pt x="507" y="379" on="1"/>
        <pt x="507" y="279" on="0"/>
        <pt x="366" y="163" on="0"/>
        <pt x="278" y="119" on="1"/>
        <pt x="253" y="107" on="0"/>
        <pt x="221" y="97" on="1"/>
        <pt x="221" y="95" on="1"/>
        <pt x="245" y="97" on="0"/>
        <pt x="295" y="100" on="0"/>
        <pt x="319" y="100" on="1"/>
        <pt x="524" y="100" on="1"/>
        <pt x="524" y="0" on="1"/>
        <pt x="47" y="0" on="1"/>
        <pt x="47" y="93" on="1"/>
        <pt x="214" y="173" on="0"/>
        <pt x="375" y="286" on="0"/>
        <pt x="375" y="374" on="1"/>
        <pt x="375" y="427" on="0"/>
        <pt x="313" y="469" on="0"/>
        <pt x="272" y="469" on="1"/>
        <pt x="219" y="469" on="0"/>
        <pt x="155" y="396" on="0"/>
        <pt x="161" y="330" on="1"/>
      </contour>
    </TTGlyph>
    <TTGlyph name="uni0032.sc" xMin="42" yMin="0" xMax="498" yMax="568">
      <contour>
        <pt x="43" y="374" on="1"/>
        <pt x="42" y="451" on="0"/>
        <pt x="150" y="568" on="0"/>
        <pt x="269" y="568" on="1"/>
        <pt x="384" y="568" on="0"/>
        <pt x="489" y="462" on="0"/>
        <pt x="489" y="396" on="1"/>
        <pt x="489" y="291" on="0"/>
        <pt x="332" y="154" on="0"/>
        <pt x="236" y="101" on="1"/>
        <pt x="236" y="99" on="1"/>
        <pt x="283" y="104" on="0"/>
        <pt x="333" y="104" on="1"/>
        <pt x="498" y="104" on="1"/>
        <pt x="498" y="0" on="1"/>
        <pt x="54" y="0" on="1"/>
        <pt x="54" y="90" on="1"/>
        <pt x="218" y="184" on="0"/>
        <pt x="356" y="314" on="0"/>
        <pt x="356" y="375" on="1"/>
        <pt x="356" y="413" on="0"/>
        <pt x="309" y="461" on="0"/>
        <pt x="262" y="461" on="1"/>
        <pt x="210" y="461" on="0"/>
        <pt x="156" y="390" on="0"/>
        <pt x="160" y="335" on="1"/>
      </contour>
    </TTGlyph>
    <TTGlyph name="uni0032.tf" xMin="46" yMin="0" xMax="543" yMax="670">
      <component glyphName="uni0032" x="2" y="0" flags="0x4"/>
    </TTGlyph>
    <TTGlyph name="uni0032.tosf" xMin="52" yMin="0" xMax="538" yMax="570">
      <component glyphName="uni0032.osf" x="14" y="0" flags="0x4"/>
    </TTGlyph>
    <TTGlyph name="uni0033" xMin="39" yMin="-10" xMax="534" yMax="670">
      <contour>
        <pt x="58" y="510" on="1"/>
        <pt x="78" y="592" on="0"/>
        <pt x="208" y="670" on="0"/>
        <pt x="296" y="670" on="1"/>
        <pt x="405" y="670" on="0"/>
        <pt x="521" y="568" on="0"/>
        <pt x="521" y="490" on="1"/>
        <pt x="521" y="411" on="0"/>
        <pt x="433" y="334" on="0"/>
        <pt x="397" y="334" on="1"/>
        <pt x="397" y="331" on="1"/>
        <pt x="443" y="331" on="0"/>
        <pt x="534" y="258" on="0"/>
        <pt x="534" y="179" on="1"/>
        <pt x="534" y="95" on="0"/>
        <pt x="397" y="-10" on="0"/>
        <pt x="287" y="-10" on="1"/>
        <pt x="94" y="-10" on="0"/>
        <pt x="39" y="152" on="1"/>
        <pt x="164" y="208" on="1"/>
        <pt x="185" y="101" on="0"/>
        <pt x="288" y="101" on="1"/>
        <pt x="341" y="101" on="0"/>
        <pt x="400" y="154" on="0"/>
        <pt x="399" y="197" on="1"/>
        <pt x="398" y="282" on="0"/>
        <pt x="281" y="282" on="1"/>
        <pt x="248" y="282" on="1"/>
        <pt x="248" y="378" on="1"/>
        <pt x="276" y="378" on="1"/>
        <pt x="384" y="378" on="0"/>
        <pt x="384" y="466" on="1"/>
        <pt x="386" y="559" on="0"/>
        <pt x="290" y="559" on="1"/>
        <pt x="195" y="559" on="0"/>
        <pt x="181" y="465" on="1"/>
      </contour>
    </TTGlyph>
    <TTGlyph name="uni0033.dnom" xMin="15" yMin="-10" xMax="345" yMax="398">
      <component glyphName="uni00B3" x="0" y="-337" flags="0x4"/>
    </TTGlyph>
    <TTGlyph name="uni0033.numr" xMin="15" yMin="262" xMax="345" yMax="670">
      <component glyphName="uni00B3" x="0" y="-65" flags="0x4"/>
    </TTGlyph>
    <TTGlyph name="uni0033.osf" xMin="11" yMin="-110" xMax="501" yMax="570">
      <contour>
        <pt x="30" y="410" on="1"/>
        <pt x="50" y="492" on="0"/>
        <pt x="178" y="570" on="0"/>
        <pt x="266" y="570" on="1"/>
        <pt x="374" y="570" on="0"/>
        <pt x="487" y="466" on="0"/>
        <pt x="487" y="388" on="1"/>
        <pt x="487" y="311" on="0"/>
        <pt x="412" y="240" on="0"/>
        <pt x="369" y="234" on="1"/>
        <pt x="369" y="231" on="1"/>
        <pt x="421" y="229" on="0"/>
        <pt x="501" y="155" on="0"/>
        <pt x="501" y="84" on="1"/>
        <pt x="501" y="-5" on="0"/>
        <pt x="367" y="-110" on="0"/>
        <pt x="260" y="-110" on="1"/>
        <pt x="68" y="-110" on="0"/>
        <pt x="11" y="52" on="1"/>
        <pt x="130" y="107" on="1"/>
        <pt x="152" y="-9" on="0"/>
        <pt x="259" y="-9" on="1"/>
        <pt x="312" y="-9" on="0"/>
        <pt x="372" y="48" on="0"/>
        <pt x="372" y="94" on="1"/>
        <pt x="372" y="185" on="0"/>
        <pt x="253" y="185" on="1"/>
        <pt x="220" y="185" on="1"/>
        <pt x="220" y="273" on="1"/>
        <pt x="248" y="273" on="1"/>
        <pt x="358" y="273" on="0"/>
        <pt x="358" y="371" on="1"/>
        <pt x="358" y="469" on="0"/>
        <pt x="261" y="469" on="1"/>
        <pt x="162" y="469" on="0"/>
        <pt x="147" y="366" on="1"/>
      </contour>
    </TTGlyph>
    <TTGlyph name="uni0033.sc" xMin="34" yMin="-8" xMax="491" yMax="568">
      <contour>
        <pt x="52" y="430" on="1"/>
        <pt x="66" y="498" on="0"/>
        <pt x="190" y="568" on="0"/>
        <pt x="272" y="568" on="1"/>
        <pt x="373" y="568" on="0"/>
        <pt x="479" y="478" on="0"/>
        <pt x="479" y="415" on="1"/>
        <pt x="479" y="345" on="0"/>
        <pt x="403" y="284" on="0"/>
        <pt x="367" y="283" on="1"/>
        <pt x="367" y="281" on="1"/>
        <pt x="410" y="282" on="0"/>
        <pt x="491" y="227" on="0"/>
        <pt x="491" y="162" on="1"/>
        <pt x="491" y="84" on="0"/>
        <pt x="366" y="-8" on="0"/>
        <pt x="268" y="-8" on="1"/>
        <pt x="177" y="-8" on="0"/>
        <pt x="60" y="58" on="0"/>
        <pt x="34" y="131" on="1"/>
        <pt x="158" y="181" on="1"/>
        <pt x="166" y="138" on="0"/>
        <pt x="213" y="95" on="0"/>
        <pt x="265" y="95" on="1"/>
        <pt x="360" y="95" on="0"/>
        <pt x="360" y="171" on="1"/>
        <pt x="360" y="238" on="0"/>
        <pt x="264" y="238" on="1"/>
        <pt x="226" y="238" on="1"/>
        <pt x="226" y="322" on="1"/>
        <pt x="256" y="322" on="1"/>
        <pt x="346" y="322" on="0"/>
        <pt x="348" y="394" on="1"/>
        <pt x="348" y="465" on="0"/>
        <pt x="265" y="465" on="1"/>
        <pt x="181" y="465" on="0"/>
        <pt x="172" y="391" on="1"/>
      </contour>
    </TTGlyph>
    <TTGlyph name="uni0033.tf" xMin="51" yMin="-10" xMax="544" yMax="670">
      <contour>
        <pt x="69" y="510" on="1"/>
        <pt x="89" y="592" on="0"/>
        <pt x="220" y="670" on="0"/>
        <pt x="308" y="670" on="1"/>
        <pt x="416" y="670" on="0"/>
        <pt x="530" y="568" on="0"/>
        <pt x="530" y="490" on="1"/>
        <pt x="530" y="411" on="0"/>
        <pt x="443" y="334" on="0"/>
        <pt x="406" y="334" on="1"/>
        <pt x="406" y="331" on="1"/>
        <pt x="453" y="331" on="0"/>
        <pt x="544" y="258" on="0"/>
        <pt x="544" y="179" on="1"/>
        <pt x="544" y="95" on="0"/>
        <pt x="407" y="-10" on="0"/>
        <pt x="299" y="-10" on="1"/>
        <pt x="106" y="-10" on="0"/>
        <pt x="51" y="152" on="1"/>
        <pt x="177" y="210" on="1"/>
        <pt x="194" y="101" on="0"/>
        <pt x="299" y="101" on="1"/>
        <pt x="351" y="101" on="0"/>
        <pt x="410" y="155" on="0"/>
        <pt x="409" y="198" on="1"/>
        <pt x="408" y="245" on="0"/>
        <pt x="350" y="282" on="0"/>
        <pt x="292" y="282" on="1"/>
        <pt x="259" y="282" on="1"/>
        <pt x="259" y="378" on="1"/>
        <pt x="288" y="378" on="1"/>
        <pt x="394" y="378" on="0"/>
        <pt x="394" y="466" on="1"/>
        <pt x="396" y="559" on="0"/>
        <pt x="301" y="559" on="1"/>
        <pt x="204" y="559" on="0"/>
        <pt x="191" y="465" on="1"/>
      </contour>
    </TTGlyph>
    <TTGlyph name="uni0033.tosf" xMin="49" yMin="-110" xMax="539" yMax="570">
      <component glyphName="uni0033.osf" x="38" y="0" flags="0x4"/>
    </TTGlyph>
    <TTGlyph name="uni0034" xMin="37" yMin="0" xMax="598" yMax="660">
      <contour>
        <pt x="491" y="255" on="1"/>
        <pt x="598" y="255" on="1"/>
        <pt x="598" y="155" on="1"/>
        <pt x="491" y="155" on="1"/>
        <pt x="491" y="0" on="1"/>
        <pt x="366" y="0" on="1"/>
        <pt x="366" y="155" on="1"/>
        <pt x="37" y="155" on="1"/>
        <pt x="37" y="228" on="1"/>
        <pt x="326" y="660" on="1"/>
        <pt x="491" y="660" on="1"/>
      </contour>
      <contour>
        <pt x="367" y="565" on="1"/>
        <pt x="356" y="539" on="0"/>
        <pt x="323" y="480" on="0"/>
        <pt x="307" y="456" on="1"/>
        <pt x="170" y="255" on="1"/>
        <pt x="366" y="255" on="1"/>
        <pt x="366" y="457" on="1"/>
        <pt x="369" y="565" on="1"/>
      </contour>
    </TTGlyph>
    <TTGlyph name="uni0034.dnom" xMin="10" yMin="-4" xMax="364" yMax="393">
      <component glyphName="uni2074" x="0" y="-337" flags="0x4"/>
    </TTGlyph>
    <TTGlyph name="uni0034.numr" xMin="10" yMin="268" xMax="364" yMax="665">
      <component glyphName="uni2074" x="0" y="-65" flags="0x4"/>
    </TTGlyph>
    <TTGlyph name="uni0034.osf" xMin="34" yMin="-100" xMax="595" yMax="560">
      <component glyphName="uni0034" x="-3" y="-100" flags="0x4"/>
    </TTGlyph>
    <TTGlyph name="uni0034.sc" xMin="39" yMin="0" xMax="557" yMax="560">
      <contour>
        <pt x="461" y="0" on="1"/>
        <pt x="335" y="0" on="1"/>
        <pt x="335" y="124" on="1"/>
        <pt x="39" y="124" on="1"/>
        <pt x="39" y="197" on="1"/>
        <pt x="295" y="560" on="1"/>
        <pt x="461" y="560" on="1"/>
        <pt x="461" y="222" on="1"/>
        <pt x="557" y="222" on="1"/>
        <pt x="557" y="124" on="1"/>
        <pt x="461" y="124" on="1"/>
      </contour>
      <contour>
        <pt x="289" y="394" on="1"/>
        <pt x="167" y="222" on="1"/>
        <pt x="336" y="222" on="1"/>
        <pt x="338" y="473" on="1"/>
        <pt x="335" y="473" on="1"/>
        <pt x="327" y="454" on="0"/>
        <pt x="300" y="410" on="0"/>
      </contour>
    </TTGlyph>
    <TTGlyph name="uni0034.tf" xMin="37" yMin="0" xMax="575" yMax="660">
      <contour>
        <pt x="464" y="0" on="1"/>
        <pt x="339" y="0" on="1"/>
        <pt x="339" y="155" on="1"/>
        <pt x="37" y="155" on="1"/>
        <pt x="37" y="228" on="1"/>
        <pt x="300" y="660" on="1"/>
        <pt x="464" y="660" on="1"/>
        <pt x="464" y="255" on="1"/>
        <pt x="575" y="255" on="1"/>
        <pt x="575" y="155" on="1"/>
        <pt x="464" y="155" on="1"/>
      </contour>
      <contour>
        <pt x="295" y="470" on="1"/>
        <pt x="159" y="255" on="1"/>
        <pt x="342" y="255" on="1"/>
        <pt x="342" y="412" on="1"/>
        <pt x="342" y="443" on="0"/>
        <pt x="345" y="524" on="0"/>
        <pt x="346" y="561" on="1"/>
        <pt x="344" y="561" on="1"/>
        <pt x="335" y="539" on="0"/>
        <pt x="307" y="489" on="0"/>
      </contour>
    </TTGlyph>
    <TTGlyph name="uni0034.tosf" xMin="37" yMin="-100" xMax="577" yMax="560">
      <contour>
        <pt x="472" y="-100" on="1"/>
        <pt x="347" y="-100" on="1"/>
        <pt x="347" y="55" on="1"/>
        <pt x="37" y="55" on="1"/>
        <pt x="37" y="128" on="1"/>
        <pt x="308" y="560" on="1"/>
        <pt x="472" y="560" on="1"/>
        <pt x="472" y="155" on="1"/>
        <pt x="577" y="155" on="1"/>
        <pt x="577" y="55" on="1"/>
        <pt x="472" y="55" on="1"/>
      </contour>
      <contour>
        <pt x="302" y="373" on="1"/>
        <pt x="159" y="155" on="1"/>
        <pt x="350" y="155" on="1"/>
        <pt x="350" y="312" on="1"/>
        <pt x="350" y="343" on="0"/>
        <pt x="353" y="424" on="0"/>
        <pt x="354" y="462" on="1"/>
        <pt x="352" y="462" on="1"/>
        <pt x="343" y="440" on="0"/>
        <pt x="315" y="393" on="0"/>
      </contour>
    </TTGlyph>
    <TTGlyph name="uni0035" xMin="42" yMin="-10" xMax="535" yMax="660">
      <contour>
        <pt x="187" y="375" on="1"/>
        <pt x="234" y="425" on="0"/>
        <pt x="328" y="425" on="1"/>
        <pt x="425" y="425" on="0"/>
        <pt x="535" y="311" on="0"/>
        <pt x="535" y="220" on="1"/>
        <pt x="535" y="105" on="0"/>
        <pt x="396" y="-10" on="0"/>
        <pt x="290" y="-10" on="1"/>
        <pt x="116" y="-10" on="0"/>
        <pt x="42" y="129" on="1"/>
        <pt x="166" y="198" on="1"/>
        <pt x="178" y="153" on="0"/>
        <pt x="231" y="100" on="0"/>
        <pt x="289" y="100" on="1"/>
        <pt x="344" y="100" on="0"/>
        <pt x="407" y="158" on="0"/>
        <pt x="407" y="211" on="1"/>
        <pt x="405" y="322" on="0"/>
        <pt x="292" y="322" on="1"/>
        <pt x="209" y="322" on="0"/>
        <pt x="171" y="274" on="1"/>
        <pt x="63" y="286" on="1"/>
        <pt x="104" y="660" on="1"/>
        <pt x="501" y="660" on="1"/>
        <pt x="501" y="549" on="1"/>
        <pt x="208" y="549" on="1"/>
        <pt x="189" y="394" on="1"/>
        <pt x="188" y="388" on="0"/>
        <pt x="186" y="376" on="0"/>
        <pt x="186" y="375" on="1"/>
      </contour>
    </TTGlyph>
    <TTGlyph name="uni0035.dnom" xMin="18" yMin="-9" xMax="347" yMax="393">
      <component glyphName="uni2075" x="0" y="-337" flags="0x4"/>
    </TTGlyph>
    <TTGlyph name="uni0035.numr" xMin="18" yMin="263" xMax="347" yMax="665">
      <component glyphName="uni2075" x="0" y="-65" flags="0x4"/>
    </TTGlyph>
    <TTGlyph name="uni0035.osf" xMin="38" yMin="-110" xMax="524" yMax="560">
      <contour>
        <pt x="180" y="273" on="1"/>
        <pt x="227" y="325" on="0"/>
        <pt x="322" y="325" on="1"/>
        <pt x="419" y="325" on="0"/>
        <pt x="524" y="210" on="0"/>
        <pt x="524" y="118" on="1"/>
        <pt x="524" y="6" on="0"/>
        <pt x="390" y="-110" on="0"/>
        <pt x="286" y="-110" on="1"/>
        <pt x="196" y="-110" on="0"/>
        <pt x="70" y="-41" on="0"/>
        <pt x="38" y="37" on="1"/>
        <pt x="156" y="98" on="1"/>
        <pt x="167" y="51" on="0"/>
        <pt x="226" y="-9" on="0"/>
        <pt x="281" y="-9" on="1"/>
        <pt x="398" y="-9" on="0"/>
        <pt x="398" y="109" on="1"/>
        <pt x="398" y="226" on="0"/>
        <pt x="284" y="226" on="1"/>
        <pt x="242" y="226" on="0"/>
        <pt x="184" y="197" on="0"/>
        <pt x="164" y="172" on="1"/>
        <pt x="58" y="186" on="1"/>
        <pt x="100" y="560" on="1"/>
        <pt x="497" y="560" on="1"/>
        <pt x="497" y="455" on="1"/>
        <pt x="202" y="455" on="1"/>
        <pt x="182" y="290" on="1"/>
        <pt x="181" y="286" on="0"/>
        <pt x="180" y="275" on="0"/>
        <pt x="179" y="273" on="1"/>
      </contour>
    </TTGlyph>
    <TTGlyph name="uni0035.sc" xMin="39" yMin="-8" xMax="487" yMax="560">
      <contour>
        <pt x="174" y="312" on="1"/>
        <pt x="194" y="332" on="0"/>
        <pt x="253" y="359" on="0"/>
        <pt x="309" y="359" on="1"/>
        <pt x="389" y="359" on="0"/>
        <pt x="487" y="263" on="0"/>
        <pt x="487" y="186" on="1"/>
        <pt x="487" y="95" on="0"/>
        <pt x="370" y="-8" on="0"/>
        <pt x="268" y="-8" on="1"/>
        <pt x="100" y="-8" on="0"/>
        <pt x="39" y="109" on="1"/>
        <pt x="153" y="168" on="1"/>
        <pt x="166" y="134" on="0"/>
        <pt x="214" y="95" on="0"/>
        <pt x="263" y="95" on="1"/>
        <pt x="310" y="95" on="0"/>
        <pt x="363" y="143" on="0"/>
        <pt x="362" y="183" on="1"/>
        <pt x="360" y="269" on="0"/>
        <pt x="263" y="269" on="1"/>
        <pt x="192" y="269" on="0"/>
        <pt x="161" y="228" on="1"/>
        <pt x="56" y="239" on="1"/>
        <pt x="92" y="560" on="1"/>
        <pt x="462" y="560" on="1"/>
        <pt x="462" y="459" on="1"/>
        <pt x="194" y="459" on="1"/>
        <pt x="180" y="343" on="1"/>
        <pt x="179" y="339" on="0"/>
        <pt x="175" y="316" on="0"/>
        <pt x="173" y="312" on="1"/>
      </contour>
    </TTGlyph>
    <TTGlyph name="uni0035.tf" xMin="54" yMin="-10" xMax="547" yMax="660">
      <component glyphName="uni0035" x="12" y="0" flags="0x4"/>
    </TTGlyph>
    <TTGlyph name="uni0035.tosf" xMin="63" yMin="-110" xMax="549" yMax="560">
      <component glyphName="uni0035.osf" x="25" y="0" flags="0x4"/>
    </TTGlyph>
    <TTGlyph name="uni0036" xMin="58" yMin="-10" xMax="569" yMax="670">
      <contour>
        <pt x="58" y="330" on="1"/>
        <pt x="58" y="502" on="0"/>
        <pt x="218" y="670" on="0"/>
        <pt x="336" y="670" on="1"/>
        <pt x="416" y="670" on="0"/>
        <pt x="530" y="604" on="0"/>
        <pt x="558" y="526" on="1"/>
        <pt x="442" y="472" on="1"/>
        <pt x="430" y="511" on="0"/>
        <pt x="375" y="556" on="0"/>
        <pt x="327" y="556" on="1"/>
        <pt x="263" y="556" on="0"/>
        <pt x="182" y="432" on="0"/>
        <pt x="182" y="331" on="1"/>
        <pt x="182" y="314" on="1"/>
        <pt x="185" y="314" on="1"/>
        <pt x="202" y="365" on="0"/>
        <pt x="296" y="413" on="0"/>
        <pt x="353" y="413" on="1"/>
        <pt x="448" y="413" on="0"/>
        <pt x="569" y="300" on="0"/>
        <pt x="569" y="205" on="1"/>
        <pt x="569" y="107" on="0"/>
        <pt x="440" y="-10" on="0"/>
        <pt x="325" y="-10" on="1"/>
        <pt x="196" y="-10" on="0"/>
        <pt x="58" y="170" on="0"/>
      </contour>
      <contour>
        <pt x="439" y="207" on="1"/>
        <pt x="439" y="312" on="0"/>
        <pt x="327" y="312" on="1"/>
        <pt x="276" y="312" on="0"/>
        <pt x="214" y="254" on="0"/>
        <pt x="214" y="207" on="1"/>
        <pt x="214" y="158" on="0"/>
        <pt x="276" y="100" on="0"/>
        <pt x="327" y="100" on="1"/>
        <pt x="439" y="100" on="0"/>
      </contour>
    </TTGlyph>
    <TTGlyph name="uni0036.dnom" xMin="29" yMin="-10" xMax="367" yMax="398">
      <component glyphName="uni2076" x="0" y="-337" flags="0x4"/>
    </TTGlyph>
    <TTGlyph name="uni0036.numr" xMin="29" yMin="262" xMax="367" yMax="670">
      <component glyphName="uni2076" x="0" y="-65" flags="0x4"/>
    </TTGlyph>
    <TTGlyph name="uni0036.osf" xMin="48" yMin="-10" xMax="556" yMax="670">
      <contour>
        <pt x="48" y="330" on="1"/>
        <pt x="48" y="500" on="0"/>
        <pt x="204" y="670" on="0"/>
        <pt x="324" y="670" on="1"/>
        <pt x="405" y="670" on="0"/>
        <pt x="519" y="602" on="0"/>
        <pt x="545" y="521" on="1"/>
        <pt x="431" y="475" on="1"/>
        <pt x="420" y="516" on="0"/>
        <pt x="371" y="565" on="0"/>
        <pt x="323" y="565" on="1"/>
        <pt x="253" y="565" on="0"/>
        <pt x="172" y="439" on="0"/>
        <pt x="172" y="328" on="1"/>
        <pt x="172" y="311" on="1"/>
        <pt x="175" y="311" on="1"/>
        <pt x="192" y="364" on="0"/>
        <pt x="292" y="413" on="0"/>
        <pt x="343" y="413" on="1"/>
        <pt x="437" y="413" on="0"/>
        <pt x="556" y="303" on="0"/>
        <pt x="556" y="205" on="1"/>
        <pt x="556" y="105" on="0"/>
        <pt x="427" y="-10" on="0"/>
        <pt x="316" y="-10" on="1"/>
        <pt x="188" y="-10" on="0"/>
        <pt x="48" y="172" on="0"/>
      </contour>
      <contour>
        <pt x="430" y="205" on="1"/>
        <pt x="430" y="317" on="0"/>
        <pt x="317" y="317" on="1"/>
        <pt x="265" y="317" on="0"/>
        <pt x="203" y="256" on="0"/>
        <pt x="203" y="205" on="1"/>
        <pt x="203" y="153" on="0"/>
        <pt x="265" y="91" on="0"/>
        <pt x="317" y="91" on="1"/>
        <pt x="430" y="91" on="0"/>
      </contour>
    </TTGlyph>
    <TTGlyph name="uni0036.sc" xMin="42" yMin="-8" xMax="508" yMax="568">
      <contour>
        <pt x="507" y="177" on="1"/>
        <pt x="508" y="95" on="0"/>
        <pt x="396" y="-8" on="0"/>
        <pt x="292" y="-8" on="1"/>
        <pt x="42" y="-8" on="0"/>
        <pt x="42" y="282" on="1"/>
        <pt x="42" y="423" on="0"/>
        <pt x="184" y="568" on="0"/>
        <pt x="293" y="568" on="1"/>
        <pt x="443" y="568" on="0"/>
        <pt x="499" y="447" on="1"/>
        <pt x="393" y="398" on="1"/>
        <pt x="371" y="464" on="0"/>
        <pt x="293" y="464" on="1"/>
        <pt x="236" y="464" on="0"/>
        <pt x="164" y="365" on="0"/>
        <pt x="164" y="282" on="1"/>
        <pt x="164" y="267" on="1"/>
        <pt x="168" y="267" on="1"/>
        <pt x="184" y="306" on="0"/>
        <pt x="270" y="349" on="0"/>
        <pt x="319" y="349" on="1"/>
        <pt x="399" y="349" on="0"/>
        <pt x="506" y="260" on="0"/>
      </contour>
      <contour>
        <pt x="194" y="174" on="1"/>
        <pt x="194" y="135" on="0"/>
        <pt x="246" y="89" on="0"/>
        <pt x="289" y="89" on="1"/>
        <pt x="383" y="89" on="0"/>
        <pt x="383" y="174" on="1"/>
        <pt x="383" y="259" on="0"/>
        <pt x="289" y="259" on="1"/>
        <pt x="246" y="259" on="0"/>
        <pt x="194" y="212" on="0"/>
      </contour>
    </TTGlyph>
    <TTGlyph name="uni0036.tf" xMin="58" yMin="-10" xMax="565" yMax="670">
      <contour>
        <pt x="58" y="330" on="1"/>
        <pt x="58" y="502" on="0"/>
        <pt x="215" y="670" on="0"/>
        <pt x="331" y="670" on="1"/>
        <pt x="410" y="670" on="0"/>
        <pt x="524" y="604" on="0"/>
        <pt x="554" y="526" on="1"/>
        <pt x="438" y="472" on="1"/>
        <pt x="414" y="556" on="0"/>
        <pt x="323" y="556" on="1"/>
        <pt x="261" y="556" on="0"/>
        <pt x="183" y="432" on="0"/>
        <pt x="183" y="332" on="1"/>
        <pt x="183" y="314" on="1"/>
        <pt x="186" y="314" on="1"/>
        <pt x="202" y="364" on="0"/>
        <pt x="299" y="413" on="0"/>
        <pt x="354" y="413" on="1"/>
        <pt x="449" y="413" on="0"/>
        <pt x="565" y="300" on="0"/>
        <pt x="565" y="205" on="1"/>
        <pt x="565" y="107" on="0"/>
        <pt x="438" y="-10" on="0"/>
        <pt x="328" y="-10" on="1"/>
        <pt x="196" y="-10" on="0"/>
        <pt x="58" y="173" on="0"/>
      </contour>
      <contour>
        <pt x="436" y="207" on="1"/>
        <pt x="436" y="312" on="0"/>
        <pt x="325" y="312" on="1"/>
        <pt x="275" y="312" on="0"/>
        <pt x="214" y="254" on="0"/>
        <pt x="214" y="207" on="1"/>
        <pt x="214" y="158" on="0"/>
        <pt x="275" y="100" on="0"/>
        <pt x="325" y="100" on="1"/>
        <pt x="436" y="100" on="0"/>
      </contour>
    </TTGlyph>
    <TTGlyph name="uni0036.tosf" xMin="54" yMin="-10" xMax="562" yMax="670">
      <component glyphName="uni0036.osf" x="6" y="0" flags="0x4"/>
    </TTGlyph>
    <TTGlyph name="uni0037" xMin="41" yMin="0" xMax="564" yMax="660">
      <contour>
        <pt x="340" y="0" on="1"/>
        <pt x="202" y="0" on="1"/>
        <pt x="202" y="153" on="0"/>
        <pt x="311" y="426" on="0"/>
        <pt x="426" y="547" on="1"/>
        <pt x="41" y="547" on="1"/>
        <pt x="41" y="660" on="1"/>
        <pt x="564" y="660" on="1"/>
        <pt x="564" y="555" on="1"/>
        <pt x="440" y="431" on="0"/>
        <pt x="340" y="158" on="0"/>
      </contour>
    </TTGlyph>
    <TTGlyph name="uni0037.dnom" xMin="7" yMin="-4" xMax="332" yMax="393">
      <component glyphName="uni2077" x="0" y="-337" flags="0x4"/>
    </TTGlyph>
    <TTGlyph name="uni0037.numr" xMin="7" yMin="268" xMax="332" yMax="665">
      <component glyphName="uni2077" x="0" y="-65" flags="0x4"/>
    </TTGlyph>
    <TTGlyph name="uni0037.osf" xMin="15" yMin="-100" xMax="537" yMax="560">
      <contour>
        <pt x="314" y="-100" on="1"/>
        <pt x="177" y="-100" on="1"/>
        <pt x="177" y="53" on="0"/>
        <pt x="288" y="331" on="0"/>
        <pt x="406" y="452" on="1"/>
        <pt x="15" y="452" on="1"/>
        <pt x="15" y="560" on="1"/>
        <pt x="537" y="560" on="1"/>
        <pt x="537" y="455" on="1"/>
        <pt x="412" y="327" on="0"/>
        <pt x="314" y="55" on="0"/>
      </contour>
    </TTGlyph>
    <TTGlyph name="uni0037.sc" xMin="38" yMin="0" xMax="504" yMax="560">
      <contour>
        <pt x="313" y="0" on="1"/>
        <pt x="179" y="0" on="1"/>
        <pt x="180" y="122" on="0"/>
        <pt x="269" y="357" on="0"/>
        <pt x="367" y="453" on="1"/>
        <pt x="38" y="453" on="1"/>
        <pt x="38" y="560" on="1"/>
        <pt x="504" y="560" on="1"/>
        <pt x="504" y="459" on="1"/>
        <pt x="393" y="360" on="0"/>
        <pt x="314" y="121" on="0"/>
      </contour>
    </TTGlyph>
    <TTGlyph name="uni0037.tf" xMin="43" yMin="0" xMax="567" yMax="660">
      <contour>
        <pt x="340" y="0" on="1"/>
        <pt x="201" y="0" on="1"/>
        <pt x="201" y="160" on="0"/>
        <pt x="319" y="430" on="0"/>
        <pt x="434" y="547" on="1"/>
        <pt x="43" y="547" on="1"/>
        <pt x="43" y="660" on="1"/>
        <pt x="567" y="660" on="1"/>
        <pt x="567" y="555" on="1"/>
        <pt x="445" y="428" on="0"/>
        <pt x="340" y="174" on="0"/>
      </contour>
    </TTGlyph>
    <TTGlyph name="uni0037.tosf" xMin="48" yMin="-100" xMax="559" yMax="560">
      <contour>
        <pt x="336" y="-100" on="1"/>
        <pt x="199" y="-100" on="1"/>
        <pt x="199" y="54" on="0"/>
        <pt x="309" y="331" on="0"/>
        <pt x="427" y="452" on="1"/>
        <pt x="48" y="452" on="1"/>
        <pt x="48" y="560" on="1"/>
        <pt x="559" y="560" on="1"/>
        <pt x="559" y="455" on="1"/>
        <pt x="435" y="331" on="0"/>
        <pt x="336" y="58" on="0"/>
      </contour>
    </TTGlyph>
    <TTGlyph name="uni0038" xMin="54" yMin="-10" xMax="569" yMax="668">
      <contour>
        <pt x="78" y="488" on="1"/>
        <pt x="78" y="572" on="0"/>
        <pt x="204" y="668" on="0"/>
        <pt x="311" y="668" on="1"/>
        <pt x="419" y="668" on="0"/>
        <pt x="545" y="572" on="0"/>
        <pt x="545" y="488" on="1"/>
        <pt x="545" y="382" on="0"/>
        <pt x="445" y="342" on="1"/>
        <pt x="445" y="341" on="1"/>
        <pt x="503" y="321" on="0"/>
        <pt x="569" y="238" on="0"/>
        <pt x="569" y="176" on="1"/>
        <pt x="569" y="91" on="0"/>
        <pt x="430" y="-10" on="0"/>
        <pt x="311" y="-10" on="1"/>
        <pt x="193" y="-10" on="0"/>
        <pt x="54" y="91" on="0"/>
        <pt x="54" y="176" on="1"/>
        <pt x="54" y="298" on="0"/>
        <pt x="179" y="341" on="1"/>
        <pt x="179" y="342" on="1"/>
        <pt x="78" y="381" on="0"/>
      </contour>
      <contour>
        <pt x="413" y="475" on="1"/>
        <pt x="413" y="562" on="0"/>
        <pt x="311" y="562" on="1"/>
        <pt x="210" y="562" on="0"/>
        <pt x="210" y="475" on="1"/>
        <pt x="210" y="435" on="0"/>
        <pt x="265" y="388" on="0"/>
        <pt x="311" y="388" on="1"/>
        <pt x="358" y="388" on="0"/>
        <pt x="413" y="435" on="0"/>
      </contour>
      <contour>
        <pt x="189" y="193" on="1"/>
        <pt x="189" y="148" on="0"/>
        <pt x="255" y="97" on="0"/>
        <pt x="311" y="97" on="1"/>
        <pt x="433" y="97" on="0"/>
        <pt x="433" y="193" on="1"/>
        <pt x="433" y="239" on="0"/>
        <pt x="367" y="290" on="0"/>
        <pt x="311" y="290" on="1"/>
        <pt x="256" y="290" on="0"/>
        <pt x="189" y="239" on="0"/>
      </contour>
    </TTGlyph>
    <TTGlyph name="uni0038.dnom" xMin="32" yMin="-10" xMax="373" yMax="397">
      <component glyphName="uni2078" x="0" y="-337" flags="0x4"/>
    </TTGlyph>
    <TTGlyph name="uni0038.numr" xMin="32" yMin="262" xMax="373" yMax="669">
      <component glyphName="uni2078" x="0" y="-65" flags="0x4"/>
    </TTGlyph>
    <TTGlyph name="uni0038.osf" xMin="49" yMin="-10" xMax="561" yMax="668">
      <contour>
        <pt x="74" y="488" on="1"/>
        <pt x="74" y="572" on="0"/>
        <pt x="199" y="668" on="0"/>
        <pt x="305" y="668" on="1"/>
        <pt x="410" y="668" on="0"/>
        <pt x="535" y="572" on="0"/>
        <pt x="535" y="488" on="1"/>
        <pt x="535" y="384" on="0"/>
        <pt x="436" y="342" on="1"/>
        <pt x="436" y="341" on="1"/>
        <pt x="493" y="321" on="0"/>
        <pt x="561" y="237" on="0"/>
        <pt x="561" y="178" on="1"/>
        <pt x="561" y="90" on="0"/>
        <pt x="423" y="-10" on="0"/>
        <pt x="305" y="-10" on="1"/>
        <pt x="187" y="-10" on="0"/>
        <pt x="49" y="90" on="0"/>
        <pt x="49" y="178" on="1"/>
        <pt x="49" y="298" on="0"/>
        <pt x="174" y="341" on="1"/>
        <pt x="174" y="342" on="1"/>
        <pt x="74" y="383" on="0"/>
      </contour>
      <contour>
        <pt x="407" y="480" on="1"/>
        <pt x="407" y="522" on="0"/>
        <pt x="352" y="569" on="0"/>
        <pt x="305" y="569" on="1"/>
        <pt x="258" y="569" on="0"/>
        <pt x="202" y="522" on="0"/>
        <pt x="202" y="480" on="1"/>
        <pt x="202" y="437" on="0"/>
        <pt x="258" y="390" on="0"/>
        <pt x="305" y="390" on="1"/>
        <pt x="352" y="390" on="0"/>
        <pt x="407" y="437" on="0"/>
      </contour>
      <contour>
        <pt x="183" y="190" on="1"/>
        <pt x="183" y="143" on="0"/>
        <pt x="248" y="89" on="0"/>
        <pt x="305" y="89" on="1"/>
        <pt x="361" y="89" on="0"/>
        <pt x="426" y="143" on="0"/>
        <pt x="426" y="190" on="1"/>
        <pt x="426" y="237" on="0"/>
        <pt x="361" y="290" on="0"/>
        <pt x="305" y="290" on="1"/>
        <pt x="248" y="290" on="0"/>
        <pt x="183" y="237" on="0"/>
      </contour>
    </TTGlyph>
    <TTGlyph name="uni0038.sc" xMin="48" yMin="-8" xMax="519" yMax="567">
      <contour>
        <pt x="519" y="151" on="1"/>
        <pt x="519" y="78" on="0"/>
        <pt x="393" y="-8" on="0"/>
        <pt x="283" y="-8" on="1"/>
        <pt x="174" y="-8" on="0"/>
        <pt x="48" y="78" on="0"/>
        <pt x="48" y="151" on="1"/>
        <pt x="48" y="250" on="0"/>
        <pt x="158" y="288" on="1"/>
        <pt x="158" y="290" on="1"/>
        <pt x="64" y="325" on="0"/>
        <pt x="64" y="411" on="1"/>
        <pt x="64" y="485" on="0"/>
        <pt x="183" y="567" on="0"/>
        <pt x="283" y="567" on="1"/>
        <pt x="384" y="567" on="0"/>
        <pt x="503" y="485" on="0"/>
        <pt x="503" y="411" on="1"/>
        <pt x="503" y="325" on="0"/>
        <pt x="409" y="290" on="1"/>
        <pt x="409" y="288" on="1"/>
        <pt x="519" y="249" on="0"/>
      </contour>
      <contour>
        <pt x="192" y="401" on="1"/>
        <pt x="192" y="368" on="0"/>
        <pt x="242" y="331" on="0"/>
        <pt x="283" y="331" on="1"/>
        <pt x="375" y="331" on="0"/>
        <pt x="375" y="401" on="1"/>
        <pt x="375" y="470" on="0"/>
        <pt x="283" y="470" on="1"/>
        <pt x="192" y="470" on="0"/>
      </contour>
      <contour>
        <pt x="179" y="166" on="1"/>
        <pt x="179" y="89" on="0"/>
        <pt x="283" y="89" on="1"/>
        <pt x="388" y="89" on="0"/>
        <pt x="388" y="166" on="1"/>
        <pt x="388" y="202" on="0"/>
        <pt x="331" y="243" on="0"/>
        <pt x="283" y="243" on="1"/>
        <pt x="236" y="243" on="0"/>
        <pt x="179" y="202" on="0"/>
      </contour>
    </TTGlyph>
    <TTGlyph name="uni0038.tf" xMin="55" yMin="-10" xMax="549" yMax="668">
      <contour>
        <pt x="77" y="488" on="1"/>
        <pt x="77" y="572" on="0"/>
        <pt x="199" y="668" on="0"/>
        <pt x="302" y="668" on="1"/>
        <pt x="406" y="668" on="0"/>
        <pt x="527" y="572" on="0"/>
        <pt x="527" y="488" on="1"/>
        <pt x="527" y="437" on="0"/>
        <pt x="474" y="362" on="0"/>
        <pt x="430" y="342" on="1"/>
        <pt x="430" y="341" on="1"/>
        <pt x="484" y="321" on="0"/>
        <pt x="549" y="240" on="0"/>
        <pt x="549" y="180" on="1"/>
        <pt x="549" y="92" on="0"/>
        <pt x="416" y="-10" on="0"/>
        <pt x="302" y="-10" on="1"/>
        <pt x="188" y="-10" on="0"/>
        <pt x="55" y="92" on="0"/>
        <pt x="55" y="180" on="1"/>
        <pt x="55" y="239" on="0"/>
        <pt x="120" y="321" on="0"/>
        <pt x="175" y="341" on="1"/>
        <pt x="175" y="342" on="1"/>
        <pt x="131" y="361" on="0"/>
        <pt x="77" y="436" on="0"/>
      </contour>
      <contour>
        <pt x="400" y="475" on="1"/>
        <pt x="400" y="562" on="0"/>
        <pt x="302" y="562" on="1"/>
        <pt x="204" y="562" on="0"/>
        <pt x="204" y="475" on="1"/>
        <pt x="204" y="435" on="0"/>
        <pt x="258" y="389" on="0"/>
        <pt x="302" y="389" on="1"/>
        <pt x="346" y="389" on="0"/>
        <pt x="400" y="435" on="0"/>
      </contour>
      <contour>
        <pt x="187" y="192" on="1"/>
        <pt x="187" y="147" on="0"/>
        <pt x="249" y="96" on="0"/>
        <pt x="302" y="96" on="1"/>
        <pt x="418" y="96" on="0"/>
        <pt x="418" y="192" on="1"/>
        <pt x="418" y="238" on="0"/>
        <pt x="356" y="289" on="0"/>
        <pt x="302" y="289" on="1"/>
        <pt x="250" y="289" on="0"/>
        <pt x="187" y="238" on="0"/>
      </contour>
    </TTGlyph>
    <TTGlyph name="uni0038.tosf" xMin="45" yMin="-10" xMax="557" yMax="668">
      <component glyphName="uni0038.osf" x="-4" y="0" flags="0x4"/>
    </TTGlyph>
    <TTGlyph name="uni0039" xMin="51" yMin="-10" xMax="564" yMax="670">
      <contour>
        <pt x="407" y="450" on="1"/>
        <pt x="407" y="499" on="0"/>
        <pt x="346" y="557" on="0"/>
        <pt x="295" y="557" on="1"/>
        <pt x="183" y="557" on="0"/>
        <pt x="183" y="450" on="1"/>
        <pt x="183" y="344" on="0"/>
        <pt x="295" y="344" on="1"/>
        <pt x="346" y="344" on="0"/>
        <pt x="407" y="402" on="0"/>
      </contour>
      <contour>
        <pt x="51" y="450" on="1"/>
        <pt x="51" y="552" on="0"/>
        <pt x="182" y="670" on="0"/>
        <pt x="297" y="670" on="1"/>
        <pt x="426" y="670" on="0"/>
        <pt x="564" y="490" on="0"/>
        <pt x="564" y="328" on="1"/>
        <pt x="564" y="155" on="0"/>
        <pt x="422" y="-10" on="0"/>
        <pt x="294" y="-10" on="1"/>
        <pt x="115" y="-10" on="0"/>
        <pt x="56" y="136" on="1"/>
        <pt x="183" y="190" on="1"/>
        <pt x="194" y="149" on="0"/>
        <pt x="241" y="100" on="0"/>
        <pt x="295" y="100" on="1"/>
        <pt x="373" y="100" on="0"/>
        <pt x="439" y="220" on="0"/>
        <pt x="439" y="325" on="1"/>
        <pt x="439" y="339" on="1"/>
        <pt x="435" y="339" on="1"/>
        <pt x="422" y="285" on="0"/>
        <pt x="323" y="238" on="0"/>
        <pt x="268" y="238" on="1"/>
        <pt x="176" y="238" on="0"/>
        <pt x="51" y="353" on="0"/>
      </contour>
    </TTGlyph>
    <TTGlyph name="uni0039.dnom" xMin="27" yMin="-10" xMax="367" yMax="398">
      <component glyphName="uni2079" x="0" y="-337" flags="0x4"/>
    </TTGlyph>
    <TTGlyph name="uni0039.numr" xMin="27" yMin="262" xMax="367" yMax="670">
      <component glyphName="uni2079" x="0" y="-65" flags="0x4"/>
    </TTGlyph>
    <TTGlyph name="uni0039.osf" xMin="56" yMin="-110" xMax="565" yMax="570">
      <contour>
        <pt x="411" y="352" on="1"/>
        <pt x="411" y="405" on="0"/>
        <pt x="349" y="466" on="0"/>
        <pt x="297" y="466" on="1"/>
        <pt x="182" y="466" on="0"/>
        <pt x="182" y="352" on="1"/>
        <pt x="182" y="240" on="0"/>
        <pt x="297" y="240" on="1"/>
        <pt x="349" y="240" on="0"/>
        <pt x="411" y="302" on="0"/>
      </contour>
      <contour>
        <pt x="56" y="353" on="1"/>
        <pt x="56" y="454" on="0"/>
        <pt x="187" y="570" on="0"/>
        <pt x="299" y="570" on="1"/>
        <pt x="425" y="570" on="0"/>
        <pt x="565" y="390" on="0"/>
        <pt x="565" y="228" on="1"/>
        <pt x="565" y="72" on="0"/>
        <pt x="426" y="-110" on="0"/>
        <pt x="298" y="-110" on="1"/>
        <pt x="209" y="-110" on="0"/>
        <pt x="89" y="-41" on="0"/>
        <pt x="58" y="43" on="1"/>
        <pt x="177" y="92" on="1"/>
        <pt x="186" y="44" on="0"/>
        <pt x="240" y="-9" on="0"/>
        <pt x="300" y="-9" on="1"/>
        <pt x="368" y="-9" on="0"/>
        <pt x="444" y="106" on="0"/>
        <pt x="444" y="211" on="1"/>
        <pt x="444" y="218" on="0"/>
        <pt x="444" y="235" on="0"/>
        <pt x="443" y="245" on="1"/>
        <pt x="439" y="245" on="1"/>
        <pt x="426" y="193" on="0"/>
        <pt x="339" y="140" on="0"/>
        <pt x="274" y="140" on="1"/>
        <pt x="177" y="140" on="0"/>
        <pt x="56" y="256" on="0"/>
      </contour>
    </TTGlyph>
    <TTGlyph name="uni0039.sc" xMin="41" yMin="-8" xMax="509" yMax="568">
      <contour>
        <pt x="169" y="382" on="1"/>
        <pt x="169" y="296" on="0"/>
        <pt x="264" y="296" on="1"/>
        <pt x="307" y="296" on="0"/>
        <pt x="359" y="344" on="0"/>
        <pt x="359" y="381" on="1"/>
        <pt x="359" y="420" on="0"/>
        <pt x="308" y="467" on="0"/>
        <pt x="264" y="467" on="1"/>
        <pt x="169" y="467" on="0"/>
      </contour>
      <contour>
        <pt x="509" y="278" on="1"/>
        <pt x="509" y="-8" on="0"/>
        <pt x="263" y="-8" on="1"/>
        <pt x="101" y="-8" on="0"/>
        <pt x="43" y="115" on="1"/>
        <pt x="157" y="169" on="1"/>
        <pt x="164" y="133" on="0"/>
        <pt x="212" y="93" on="0"/>
        <pt x="261" y="93" on="1"/>
        <pt x="389" y="93" on="0"/>
        <pt x="389" y="277" on="1"/>
        <pt x="389" y="292" on="1"/>
        <pt x="385" y="292" on="1"/>
        <pt x="372" y="249" on="0"/>
        <pt x="288" y="207" on="0"/>
        <pt x="240" y="207" on="1"/>
        <pt x="156" y="207" on="0"/>
        <pt x="43" y="297" on="0"/>
        <pt x="42" y="382" on="1"/>
        <pt x="41" y="465" on="0"/>
        <pt x="158" y="568" on="0"/>
        <pt x="266" y="568" on="1"/>
        <pt x="382" y="568" on="0"/>
        <pt x="509" y="416" on="0"/>
      </contour>
    </TTGlyph>
    <TTGlyph name="uni0039.tf" xMin="44" yMin="-10" xMax="552" yMax="670">
      <contour>
        <pt x="396" y="450" on="1"/>
        <pt x="396" y="499" on="0"/>
        <pt x="336" y="557" on="0"/>
        <pt x="286" y="557" on="1"/>
        <pt x="175" y="557" on="0"/>
        <pt x="175" y="450" on="1"/>
        <pt x="175" y="344" on="0"/>
        <pt x="286" y="344" on="1"/>
        <pt x="336" y="344" on="0"/>
        <pt x="396" y="402" on="0"/>
      </contour>
      <contour>
        <pt x="44" y="450" on="1"/>
        <pt x="44" y="551" on="0"/>
        <pt x="174" y="670" on="0"/>
        <pt x="287" y="670" on="1"/>
        <pt x="414" y="670" on="0"/>
        <pt x="552" y="490" on="0"/>
        <pt x="552" y="328" on="1"/>
        <pt x="552" y="155" on="0"/>
        <pt x="415" y="-10" on="0"/>
        <pt x="285" y="-10" on="1"/>
        <pt x="106" y="-10" on="0"/>
        <pt x="47" y="136" on="1"/>
        <pt x="175" y="190" on="1"/>
        <pt x="187" y="148" on="0"/>
        <pt x="234" y="100" on="0"/>
        <pt x="289" y="100" on="1"/>
        <pt x="367" y="100" on="0"/>
        <pt x="429" y="220" on="0"/>
        <pt x="429" y="325" on="1"/>
        <pt x="429" y="339" on="1"/>
        <pt x="426" y="339" on="1"/>
        <pt x="411" y="284" on="0"/>
        <pt x="318" y="239" on="0"/>
        <pt x="261" y="238" on="1"/>
        <pt x="166" y="237" on="0"/>
        <pt x="44" y="350" on="0"/>
      </contour>
    </TTGlyph>
    <TTGlyph name="uni0039.tosf" xMin="41" yMin="-110" xMax="550" yMax="570">
      <component glyphName="uni0039.osf" x="-15" y="0" flags="0x4"/>
    </TTGlyph>
    <TTGlyph name="uni003A" xMin="63" yMin="-9" xMax="237" yMax="510">
      <component glyphName="uni002E" x="9" y="357" flags="0x4"/>
      <component glyphName="uni002E" x="9" y="0" flags="0x4"/>
    </TTGlyph>
    <TTGlyph name="uni003A.tf" xMin="64" yMin="-9" xMax="238" yMax="510">
      <component glyphName="uni002E" x="10" y="357" flags="0x4"/>
      <component glyphName="uni002E" x="10" y="0" flags="0x4"/>
    </TTGlyph>
    <TTGlyph name="uni003B" xMin="55" yMin="-154" xMax="246" yMax="510">
      <component glyphName="uni002C" x="11" y="0" flags="0x4"/>
      <component glyphName="uni002E" x="293" y="501" scale="-1.0" flags="0x4"/>
    </TTGlyph>
    <TTGlyph name="uni003B.tf" xMin="56" yMin="-154" xMax="247" yMax="510">
      <component glyphName="uni002C" x="12" y="0" flags="0x4"/>
      <component glyphName="uni002E" x="295" y="501" scale="-1.0" flags="0x4"/>
    </TTGlyph>
    <TTGlyph name="uni003C" xMin="66" yMin="14" xMax="551" yMax="582">
      <contour>
        <pt x="551" y="14" on="1"/>
        <pt x="66" y="234" on="1"/>
        <pt x="66" y="361" on="1"/>
        <pt x="551" y="582" on="1"/>
        <pt x="551" y="449" on="1"/>
        <pt x="162" y="298" on="1"/>
        <pt x="551" y="146" on="1"/>
      </contour>
    </TTGlyph>
    <TTGlyph name="uni003D" xMin="64" yMin="156" xMax="540" yMax="468">
      <contour>
        <pt x="64" y="468" on="1"/>
        <pt x="540" y="468" on="1"/>
        <pt x="540" y="366" on="1"/>
        <pt x="64" y="366" on="1"/>
      </contour>
      <contour>
        <pt x="64" y="257" on="1"/>
        <pt x="540" y="257" on="1"/>
        <pt x="540" y="156" on="1"/>
        <pt x="64" y="156" on="1"/>
      </contour>
    </TTGlyph>
    <TTGlyph name="uni003E" xMin="53" yMin="14" xMax="538" yMax="582">
      <component glyphName="uni003C" x="604" y="0" scalex="-1.0" scaley="1.0" flags="0x4"/>
    </TTGlyph>
    <TTGlyph name="uni003F" xMin="35" yMin="-9" xMax="538" yMax="670">
      <contour>
        <pt x="35" y="496" on="1"/>
        <pt x="48" y="572" on="0"/>
        <pt x="174" y="670" on="0"/>
        <pt x="295" y="670" on="1"/>
        <pt x="402" y="670" on="0"/>
        <pt x="538" y="582" on="0"/>
        <pt x="538" y="493" on="1"/>
        <pt x="538" y="401" on="0"/>
        <pt x="429" y="314" on="0"/>
        <pt x="349" y="306" on="1"/>
        <pt x="342" y="212" on="1"/>
        <pt x="220" y="212" on="1"/>
        <pt x="214" y="363" on="1"/>
        <pt x="311" y="374" on="0"/>
        <pt x="391" y="427" on="0"/>
        <pt x="391" y="473" on="1"/>
        <pt x="391" y="555" on="0"/>
        <pt x="286" y="555" on="1"/>
        <pt x="174" y="555" on="0"/>
        <pt x="165" y="442" on="1"/>
      </contour>
      <contour>
        <pt x="196" y="69" on="1"/>
        <pt x="196" y="147" on="0"/>
        <pt x="281" y="147" on="1"/>
        <pt x="367" y="147" on="0"/>
        <pt x="367" y="69" on="1"/>
        <pt x="367" y="-9" on="0"/>
        <pt x="281" y="-9" on="1"/>
        <pt x="196" y="-9" on="0"/>
      </contour>
    </TTGlyph>
    <TTGlyph name="uni003F.sc" xMin="17" yMin="-8" xMax="483" yMax="568">
      <contour>
        <pt x="17" y="420" on="1"/>
        <pt x="47" y="568" on="0"/>
        <pt x="257" y="568" on="1"/>
        <pt x="356" y="568" on="0"/>
        <pt x="483" y="493" on="0"/>
        <pt x="483" y="417" on="1"/>
        <pt x="483" y="344" on="0"/>
        <pt x="380" y="273" on="0"/>
        <pt x="313" y="267" on="1"/>
        <pt x="309" y="192" on="1"/>
        <pt x="184" y="192" on="1"/>
        <pt x="182" y="307" on="1"/>
        <pt x="279" y="319" on="0"/>
        <pt x="348" y="361" on="0"/>
        <pt x="348" y="398" on="1"/>
        <pt x="348" y="465" on="0"/>
        <pt x="253" y="465" on="1"/>
        <pt x="154" y="465" on="0"/>
        <pt x="143" y="375" on="1"/>
      </contour>
      <contour>
        <pt x="164" y="64" on="1"/>
        <pt x="164" y="137" on="0"/>
        <pt x="244" y="137" on="1"/>
        <pt x="325" y="137" on="0"/>
        <pt x="325" y="64" on="1"/>
        <pt x="325" y="-8" on="0"/>
        <pt x="244" y="-8" on="1"/>
        <pt x="164" y="-8" on="0"/>
      </contour>
    </TTGlyph>
    <TTGlyph name="uni0040" xMin="55" yMin="-188" xMax="902" yMax="660">
      <contour>
        <pt x="55" y="223" on="1"/>
        <pt x="55" y="419" on="0"/>
        <pt x="302" y="660" on="0"/>
        <pt x="498" y="660" on="1"/>
        <pt x="694" y="660" on="0"/>
        <pt x="902" y="439" on="0"/>
        <pt x="902" y="260" on="1"/>
        <pt x="902" y="129" on="0"/>
        <pt x="784" y="-2" on="0"/>
        <pt x="702" y="-2" on="1"/>
        <pt x="648" y="-2" on="0"/>
        <pt x="585" y="49" on="0"/>
        <pt x="571" y="86" on="1"/>
        <pt x="517" y="2" on="0"/>
        <pt x="409" y="2" on="1"/>
        <pt x="336" y="2" on="0"/>
        <pt x="244" y="107" on="0"/>
        <pt x="244" y="195" on="1"/>
        <pt x="244" y="329" on="0"/>
        <pt x="383" y="467" on="0"/>
        <pt x="474" y="467" on="1"/>
        <pt x="533" y="467" on="0"/>
        <pt x="591" y="415" on="0"/>
        <pt x="601" y="386" on="1"/>
        <pt x="621" y="458" on="1"/>
        <pt x="717" y="458" on="1"/>
        <pt x="675" y="163" on="1"/>
        <pt x="669" y="122" on="0"/>
        <pt x="692" y="73" on="0"/>
        <pt x="730" y="73" on="1"/>
        <pt x="775" y="73" on="0"/>
        <pt x="830" y="166" on="0"/>
        <pt x="830" y="260" on="1"/>
        <pt x="830" y="415" on="0"/>
        <pt x="656" y="591" on="0"/>
        <pt x="498" y="591" on="1"/>
        <pt x="332" y="591" on="0"/>
        <pt x="134" y="394" on="0"/>
        <pt x="134" y="223" on="1"/>
        <pt x="134" y="59" on="0"/>
        <pt x="331" y="-119" on="0"/>
        <pt x="467" y="-119" on="1"/>
        <pt x="551" y="-119" on="0"/>
        <pt x="642" y="-84" on="0"/>
        <pt x="674" y="-60" on="1"/>
        <pt x="714" y="-114" on="1"/>
        <pt x="671" y="-144" on="0"/>
        <pt x="563" y="-188" on="0"/>
        <pt x="465" y="-188" on="1"/>
        <pt x="285" y="-188" on="0"/>
        <pt x="55" y="33" on="0"/>
      </contour>
      <contour>
        <pt x="572" y="267" on="1"/>
        <pt x="578" y="314" on="0"/>
        <pt x="542" y="375" on="0"/>
        <pt x="490" y="375" on="1"/>
        <pt x="435" y="375" on="0"/>
        <pt x="363" y="288" on="0"/>
        <pt x="363" y="210" on="1"/>
        <pt x="363" y="97" on="0"/>
        <pt x="451" y="97" on="1"/>
        <pt x="491" y="97" on="0"/>
        <pt x="556" y="147" on="0"/>
        <pt x="562" y="198" on="1"/>
      </contour>
    </TTGlyph>
    <TTGlyph name="uni0040.case" xMin="55" yMin="-95" xMax="902" yMax="753">
      <component glyphName="uni0040" x="0" y="93" flags="0x4"/>
    </TTGlyph>
    <TTGlyph name="uni0041" xMin="12" yMin="0" xMax="659" yMax="660">
      <contour>
        <pt x="305" y="451" on="1"/>
        <pt x="242" y="263" on="1"/>
        <pt x="428" y="263" on="1"/>
        <pt x="365" y="449" on="1"/>
        <pt x="335" y="549" on="1"/>
        <pt x="333" y="549" on="1"/>
      </contour>
      <contour>
        <pt x="516" y="0" on="1"/>
        <pt x="462" y="161" on="1"/>
        <pt x="207" y="161" on="1"/>
        <pt x="153" y="0" on="1"/>
        <pt x="12" y="0" on="1"/>
        <pt x="253" y="660" on="1"/>
        <pt x="418" y="660" on="1"/>
        <pt x="659" y="0" on="1"/>
      </contour>
    </TTGlyph>
    <TTGlyph name="uni0041.swsh" xMin="0" yMin="-110" xMax="898" yMax="660">
      <contour>
        <pt x="544" y="451" on="1"/>
        <pt x="477" y="263" on="1"/>
        <pt x="667" y="263" on="1"/>
        <pt x="604" y="449" on="1"/>
        <pt x="575" y="549" on="1"/>
        <pt x="572" y="549" on="1"/>
      </contour>
      <contour>
        <pt x="174" y="-110" on="1"/>
        <pt x="23" y="-110" on="0"/>
        <pt x="0" y="-4" on="1"/>
        <pt x="56" y="81" on="1"/>
        <pt x="71" y="30" on="0"/>
        <pt x="124" y="-4" on="0"/>
        <pt x="167" y="-4" on="1"/>
        <pt x="215" y="-4" on="0"/>
        <pt x="270" y="54" on="0"/>
        <pt x="297" y="128" on="1"/>
        <pt x="492" y="660" on="1"/>
        <pt x="658" y="660" on="1"/>
        <pt x="898" y="0" on="1"/>
        <pt x="755" y="0" on="1"/>
        <pt x="701" y="161" on="1"/>
        <pt x="441" y="161" on="1"/>
        <pt x="407" y="65" on="1"/>
        <pt x="379" y="-21" on="0"/>
        <pt x="271" y="-110" on="0"/>
      </contour>
      <contour>
        <pt x="314" y="364" on="1"/>
        <pt x="271" y="268" on="1"/>
        <pt x="195" y="275" on="0"/>
        <pt x="90" y="379" on="0"/>
        <pt x="90" y="464" on="1"/>
        <pt x="90" y="556" on="0"/>
        <pt x="212" y="660" on="0"/>
        <pt x="321" y="660" on="1"/>
        <pt x="549" y="660" on="1"/>
        <pt x="549" y="557" on="1"/>
        <pt x="332" y="557" on="1"/>
        <pt x="217" y="557" on="0"/>
        <pt x="217" y="462" on="1"/>
        <pt x="217" y="423" on="0"/>
        <pt x="271" y="370" on="0"/>
      </contour>
    </TTGlyph>
    <TTGlyph name="uni0042" xMin="86" yMin="0" xMax="626" yMax="660">
      <contour>
        <pt x="385" y="0" on="1"/>
        <pt x="86" y="0" on="1"/>
        <pt x="86" y="660" on="1"/>
        <pt x="375" y="660" on="1"/>
        <pt x="495" y="660" on="0"/>
        <pt x="609" y="566" on="0"/>
        <pt x="609" y="480" on="1"/>
        <pt x="609" y="427" on="0"/>
        <pt x="545" y="345" on="0"/>
        <pt x="483" y="334" on="1"/>
        <pt x="483" y="333" on="1"/>
        <pt x="552" y="323" on="0"/>
        <pt x="626" y="239" on="0"/>
        <pt x="626" y="181" on="1"/>
        <pt x="626" y="96" on="0"/>
        <pt x="503" y="0" on="0"/>
      </contour>
      <contour>
        <pt x="220" y="553" on="1"/>
        <pt x="220" y="383" on="1"/>
        <pt x="356" y="383" on="1"/>
        <pt x="466" y="383" on="0"/>
        <pt x="466" y="468" on="1"/>
        <pt x="466" y="553" on="0"/>
        <pt x="356" y="553" on="1"/>
      </contour>
      <contour>
        <pt x="220" y="277" on="1"/>
        <pt x="220" y="104" on="1"/>
        <pt x="373" y="104" on="1"/>
        <pt x="483" y="104" on="0"/>
        <pt x="483" y="191" on="1"/>
        <pt x="483" y="277" on="0"/>
        <pt x="373" y="277" on="1"/>
      </contour>
    </TTGlyph>
    <TTGlyph name="uni0043" xMin="53" yMin="-10" xMax="651" yMax="670">
      <contour>
        <pt x="524" y="220" on="1"/>
        <pt x="651" y="182" on="1"/>
        <pt x="621" y="85" on="0"/>
        <pt x="472" y="-10" on="0"/>
        <pt x="371" y="-10" on="1"/>
        <pt x="224" y="-10" on="0"/>
        <pt x="53" y="171" on="0"/>
        <pt x="53" y="330" on="1"/>
        <pt x="53" y="489" on="0"/>
        <pt x="224" y="670" on="0"/>
        <pt x="369" y="670" on="1"/>
        <pt x="470" y="670" on="0"/>
        <pt x="614" y="585" on="0"/>
        <pt x="642" y="499" on="1"/>
        <pt x="517" y="446" on="1"/>
        <pt x="501" y="506" on="0"/>
        <pt x="432" y="557" on="0"/>
        <pt x="375" y="557" on="1"/>
        <pt x="293" y="557" on="0"/>
        <pt x="196" y="440" on="0"/>
        <pt x="196" y="330" on="1"/>
        <pt x="196" y="221" on="0"/>
        <pt x="289" y="103" on="0"/>
        <pt x="372" y="103" on="1"/>
        <pt x="493" y="103" on="0"/>
      </contour>
    </TTGlyph>
    <TTGlyph name="uni0044" xMin="86" yMin="0" xMax="666" yMax="660">
      <contour>
        <pt x="334" y="550" on="1"/>
        <pt x="224" y="550" on="1"/>
        <pt x="224" y="110" on="1"/>
        <pt x="334" y="110" on="1"/>
        <pt x="523" y="110" on="0"/>
        <pt x="523" y="330" on="1"/>
        <pt x="523" y="550" on="0"/>
      </contour>
      <contour>
        <pt x="86" y="0" on="1"/>
        <pt x="86" y="660" on="1"/>
        <pt x="341" y="660" on="1"/>
        <pt x="496" y="660" on="0"/>
        <pt x="666" y="488" on="0"/>
        <pt x="666" y="330" on="1"/>
        <pt x="666" y="172" on="0"/>
        <pt x="496" y="0" on="0"/>
        <pt x="341" y="0" on="1"/>
      </contour>
    </TTGlyph>
    <TTGlyph name="uni0045" xMin="86" yMin="0" xMax="595" yMax="660">
      <contour>
        <pt x="86" y="0" on="1"/>
        <pt x="86" y="660" on="1"/>
        <pt x="581" y="660" on="1"/>
        <pt x="581" y="549" on="1"/>
        <pt x="224" y="549" on="1"/>
        <pt x="224" y="385" on="1"/>
        <pt x="505" y="385" on="1"/>
        <pt x="505" y="279" on="1"/>
        <pt x="224" y="279" on="1"/>
        <pt x="224" y="111" on="1"/>
        <pt x="595" y="111" on="1"/>
        <pt x="595" y="0" on="1"/>
      </contour>
    </TTGlyph>
    <TTGlyph name="uni0045.swsh" xMin="10" yMin="0" xMax="842" yMax="660">
      <component glyphName="__swash_topleft" x="-48" y="0" flags="0x4"/>
      <component glyphName="uni0045" x="247" y="0" flags="0x4"/>
    </TTGlyph>
    <TTGlyph name="uni0045.swsh.001" xMin="86" yMin="0" xMax="790" yMax="660">
      <contour>
        <pt x="86" y="0" on="1"/>
        <pt x="86" y="660" on="1"/>
        <pt x="613" y="660" on="1"/>
        <pt x="613" y="549" on="1"/>
        <pt x="224" y="549" on="1"/>
        <pt x="224" y="380" on="1"/>
        <pt x="433" y="380" on="1"/>
        <pt x="433" y="273" on="1"/>
        <pt x="224" y="273" on="1"/>
        <pt x="224" y="111" on="1"/>
        <pt x="552" y="111" on="1"/>
        <pt x="667" y="111" on="0"/>
        <pt x="667" y="191" on="1"/>
        <pt x="667" y="266" on="0"/>
        <pt x="592" y="272" on="1"/>
        <pt x="639" y="362" on="1"/>
        <pt x="710" y="355" on="0"/>
        <pt x="790" y="261" on="0"/>
        <pt x="790" y="187" on="1"/>
        <pt x="790" y="91" on="0"/>
        <pt x="673" y="0" on="0"/>
        <pt x="574" y="0" on="1"/>
      </contour>
    </TTGlyph>
    <TTGlyph name="uni0046" xMin="86" yMin="0" xMax="580" yMax="660">
      <contour>
        <pt x="505" y="270" on="1"/>
        <pt x="224" y="270" on="1"/>
        <pt x="224" y="0" on="1"/>
        <pt x="86" y="0" on="1"/>
        <pt x="86" y="660" on="1"/>
        <pt x="580" y="660" on="1"/>
        <pt x="580" y="549" on="1"/>
        <pt x="224" y="549" on="1"/>
        <pt x="224" y="382" on="1"/>
        <pt x="505" y="382" on="1"/>
      </contour>
    </TTGlyph>
    <TTGlyph name="uni0046.swsh" xMin="10" yMin="0" xMax="817" yMax="660">
      <component glyphName="__swash_topleft" x="-48" y="0" flags="0x4"/>
      <component glyphName="uni0046" x="237" y="0" flags="0x4"/>
    </TTGlyph>
    <TTGlyph name="uni0047" xMin="53" yMin="-10" xMax="657" yMax="670">
      <contour>
        <pt x="561" y="0" on="1"/>
        <pt x="556" y="83" on="1"/>
        <pt x="498" y="-10" on="0"/>
        <pt x="360" y="-10" on="1"/>
        <pt x="224" y="-10" on="0"/>
        <pt x="53" y="168" on="0"/>
        <pt x="53" y="329" on="1"/>
        <pt x="53" y="488" on="0"/>
        <pt x="227" y="670" on="0"/>
        <pt x="374" y="670" on="1"/>
        <pt x="580" y="670" on="0"/>
        <pt x="655" y="508" on="1"/>
        <pt x="527" y="453" on="1"/>
        <pt x="496" y="557" on="0"/>
        <pt x="377" y="557" on="1"/>
        <pt x="293" y="557" on="0"/>
        <pt x="196" y="440" on="0"/>
        <pt x="196" y="330" on="1"/>
        <pt x="196" y="101" on="0"/>
        <pt x="381" y="101" on="1"/>
        <pt x="449" y="101" on="0"/>
        <pt x="538" y="166" on="0"/>
        <pt x="538" y="232" on="1"/>
        <pt x="538" y="247" on="1"/>
        <pt x="365" y="247" on="1"/>
        <pt x="365" y="348" on="1"/>
        <pt x="657" y="348" on="1"/>
        <pt x="657" y="0" on="1"/>
      </contour>
    </TTGlyph>
    <TTGlyph name="uni0047.ss04" xMin="53" yMin="-10" xMax="669" yMax="670">
      <contour>
        <pt x="669" y="275" on="1"/>
        <pt x="669" y="136" on="0"/>
        <pt x="511" y="-10" on="0"/>
        <pt x="372" y="-10" on="1"/>
        <pt x="227" y="-10" on="0"/>
        <pt x="53" y="168" on="0"/>
        <pt x="53" y="329" on="1"/>
        <pt x="53" y="488" on="0"/>
        <pt x="227" y="670" on="0"/>
        <pt x="374" y="670" on="1"/>
        <pt x="580" y="670" on="0"/>
        <pt x="655" y="508" on="1"/>
        <pt x="527" y="453" on="1"/>
        <pt x="496" y="557" on="0"/>
        <pt x="375" y="557" on="1"/>
        <pt x="294" y="557" on="0"/>
        <pt x="196" y="440" on="0"/>
        <pt x="196" y="330" on="1"/>
        <pt x="196" y="103" on="0"/>
        <pt x="385" y="103" on="1"/>
        <pt x="472" y="103" on="0"/>
        <pt x="548" y="195" on="0"/>
        <pt x="548" y="244" on="1"/>
        <pt x="548" y="251" on="1"/>
        <pt x="365" y="251" on="1"/>
        <pt x="365" y="349" on="1"/>
        <pt x="669" y="349" on="1"/>
      </contour>
    </TTGlyph>
    <TTGlyph name="uni0048" xMin="86" yMin="0" xMax="653" yMax="660">
      <contour>
        <pt x="515" y="0" on="1"/>
        <pt x="515" y="278" on="1"/>
        <pt x="224" y="278" on="1"/>
        <pt x="224" y="0" on="1"/>
        <pt x="86" y="0" on="1"/>
        <pt x="86" y="660" on="1"/>
        <pt x="224" y="660" on="1"/>
        <pt x="224" y="389" on="1"/>
        <pt x="515" y="389" on="1"/>
        <pt x="515" y="660" on="1"/>
        <pt x="653" y="660" on="1"/>
        <pt x="653" y="0" on="1"/>
      </contour>
    </TTGlyph>
    <TTGlyph name="uni0049" xMin="86" yMin="0" xMax="224" yMax="660">
      <contour>
        <pt x="86" y="660" on="1"/>
        <pt x="224" y="660" on="1"/>
        <pt x="224" y="0" on="1"/>
        <pt x="86" y="0" on="1"/>
      </contour>
    </TTGlyph>
    <TTGlyph name="uni004A" xMin="19" yMin="-10" xMax="525" yMax="660">
      <contour>
        <pt x="387" y="660" on="1"/>
        <pt x="525" y="660" on="1"/>
        <pt x="525" y="243" on="1"/>
        <pt x="525" y="124" on="0"/>
        <pt x="389" y="-10" on="0"/>
        <pt x="266" y="-10" on="1"/>
        <pt x="132" y="-10" on="0"/>
        <pt x="19" y="132" on="0"/>
        <pt x="40" y="245" on="1"/>
        <pt x="175" y="269" on="1"/>
        <pt x="163" y="181" on="0"/>
        <pt x="208" y="103" on="0"/>
        <pt x="270" y="103" on="1"/>
        <pt x="335" y="103" on="0"/>
        <pt x="387" y="183" on="0"/>
        <pt x="387" y="262" on="1"/>
      </contour>
    </TTGlyph>
    <TTGlyph name="uni004B" xMin="86" yMin="0" xMax="663" yMax="660">
      <contour>
        <pt x="505" y="0" on="1"/>
        <pt x="318" y="301" on="1"/>
        <pt x="224" y="194" on="1"/>
        <pt x="224" y="0" on="1"/>
        <pt x="86" y="0" on="1"/>
        <pt x="86" y="660" on="1"/>
        <pt x="224" y="660" on="1"/>
        <pt x="224" y="347" on="1"/>
        <pt x="495" y="660" on="1"/>
        <pt x="655" y="660" on="1"/>
        <pt x="417" y="390" on="1"/>
        <pt x="663" y="0" on="1"/>
      </contour>
    </TTGlyph>
    <TTGlyph name="uni004C" xMin="86" yMin="0" xMax="572" yMax="660">
      <contour>
        <pt x="86" y="0" on="1"/>
        <pt x="86" y="660" on="1"/>
        <pt x="224" y="660" on="1"/>
        <pt x="224" y="111" on="1"/>
        <pt x="572" y="111" on="1"/>
        <pt x="572" y="0" on="1"/>
      </contour>
    </TTGlyph>
    <TTGlyph name="uni004C.swsh" xMin="86" yMin="0" xMax="665" yMax="660">
      <contour>
        <pt x="86" y="0" on="1"/>
        <pt x="86" y="660" on="1"/>
        <pt x="224" y="660" on="1"/>
        <pt x="224" y="111" on="1"/>
        <pt x="424" y="111" on="1"/>
        <pt x="542" y="111" on="0"/>
        <pt x="542" y="198" on="1"/>
        <pt x="542" y="287" on="0"/>
        <pt x="445" y="289" on="1"/>
        <pt x="488" y="382" on="1"/>
        <pt x="579" y="379" on="0"/>
        <pt x="665" y="270" on="0"/>
        <pt x="665" y="196" on="1"/>
        <pt x="665" y="99" on="0"/>
        <pt x="544" y="0" on="0"/>
        <pt x="434" y="0" on="1"/>
      </contour>
    </TTGlyph>
    <TTGlyph name="uni004D" xMin="86" yMin="0" xMax="804" yMax="660">
      <contour>
        <pt x="610" y="660" on="1"/>
        <pt x="804" y="660" on="1"/>
        <pt x="804" y="0" on="1"/>
        <pt x="680" y="0" on="1"/>
        <pt x="680" y="344" on="1"/>
        <pt x="686" y="537" on="1"/>
        <pt x="684" y="537" on="1"/>
        <pt x="501" y="0" on="1"/>
        <pt x="388" y="0" on="1"/>
        <pt x="206" y="537" on="1"/>
        <pt x="204" y="537" on="1"/>
        <pt x="211" y="344" on="1"/>
        <pt x="211" y="0" on="1"/>
        <pt x="86" y="0" on="1"/>
        <pt x="86" y="660" on="1"/>
        <pt x="286" y="660" on="1"/>
        <pt x="405" y="300" on="1"/>
        <pt x="447" y="151" on="1"/>
        <pt x="449" y="151" on="1"/>
        <pt x="492" y="299" on="1"/>
      </contour>
    </TTGlyph>
    <TTGlyph name="uni004D.swsh" xMin="10" yMin="-110" xMax="1041" yMax="660">
      <contour>
        <pt x="922" y="537" on="1"/>
        <pt x="739" y="0" on="1"/>
        <pt x="626" y="0" on="1"/>
        <pt x="443" y="537" on="1"/>
        <pt x="441" y="537" on="1"/>
        <pt x="448" y="344" on="1"/>
        <pt x="448" y="197" on="1"/>
        <pt x="323" y="197" on="1"/>
        <pt x="323" y="557" on="1"/>
        <pt x="252" y="557" on="1"/>
        <pt x="137" y="557" on="0"/>
        <pt x="137" y="462" on="1"/>
        <pt x="137" y="423" on="0"/>
        <pt x="191" y="370" on="0"/>
        <pt x="234" y="364" on="1"/>
        <pt x="191" y="268" on="1"/>
        <pt x="115" y="275" on="0"/>
        <pt x="10" y="379" on="0"/>
        <pt x="10" y="464" on="1"/>
        <pt x="10" y="556" on="0"/>
        <pt x="132" y="660" on="0"/>
        <pt x="241" y="660" on="1"/>
        <pt x="523" y="660" on="1"/>
        <pt x="642" y="300" on="1"/>
        <pt x="684" y="151" on="1"/>
        <pt x="686" y="151" on="1"/>
        <pt x="729" y="299" on="1"/>
        <pt x="847" y="660" on="1"/>
        <pt x="1041" y="660" on="1"/>
        <pt x="1041" y="0" on="1"/>
        <pt x="917" y="0" on="1"/>
        <pt x="917" y="344" on="1"/>
        <pt x="923" y="537" on="1"/>
      </contour>
      <contour>
        <pt x="448" y="94" on="1"/>
        <pt x="448" y="-2" on="0"/>
        <pt x="334" y="-110" on="0"/>
        <pt x="232" y="-110" on="1"/>
        <pt x="154" y="-110" on="0"/>
        <pt x="65" y="-52" on="0"/>
        <pt x="45" y="3" on="1"/>
        <pt x="107" y="85" on="1"/>
        <pt x="131" y="-4" on="0"/>
        <pt x="220" y="-4" on="1"/>
        <pt x="323" y="-4" on="0"/>
        <pt x="323" y="103" on="1"/>
        <pt x="323" y="202" on="1"/>
        <pt x="448" y="202" on="1"/>
      </contour>
    </TTGlyph>
    <TTGlyph name="uni004D.swsh.001" xMin="10" yMin="0" xMax="1041" yMax="660">
      <contour>
        <pt x="234" y="364" on="1"/>
        <pt x="191" y="268" on="1"/>
        <pt x="115" y="275" on="0"/>
        <pt x="10" y="379" on="0"/>
        <pt x="10" y="464" on="1"/>
        <pt x="10" y="556" on="0"/>
        <pt x="132" y="660" on="0"/>
        <pt x="241" y="660" on="1"/>
        <pt x="469" y="660" on="1"/>
        <pt x="469" y="557" on="1"/>
        <pt x="252" y="557" on="1"/>
        <pt x="137" y="557" on="0"/>
        <pt x="137" y="462" on="1"/>
        <pt x="137" y="423" on="0"/>
        <pt x="191" y="370" on="0"/>
      </contour>
      <contour>
        <pt x="847" y="660" on="1"/>
        <pt x="1041" y="660" on="1"/>
        <pt x="1041" y="0" on="1"/>
        <pt x="917" y="0" on="1"/>
        <pt x="917" y="344" on="1"/>
        <pt x="923" y="537" on="1"/>
        <pt x="921" y="537" on="1"/>
        <pt x="738" y="0" on="1"/>
        <pt x="625" y="0" on="1"/>
        <pt x="443" y="537" on="1"/>
        <pt x="441" y="537" on="1"/>
        <pt x="448" y="344" on="1"/>
        <pt x="448" y="0" on="1"/>
        <pt x="323" y="0" on="1"/>
        <pt x="323" y="660" on="1"/>
        <pt x="523" y="660" on="1"/>
        <pt x="642" y="300" on="1"/>
        <pt x="684" y="151" on="1"/>
        <pt x="686" y="151" on="1"/>
        <pt x="729" y="299" on="1"/>
      </contour>
    </TTGlyph>
    <TTGlyph name="uni004E" xMin="86" yMin="0" xMax="653" yMax="660">
      <contour>
        <pt x="529" y="660" on="1"/>
        <pt x="653" y="660" on="1"/>
        <pt x="653" y="0" on="1"/>
        <pt x="495" y="0" on="1"/>
        <pt x="264" y="388" on="1"/>
        <pt x="207" y="499" on="1"/>
        <pt x="206" y="499" on="1"/>
        <pt x="210" y="382" on="1"/>
        <pt x="210" y="0" on="1"/>
        <pt x="86" y="0" on="1"/>
        <pt x="86" y="660" on="1"/>
        <pt x="243" y="660" on="1"/>
        <pt x="474" y="273" on="1"/>
        <pt x="531" y="161" on="1"/>
        <pt x="533" y="161" on="1"/>
        <pt x="529" y="278" on="1"/>
      </contour>
    </TTGlyph>
    <TTGlyph name="uni004E.swsh" xMin="86" yMin="0" xMax="931" yMax="729">
      <contour>
        <pt x="210" y="382" on="1"/>
        <pt x="210" y="0" on="1"/>
        <pt x="86" y="0" on="1"/>
        <pt x="86" y="660" on="1"/>
        <pt x="243" y="660" on="1"/>
        <pt x="474" y="273" on="1"/>
        <pt x="531" y="161" on="1"/>
        <pt x="533" y="161" on="1"/>
        <pt x="529" y="278" on="1"/>
        <pt x="529" y="526" on="1"/>
        <pt x="529" y="621" on="0"/>
        <pt x="644" y="729" on="0"/>
        <pt x="746" y="729" on="1"/>
        <pt x="824" y="729" on="0"/>
        <pt x="912" y="671" on="0"/>
        <pt x="931" y="620" on="1"/>
        <pt x="868" y="540" on="1"/>
        <pt x="855" y="584" on="0"/>
        <pt x="805" y="623" on="0"/>
        <pt x="758" y="623" on="1"/>
        <pt x="709" y="623" on="0"/>
        <pt x="653" y="559" on="0"/>
        <pt x="653" y="505" on="1"/>
        <pt x="653" y="0" on="1"/>
        <pt x="495" y="0" on="1"/>
        <pt x="264" y="388" on="1"/>
        <pt x="207" y="499" on="1"/>
        <pt x="206" y="499" on="1"/>
      </contour>
    </TTGlyph>
    <TTGlyph name="uni004F" xMin="53" yMin="-10" xMax="688" yMax="670">
      <contour>
        <pt x="53" y="330" on="1"/>
        <pt x="53" y="489" on="0"/>
        <pt x="224" y="670" on="0"/>
        <pt x="371" y="670" on="1"/>
        <pt x="518" y="670" on="0"/>
        <pt x="688" y="489" on="0"/>
        <pt x="688" y="330" on="1"/>
        <pt x="688" y="171" on="0"/>
        <pt x="518" y="-10" on="0"/>
        <pt x="371" y="-10" on="1"/>
        <pt x="224" y="-10" on="0"/>
        <pt x="53" y="171" on="0"/>
      </contour>
      <contour>
        <pt x="545" y="330" on="1"/>
        <pt x="545" y="440" on="0"/>
        <pt x="454" y="557" on="0"/>
        <pt x="371" y="557" on="1"/>
        <pt x="288" y="557" on="0"/>
        <pt x="196" y="440" on="0"/>
        <pt x="196" y="330" on="1"/>
        <pt x="196" y="220" on="0"/>
        <pt x="288" y="103" on="0"/>
        <pt x="371" y="103" on="1"/>
        <pt x="454" y="103" on="0"/>
        <pt x="545" y="220" on="0"/>
      </contour>
    </TTGlyph>
    <TTGlyph name="uni0050" xMin="86" yMin="0" xMax="606" yMax="660">
      <contour>
        <pt x="342" y="550" on="1"/>
        <pt x="224" y="550" on="1"/>
        <pt x="224" y="347" on="1"/>
        <pt x="342" y="347" on="1"/>
        <pt x="466" y="347" on="0"/>
        <pt x="466" y="449" on="1"/>
        <pt x="466" y="550" on="0"/>
      </contour>
      <contour>
        <pt x="363" y="240" on="1"/>
        <pt x="224" y="240" on="1"/>
        <pt x="224" y="0" on="1"/>
        <pt x="86" y="0" on="1"/>
        <pt x="86" y="660" on="1"/>
        <pt x="363" y="660" on="1"/>
        <pt x="478" y="660" on="0"/>
        <pt x="606" y="549" on="0"/>
        <pt x="606" y="448" on="1"/>
        <pt x="606" y="350" on="0"/>
        <pt x="478" y="240" on="0"/>
      </contour>
    </TTGlyph>
    <TTGlyph name="uni0051" xMin="53" yMin="-201" xMax="688" yMax="670">
      <contour>
        <pt x="322" y="20" on="1"/>
        <pt x="418" y="34" on="1"/>
        <pt x="411" y="-41" on="0"/>
        <pt x="475" y="-86" on="0"/>
        <pt x="528" y="-86" on="1"/>
        <pt x="608" y="-86" on="0"/>
        <pt x="649" y="-48" on="1"/>
        <pt x="685" y="-154" on="1"/>
        <pt x="630" y="-201" on="0"/>
        <pt x="523" y="-201" on="1"/>
        <pt x="423" y="-201" on="0"/>
        <pt x="312" y="-91" on="0"/>
      </contour>
      <contour>
        <pt x="53" y="330" on="1"/>
        <pt x="53" y="489" on="0"/>
        <pt x="224" y="670" on="0"/>
        <pt x="371" y="670" on="1"/>
        <pt x="518" y="670" on="0"/>
        <pt x="688" y="489" on="0"/>
        <pt x="688" y="330" on="1"/>
        <pt x="688" y="171" on="0"/>
        <pt x="518" y="-10" on="0"/>
        <pt x="371" y="-10" on="1"/>
        <pt x="224" y="-10" on="0"/>
        <pt x="53" y="171" on="0"/>
      </contour>
      <contour>
        <pt x="545" y="330" on="1"/>
        <pt x="545" y="440" on="0"/>
        <pt x="454" y="557" on="0"/>
        <pt x="371" y="557" on="1"/>
        <pt x="288" y="557" on="0"/>
        <pt x="196" y="440" on="0"/>
        <pt x="196" y="330" on="1"/>
        <pt x="196" y="220" on="0"/>
        <pt x="288" y="103" on="0"/>
        <pt x="371" y="103" on="1"/>
        <pt x="454" y="103" on="0"/>
        <pt x="545" y="220" on="0"/>
      </contour>
    </TTGlyph>
    <TTGlyph name="uni0052" xMin="86" yMin="0" xMax="656" yMax="660">
      <contour>
        <pt x="359" y="550" on="1"/>
        <pt x="222" y="550" on="1"/>
        <pt x="222" y="358" on="1"/>
        <pt x="359" y="358" on="1"/>
        <pt x="476" y="358" on="0"/>
        <pt x="476" y="454" on="1"/>
        <pt x="476" y="550" on="0"/>
      </contour>
      <contour>
        <pt x="501" y="0" on="1"/>
        <pt x="346" y="253" on="1"/>
        <pt x="222" y="253" on="1"/>
        <pt x="222" y="0" on="1"/>
        <pt x="86" y="0" on="1"/>
        <pt x="86" y="660" on="1"/>
        <pt x="377" y="660" on="1"/>
        <pt x="490" y="660" on="0"/>
        <pt x="617" y="554" on="0"/>
        <pt x="617" y="456" on="1"/>
        <pt x="617" y="311" on="0"/>
        <pt x="482" y="268" on="1"/>
        <pt x="656" y="0" on="1"/>
      </contour>
    </TTGlyph>
    <TTGlyph name="uni0052.ss03" xMin="86" yMin="0" xMax="627" yMax="660">
      <contour>
        <pt x="222" y="550" on="1"/>
        <pt x="222" y="358" on="1"/>
        <pt x="359" y="358" on="1"/>
        <pt x="476" y="358" on="0"/>
        <pt x="476" y="454" on="1"/>
        <pt x="476" y="550" on="0"/>
        <pt x="359" y="550" on="1"/>
      </contour>
      <contour>
        <pt x="222" y="0" on="1"/>
        <pt x="86" y="0" on="1"/>
        <pt x="86" y="660" on="1"/>
        <pt x="377" y="660" on="1"/>
        <pt x="490" y="660" on="0"/>
        <pt x="617" y="555" on="0"/>
        <pt x="617" y="460" on="1"/>
        <pt x="617" y="390" on="0"/>
        <pt x="546" y="309" on="0"/>
        <pt x="484" y="292" on="1"/>
        <pt x="484" y="290" on="1"/>
        <pt x="538" y="279" on="0"/>
        <pt x="588" y="214" on="0"/>
        <pt x="592" y="168" on="1"/>
        <pt x="599" y="92" on="0"/>
        <pt x="614" y="26" on="0"/>
        <pt x="627" y="4" on="1"/>
        <pt x="627" y="0" on="1"/>
        <pt x="481" y="0" on="1"/>
        <pt x="471" y="23" on="0"/>
        <pt x="462" y="93" on="0"/>
        <pt x="456" y="155" on="1"/>
        <pt x="446" y="253" on="0"/>
        <pt x="329" y="253" on="1"/>
        <pt x="222" y="253" on="1"/>
      </contour>
    </TTGlyph>
    <TTGlyph name="uni0052.swsh" xMin="10" yMin="-110" xMax="893" yMax="660">
      <contour>
        <pt x="596" y="550" on="1"/>
        <pt x="459" y="550" on="1"/>
        <pt x="459" y="358" on="1"/>
        <pt x="596" y="358" on="1"/>
        <pt x="713" y="358" on="0"/>
        <pt x="713" y="454" on="1"/>
        <pt x="713" y="550" on="0"/>
      </contour>
      <contour>
        <pt x="236" y="-110" on="1"/>
        <pt x="85" y="-110" on="0"/>
        <pt x="46" y="7" on="1"/>
        <pt x="111" y="85" on="1"/>
        <pt x="136" y="-4" on="0"/>
        <pt x="223" y="-4" on="1"/>
        <pt x="270" y="-4" on="0"/>
        <pt x="323" y="58" on="0"/>
        <pt x="323" y="107" on="1"/>
        <pt x="323" y="660" on="1"/>
        <pt x="614" y="660" on="1"/>
        <pt x="727" y="660" on="0"/>
        <pt x="854" y="554" on="0"/>
        <pt x="854" y="456" on="1"/>
        <pt x="854" y="311" on="0"/>
        <pt x="719" y="268" on="1"/>
        <pt x="893" y="0" on="1"/>
        <pt x="738" y="0" on="1"/>
        <pt x="583" y="253" on="1"/>
        <pt x="459" y="253" on="1"/>
        <pt x="459" y="98" on="1"/>
        <pt x="459" y="-1" on="0"/>
        <pt x="340" y="-110" on="0"/>
      </contour>
      <contour>
        <pt x="234" y="364" on="1"/>
        <pt x="191" y="268" on="1"/>
        <pt x="115" y="275" on="0"/>
        <pt x="10" y="379" on="0"/>
        <pt x="10" y="464" on="1"/>
        <pt x="10" y="556" on="0"/>
        <pt x="132" y="660" on="0"/>
        <pt x="241" y="660" on="1"/>
        <pt x="469" y="660" on="1"/>
        <pt x="469" y="557" on="1"/>
        <pt x="252" y="557" on="1"/>
        <pt x="137" y="557" on="0"/>
        <pt x="137" y="462" on="1"/>
        <pt x="137" y="423" on="0"/>
        <pt x="191" y="370" on="0"/>
      </contour>
    </TTGlyph>
    <TTGlyph name="uni0052.swsh.001" xMin="86" yMin="-92" xMax="721" yMax="660">
      <contour>
        <pt x="646" y="-92" on="1"/>
        <pt x="571" y="-66" on="0"/>
        <pt x="496" y="-1" on="0"/>
        <pt x="467" y="41" on="1"/>
        <pt x="319" y="253" on="1"/>
        <pt x="222" y="253" on="1"/>
        <pt x="222" y="0" on="1"/>
        <pt x="86" y="0" on="1"/>
        <pt x="86" y="660" on="1"/>
        <pt x="377" y="660" on="1"/>
        <pt x="490" y="660" on="0"/>
        <pt x="617" y="554" on="0"/>
        <pt x="617" y="456" on="1"/>
        <pt x="617" y="295" on="0"/>
        <pt x="455" y="261" on="1"/>
        <pt x="567" y="107" on="1"/>
        <pt x="598" y="67" on="0"/>
        <pt x="682" y="0" on="0"/>
        <pt x="721" y="-10" on="1"/>
      </contour>
      <contour>
        <pt x="359" y="550" on="1"/>
        <pt x="222" y="550" on="1"/>
        <pt x="222" y="358" on="1"/>
        <pt x="359" y="358" on="1"/>
        <pt x="476" y="358" on="0"/>
        <pt x="476" y="454" on="1"/>
        <pt x="476" y="550" on="0"/>
      </contour>
    </TTGlyph>
    <TTGlyph name="uni0053" xMin="34" yMin="-10" xMax="600" yMax="670">
      <contour>
        <pt x="57" y="462" on="1"/>
        <pt x="57" y="550" on="0"/>
        <pt x="199" y="670" on="0"/>
        <pt x="326" y="670" on="1"/>
        <pt x="503" y="670" on="0"/>
        <pt x="600" y="543" on="1"/>
        <pt x="519" y="453" on="1"/>
        <pt x="483" y="510" on="0"/>
        <pt x="396" y="559" on="0"/>
        <pt x="330" y="559" on="1"/>
        <pt x="268" y="559" on="0"/>
        <pt x="199" y="510" on="0"/>
        <pt x="199" y="475" on="1"/>
        <pt x="199" y="441" on="0"/>
        <pt x="268" y="404" on="0"/>
        <pt x="347" y="390" on="1"/>
        <pt x="485" y="366" on="0"/>
        <pt x="599" y="271" on="0"/>
        <pt x="599" y="188" on="1"/>
        <pt x="599" y="95" on="0"/>
        <pt x="447" y="-10" on="0"/>
        <pt x="329" y="-10" on="1"/>
        <pt x="217" y="-10" on="0"/>
        <pt x="78" y="59" on="0"/>
        <pt x="34" y="114" on="1"/>
        <pt x="114" y="209" on="1"/>
        <pt x="146" y="158" on="0"/>
        <pt x="249" y="101" on="0"/>
        <pt x="324" y="101" on="1"/>
        <pt x="457" y="101" on="0"/>
        <pt x="457" y="180" on="1"/>
        <pt x="457" y="214" on="0"/>
        <pt x="387" y="253" on="0"/>
        <pt x="307" y="267" on="1"/>
        <pt x="194" y="287" on="0"/>
        <pt x="57" y="369" on="0"/>
      </contour>
    </TTGlyph>
    <TTGlyph name="uni0053.swsh" xMin="48" yMin="-110" xMax="602" yMax="670">
      <contour>
        <pt x="602" y="115" on="1"/>
        <pt x="602" y="9" on="0"/>
        <pt x="445" y="-110" on="0"/>
        <pt x="318" y="-110" on="1"/>
        <pt x="191" y="-110" on="0"/>
        <pt x="48" y="-13" on="0"/>
        <pt x="48" y="70" on="1"/>
        <pt x="48" y="84" on="0"/>
        <pt x="51" y="107" on="0"/>
        <pt x="52" y="117" on="1"/>
        <pt x="176" y="150" on="1"/>
        <pt x="171" y="125" on="0"/>
        <pt x="171" y="111" on="1"/>
        <pt x="171" y="3" on="0"/>
        <pt x="327" y="3" on="1"/>
        <pt x="469" y="3" on="0"/>
        <pt x="469" y="108" on="1"/>
        <pt x="469" y="149" on="0"/>
        <pt x="400" y="200" on="0"/>
        <pt x="305" y="222" on="1"/>
        <pt x="171" y="252" on="0"/>
        <pt x="60" y="356" on="0"/>
        <pt x="60" y="444" on="1"/>
        <pt x="60" y="545" on="0"/>
        <pt x="205" y="670" on="0"/>
        <pt x="333" y="670" on="1"/>
        <pt x="575" y="670" on="0"/>
        <pt x="590" y="475" on="1"/>
        <pt x="463" y="426" on="1"/>
        <pt x="462" y="491" on="0"/>
        <pt x="400" y="557" on="0"/>
        <pt x="331" y="557" on="1"/>
        <pt x="203" y="557" on="0"/>
        <pt x="203" y="448" on="1"/>
        <pt x="203" y="405" on="0"/>
        <pt x="275" y="350" on="0"/>
        <pt x="369" y="326" on="1"/>
        <pt x="498" y="295" on="0"/>
        <pt x="602" y="200" on="0"/>
      </contour>
    </TTGlyph>
    <TTGlyph name="uni0054" xMin="27" yMin="0" xMax="608" yMax="660">
      <contour>
        <pt x="608" y="549" on="1"/>
        <pt x="387" y="549" on="1"/>
        <pt x="387" y="0" on="1"/>
        <pt x="249" y="0" on="1"/>
        <pt x="249" y="549" on="1"/>
        <pt x="27" y="549" on="1"/>
        <pt x="27" y="660" on="1"/>
        <pt x="608" y="660" on="1"/>
      </contour>
    </TTGlyph>
    <TTGlyph name="uni0054.swsh" xMin="10" yMin="0" xMax="733" yMax="660">
      <contour>
        <pt x="733" y="549" on="1"/>
        <pt x="512" y="549" on="1"/>
        <pt x="512" y="0" on="1"/>
        <pt x="374" y="0" on="1"/>
        <pt x="374" y="549" on="1"/>
        <pt x="255" y="549" on="1"/>
        <pt x="137" y="549" on="0"/>
        <pt x="137" y="462" on="1"/>
        <pt x="137" y="377" on="0"/>
        <pt x="234" y="364" on="1"/>
        <pt x="191" y="268" on="1"/>
        <pt x="115" y="275" on="0"/>
        <pt x="10" y="381" on="0"/>
        <pt x="10" y="464" on="1"/>
        <pt x="10" y="556" on="0"/>
        <pt x="132" y="660" on="0"/>
        <pt x="241" y="660" on="1"/>
        <pt x="733" y="660" on="1"/>
      </contour>
    </TTGlyph>
    <TTGlyph name="uni0055" xMin="76" yMin="-10" xMax="640" yMax="660">
      <contour>
        <pt x="501" y="660" on="1"/>
        <pt x="640" y="660" on="1"/>
        <pt x="640" y="260" on="1"/>
        <pt x="640" y="-10" on="0"/>
        <pt x="358" y="-10" on="1"/>
        <pt x="76" y="-10" on="0"/>
        <pt x="76" y="260" on="1"/>
        <pt x="76" y="660" on="1"/>
        <pt x="214" y="660" on="1"/>
        <pt x="214" y="266" on="1"/>
        <pt x="214" y="103" on="0"/>
        <pt x="358" y="103" on="1"/>
        <pt x="501" y="103" on="0"/>
        <pt x="501" y="266" on="1"/>
      </contour>
    </TTGlyph>
    <TTGlyph name="uni0056" xMin="14" yMin="0" xMax="656" yMax="660">
      <contour>
        <pt x="514" y="660" on="1"/>
        <pt x="656" y="660" on="1"/>
        <pt x="416" y="0" on="1"/>
        <pt x="255" y="0" on="1"/>
        <pt x="14" y="660" on="1"/>
        <pt x="160" y="660" on="1"/>
        <pt x="299" y="240" on="1"/>
        <pt x="337" y="110" on="1"/>
        <pt x="374" y="239" on="1"/>
      </contour>
    </TTGlyph>
    <TTGlyph name="uni0057" xMin="19" yMin="0" xMax="964" yMax="660">
      <contour>
        <pt x="492" y="516" on="1"/>
        <pt x="461" y="360" on="1"/>
        <pt x="370" y="0" on="1"/>
        <pt x="211" y="0" on="1"/>
        <pt x="19" y="660" on="1"/>
        <pt x="168" y="660" on="1"/>
        <pt x="296" y="109" on="1"/>
        <pt x="428" y="660" on="1"/>
        <pt x="560" y="660" on="1"/>
        <pt x="694" y="109" on="1"/>
        <pt x="822" y="660" on="1"/>
        <pt x="964" y="660" on="1"/>
        <pt x="772" y="0" on="1"/>
        <pt x="617" y="0" on="1"/>
        <pt x="525" y="360" on="1"/>
        <pt x="494" y="516" on="1"/>
      </contour>
    </TTGlyph>
    <TTGlyph name="uni0057.swsh" xMin="10" yMin="0" xMax="1244" yMax="660">
      <contour>
        <pt x="235" y="364" on="1"/>
        <pt x="191" y="268" on="1"/>
        <pt x="115" y="274" on="0"/>
        <pt x="10" y="379" on="0"/>
        <pt x="10" y="464" on="1"/>
        <pt x="10" y="556" on="0"/>
        <pt x="132" y="660" on="0"/>
        <pt x="241" y="660" on="1"/>
        <pt x="372" y="660" on="1"/>
        <pt x="372" y="557" on="1"/>
        <pt x="253" y="557" on="1"/>
        <pt x="137" y="557" on="0"/>
        <pt x="137" y="462" on="1"/>
        <pt x="137" y="377" on="0"/>
      </contour>
      <contour>
        <pt x="772" y="516" on="1"/>
        <pt x="741" y="360" on="1"/>
        <pt x="650" y="0" on="1"/>
        <pt x="491" y="0" on="1"/>
        <pt x="299" y="660" on="1"/>
        <pt x="448" y="660" on="1"/>
        <pt x="576" y="109" on="1"/>
        <pt x="708" y="660" on="1"/>
        <pt x="840" y="660" on="1"/>
        <pt x="974" y="109" on="1"/>
        <pt x="1102" y="660" on="1"/>
        <pt x="1244" y="660" on="1"/>
        <pt x="1052" y="0" on="1"/>
        <pt x="897" y="0" on="1"/>
        <pt x="805" y="360" on="1"/>
        <pt x="774" y="516" on="1"/>
      </contour>
    </TTGlyph>
    <TTGlyph name="uni0058" xMin="16" yMin="0" xMax="624" yMax="660">
      <contour>
        <pt x="459" y="0" on="1"/>
        <pt x="316" y="239" on="1"/>
        <pt x="174" y="0" on="1"/>
        <pt x="16" y="0" on="1"/>
        <pt x="243" y="333" on="1"/>
        <pt x="32" y="660" on="1"/>
        <pt x="195" y="660" on="1"/>
        <pt x="329" y="431" on="1"/>
        <pt x="463" y="660" on="1"/>
        <pt x="612" y="660" on="1"/>
        <pt x="401" y="338" on="1"/>
        <pt x="624" y="0" on="1"/>
      </contour>
    </TTGlyph>
    <TTGlyph name="uni0059" xMin="10" yMin="0" xMax="616" yMax="660">
      <contour>
        <pt x="470" y="660" on="1"/>
        <pt x="616" y="660" on="1"/>
        <pt x="382" y="247" on="1"/>
        <pt x="382" y="0" on="1"/>
        <pt x="244" y="0" on="1"/>
        <pt x="244" y="247" on="1"/>
        <pt x="10" y="660" on="1"/>
        <pt x="157" y="660" on="1"/>
        <pt x="263" y="463" on="1"/>
        <pt x="313" y="359" on="1"/>
        <pt x="364" y="463" on="1"/>
      </contour>
    </TTGlyph>
    <TTGlyph name="uni005A" xMin="44" yMin="0" xMax="593" yMax="660">
      <contour>
        <pt x="593" y="0" on="1"/>
        <pt x="44" y="0" on="1"/>
        <pt x="44" y="104" on="1"/>
        <pt x="429" y="550" on="1"/>
        <pt x="52" y="550" on="1"/>
        <pt x="52" y="660" on="1"/>
        <pt x="581" y="660" on="1"/>
        <pt x="581" y="556" on="1"/>
        <pt x="197" y="110" on="1"/>
        <pt x="593" y="110" on="1"/>
      </contour>
    </TTGlyph>
    <TTGlyph name="uni005B" xMin="86" yMin="-168" xMax="347" yMax="719">
      <contour>
        <pt x="86" y="-168" on="1"/>
        <pt x="86" y="719" on="1"/>
        <pt x="347" y="719" on="1"/>
        <pt x="347" y="618" on="1"/>
        <pt x="206" y="618" on="1"/>
        <pt x="206" y="-67" on="1"/>
        <pt x="347" y="-67" on="1"/>
        <pt x="347" y="-168" on="1"/>
      </contour>
    </TTGlyph>
    <TTGlyph name="uni005B.case" xMin="86" yMin="-97" xMax="347" yMax="752">
      <contour>
        <pt x="86" y="-97" on="1"/>
        <pt x="86" y="752" on="1"/>
        <pt x="347" y="752" on="1"/>
        <pt x="347" y="651" on="1"/>
        <pt x="206" y="651" on="1"/>
        <pt x="206" y="4" on="1"/>
        <pt x="347" y="4" on="1"/>
        <pt x="347" y="-97" on="1"/>
      </contour>
    </TTGlyph>
    <TTGlyph name="uni005C" xMin="20" yMin="-70" xMax="437" yMax="719">
      <component glyphName="uni002F" x="457" y="0" scalex="-1.0" scaley="1.0" flags="0x4"/>
    </TTGlyph>
    <TTGlyph name="uni005D" xMin="28" yMin="-168" xMax="289" yMax="719">
      <component glyphName="uni005B" x="375" y="0" scalex="-1.0" scaley="1.0" flags="0x4"/>
    </TTGlyph>
    <TTGlyph name="uni005D.case" xMin="28" yMin="-97" xMax="289" yMax="752">
      <component glyphName="uni005B.case" x="375" y="0" scalex="-1.0" scaley="1.0" flags="0x4"/>
    </TTGlyph>
    <TTGlyph name="uni005E" xMin="25" yMin="355" xMax="568" yMax="726">
      <contour>
        <pt x="443" y="355" on="1"/>
        <pt x="297" y="634" on="1"/>
        <pt x="150" y="355" on="1"/>
        <pt x="25" y="355" on="1"/>
        <pt x="237" y="726" on="1"/>
        <pt x="356" y="726" on="1"/>
        <pt x="568" y="355" on="1"/>
      </contour>
    </TTGlyph>
    <TTGlyph name="uni005F" xMin="0" yMin="-190" xMax="539" yMax="-77">
      <contour>
        <pt x="0" y="-77" on="1"/>
        <pt x="539" y="-77" on="1"/>
        <pt x="539" y="-190" on="1"/>
        <pt x="0" y="-190" on="1"/>
      </contour>
    </TTGlyph>
    <TTGlyph name="uni0060" xMin="106" yMin="572" xMax="308" yMax="742">
      <contour>
        <pt x="106" y="742" on="1"/>
        <pt x="238" y="742" on="1"/>
        <pt x="308" y="572" on="1"/>
        <pt x="206" y="572" on="1"/>
      </contour>
    </TTGlyph>
    <TTGlyph name="uni0061" xMin="41" yMin="-10" xMax="564" yMax="510">
      <contour>
        <pt x="488" y="-10" on="1"/>
        <pt x="390" y="-10" on="0"/>
        <pt x="373" y="68" on="1"/>
        <pt x="322" y="-10" on="0"/>
        <pt x="205" y="-10" on="1"/>
        <pt x="132" y="-10" on="0"/>
        <pt x="41" y="55" on="0"/>
        <pt x="41" y="118" on="1"/>
        <pt x="41" y="240" on="0"/>
        <pt x="236" y="276" on="1"/>
        <pt x="357" y="299" on="1"/>
        <pt x="357" y="323" on="1"/>
        <pt x="357" y="410" on="0"/>
        <pt x="267" y="410" on="1"/>
        <pt x="183" y="410" on="0"/>
        <pt x="158" y="328" on="1"/>
        <pt x="49" y="366" on="1"/>
        <pt x="64" y="432" on="0"/>
        <pt x="181" y="510" on="0"/>
        <pt x="272" y="510" on="1"/>
        <pt x="376" y="510" on="0"/>
        <pt x="493" y="419" on="0"/>
        <pt x="493" y="326" on="1"/>
        <pt x="493" y="121" on="1"/>
        <pt x="493" y="83" on="0"/>
        <pt x="529" y="83" on="1"/>
        <pt x="551" y="83" on="0"/>
        <pt x="564" y="87" on="1"/>
        <pt x="554" y="4" on="1"/>
        <pt x="526" y="-10" on="0"/>
      </contour>
      <contour>
        <pt x="245" y="81" on="1"/>
        <pt x="289" y="81" on="0"/>
        <pt x="357" y="126" on="0"/>
        <pt x="357" y="166" on="1"/>
        <pt x="357" y="228" on="1"/>
        <pt x="275" y="211" on="1"/>
        <pt x="175" y="191" on="0"/>
        <pt x="175" y="134" on="1"/>
        <pt x="175" y="81" on="0"/>
      </contour>
    </TTGlyph>
    <TTGlyph name="uni0061.sc" xMin="13" yMin="0" xMax="604" yMax="560">
      <contour>
        <pt x="264" y="320" on="1"/>
        <pt x="230" y="227" on="1"/>
        <pt x="383" y="227" on="1"/>
        <pt x="349" y="320" on="1"/>
        <pt x="308" y="456" on="1"/>
        <pt x="305" y="456" on="1"/>
      </contour>
      <contour>
        <pt x="466" y="0" on="1"/>
        <pt x="418" y="130" on="1"/>
        <pt x="194" y="130" on="1"/>
        <pt x="146" y="0" on="1"/>
        <pt x="13" y="0" on="1"/>
        <pt x="226" y="560" on="1"/>
        <pt x="390" y="560" on="1"/>
        <pt x="604" y="0" on="1"/>
      </contour>
    </TTGlyph>
    <TTGlyph name="uni0062" xMin="72" yMin="-10" xMax="580" yMax="719">
      <contour>
        <pt x="193" y="0" on="1"/>
        <pt x="72" y="0" on="1"/>
        <pt x="72" y="719" on="1"/>
        <pt x="209" y="719" on="1"/>
        <pt x="209" y="186" on="1"/>
        <pt x="200" y="135" on="1"/>
      </contour>
      <contour>
        <pt x="580" y="249" on="1"/>
        <pt x="580" y="372" on="0"/>
        <pt x="465" y="510" on="0"/>
        <pt x="366" y="510" on="1"/>
        <pt x="281" y="510" on="0"/>
        <pt x="186" y="397" on="0"/>
        <pt x="186" y="315" on="1"/>
        <pt x="209" y="255" on="1"/>
        <pt x="209" y="326" on="0"/>
        <pt x="271" y="405" on="0"/>
        <pt x="325" y="405" on="1"/>
        <pt x="442" y="405" on="0"/>
        <pt x="442" y="250" on="1"/>
        <pt x="442" y="95" on="0"/>
        <pt x="325" y="95" on="1"/>
        <pt x="272" y="95" on="0"/>
        <pt x="209" y="172" on="0"/>
        <pt x="209" y="245" on="1"/>
        <pt x="180" y="185" on="1"/>
        <pt x="180" y="104" on="0"/>
        <pt x="281" y="-10" on="0"/>
        <pt x="366" y="-10" on="1"/>
        <pt x="466" y="-10" on="0"/>
        <pt x="580" y="127" on="0"/>
      </contour>
    </TTGlyph>
    <TTGlyph name="uni0062.sc" xMin="78" yMin="0" xMax="571" yMax="560">
      <contour>
        <pt x="361" y="0" on="1"/>
        <pt x="78" y="0" on="1"/>
        <pt x="78" y="560" on="1"/>
        <pt x="352" y="560" on="1"/>
        <pt x="555" y="560" on="0"/>
        <pt x="555" y="409" on="1"/>
        <pt x="555" y="305" on="0"/>
        <pt x="445" y="282" on="1"/>
        <pt x="445" y="281" on="1"/>
        <pt x="509" y="274" on="0"/>
        <pt x="571" y="202" on="0"/>
        <pt x="571" y="151" on="1"/>
        <pt x="571" y="0" on="0"/>
      </contour>
      <contour>
        <pt x="209" y="465" on="1"/>
        <pt x="209" y="327" on="1"/>
        <pt x="330" y="327" on="1"/>
        <pt x="419" y="327" on="0"/>
        <pt x="419" y="396" on="1"/>
        <pt x="419" y="465" on="0"/>
        <pt x="330" y="465" on="1"/>
      </contour>
      <contour>
        <pt x="209" y="236" on="1"/>
        <pt x="209" y="95" on="1"/>
        <pt x="343" y="95" on="1"/>
        <pt x="435" y="95" on="0"/>
        <pt x="435" y="165" on="1"/>
        <pt x="435" y="236" on="0"/>
        <pt x="343" y="236" on="1"/>
      </contour>
    </TTGlyph>
    <TTGlyph name="uni0063" xMin="46" yMin="-10" xMax="532" yMax="510">
      <contour>
        <pt x="46" y="250" on="1"/>
        <pt x="46" y="373" on="0"/>
        <pt x="181" y="510" on="0"/>
        <pt x="301" y="510" on="1"/>
        <pt x="407" y="510" on="0"/>
        <pt x="512" y="425" on="0"/>
        <pt x="530" y="363" on="1"/>
        <pt x="402" y="317" on="1"/>
        <pt x="384" y="408" on="0"/>
        <pt x="305" y="408" on="1"/>
        <pt x="183" y="408" on="0"/>
        <pt x="183" y="249" on="1"/>
        <pt x="183" y="169" on="0"/>
        <pt x="249" y="92" on="0"/>
        <pt x="304" y="92" on="1"/>
        <pt x="392" y="92" on="0"/>
        <pt x="408" y="181" on="1"/>
        <pt x="532" y="141" on="1"/>
        <pt x="516" y="74" on="0"/>
        <pt x="401" y="-10" on="0"/>
        <pt x="306" y="-10" on="1"/>
        <pt x="182" y="-10" on="0"/>
        <pt x="46" y="127" on="0"/>
      </contour>
    </TTGlyph>
    <TTGlyph name="uni0063.sc" xMin="47" yMin="-8" xMax="586" yMax="568">
      <contour>
        <pt x="462" y="198" on="1"/>
        <pt x="586" y="162" on="1"/>
        <pt x="570" y="83" on="0"/>
        <pt x="433" y="-8" on="0"/>
        <pt x="329" y="-8" on="1"/>
        <pt x="199" y="-8" on="0"/>
        <pt x="47" y="144" on="0"/>
        <pt x="47" y="280" on="1"/>
        <pt x="47" y="416" on="0"/>
        <pt x="200" y="568" on="0"/>
        <pt x="333" y="568" on="1"/>
        <pt x="426" y="568" on="0"/>
        <pt x="560" y="484" on="0"/>
        <pt x="579" y="402" on="1"/>
        <pt x="454" y="361" on="1"/>
        <pt x="445" y="415" on="0"/>
        <pt x="383" y="461" on="0"/>
        <pt x="332" y="461" on="1"/>
        <pt x="265" y="461" on="0"/>
        <pt x="184" y="369" on="0"/>
        <pt x="184" y="280" on="1"/>
        <pt x="184" y="192" on="0"/>
        <pt x="266" y="99" on="0"/>
        <pt x="331" y="99" on="1"/>
        <pt x="447" y="99" on="0"/>
      </contour>
    </TTGlyph>
    <TTGlyph name="uni00630074" xMin="46" yMin="-10" xMax="921" yMax="727">
      <contour>
        <pt x="921" y="31" on="1"/>
        <pt x="871" y="-10" on="0"/>
        <pt x="785" y="-10" on="1"/>
        <pt x="711" y="-10" on="0"/>
        <pt x="617" y="59" on="0"/>
        <pt x="617" y="141" on="1"/>
        <pt x="617" y="523" on="1"/>
        <pt x="617" y="579" on="0"/>
        <pt x="577" y="625" on="0"/>
        <pt x="547" y="625" on="1"/>
        <pt x="518" y="625" on="0"/>
        <pt x="479" y="587" on="0"/>
        <pt x="479" y="534" on="1"/>
        <pt x="479" y="491" on="0"/>
        <pt x="510" y="401" on="0"/>
        <pt x="529" y="363" on="1"/>
        <pt x="401" y="317" on="1"/>
        <pt x="382" y="408" on="0"/>
        <pt x="305" y="408" on="1"/>
        <pt x="183" y="408" on="0"/>
        <pt x="183" y="249" on="1"/>
        <pt x="183" y="169" on="0"/>
        <pt x="249" y="92" on="0"/>
        <pt x="304" y="92" on="1"/>
        <pt x="388" y="92" on="0"/>
        <pt x="408" y="181" on="1"/>
        <pt x="531" y="141" on="1"/>
        <pt x="516" y="74" on="0"/>
        <pt x="401" y="-10" on="0"/>
        <pt x="306" y="-10" on="1"/>
        <pt x="182" y="-10" on="0"/>
        <pt x="46" y="127" on="0"/>
        <pt x="46" y="250" on="1"/>
        <pt x="46" y="373" on="0"/>
        <pt x="181" y="510" on="0"/>
        <pt x="301" y="510" on="1"/>
        <pt x="347" y="510" on="0"/>
        <pt x="386" y="494" on="1"/>
        <pt x="373" y="522" on="0"/>
        <pt x="373" y="559" on="1"/>
        <pt x="373" y="645" on="0"/>
        <pt x="480" y="727" on="0"/>
        <pt x="559" y="727" on="1"/>
        <pt x="632" y="727" on="0"/>
        <pt x="754" y="647" on="0"/>
        <pt x="754" y="553" on="1"/>
        <pt x="754" y="500" on="1"/>
        <pt x="917" y="500" on="1"/>
        <pt x="917" y="398" on="1"/>
        <pt x="754" y="398" on="1"/>
        <pt x="754" y="163" on="1"/>
        <pt x="754" y="94" on="0"/>
        <pt x="823" y="94" on="1"/>
        <pt x="867" y="94" on="0"/>
        <pt x="900" y="122" on="1"/>
      </contour>
    </TTGlyph>
    <TTGlyph name="uni0064" xMin="49" yMin="-10" xMax="556" yMax="719">
      <contour>
        <pt x="556" y="0" on="1"/>
        <pt x="434" y="0" on="1"/>
        <pt x="425" y="134" on="1"/>
        <pt x="419" y="159" on="1"/>
        <pt x="419" y="719" on="1"/>
        <pt x="556" y="719" on="1"/>
      </contour>
      <contour>
        <pt x="49" y="249" on="1"/>
        <pt x="49" y="372" on="0"/>
        <pt x="164" y="510" on="0"/>
        <pt x="263" y="510" on="1"/>
        <pt x="348" y="510" on="0"/>
        <pt x="443" y="397" on="0"/>
        <pt x="443" y="315" on="1"/>
        <pt x="420" y="255" on="1"/>
        <pt x="420" y="326" on="0"/>
        <pt x="358" y="405" on="0"/>
        <pt x="304" y="405" on="1"/>
        <pt x="187" y="405" on="0"/>
        <pt x="187" y="250" on="1"/>
        <pt x="187" y="95" on="0"/>
        <pt x="304" y="95" on="1"/>
        <pt x="357" y="95" on="0"/>
        <pt x="420" y="172" on="0"/>
        <pt x="420" y="245" on="1"/>
        <pt x="449" y="185" on="1"/>
        <pt x="449" y="104" on="0"/>
        <pt x="348" y="-10" on="0"/>
        <pt x="263" y="-10" on="1"/>
        <pt x="163" y="-10" on="0"/>
        <pt x="49" y="127" on="0"/>
      </contour>
    </TTGlyph>
    <TTGlyph name="uni0064.sc" xMin="78" yMin="0" xMax="604" yMax="560">
      <contour>
        <pt x="313" y="455" on="1"/>
        <pt x="214" y="455" on="1"/>
        <pt x="214" y="105" on="1"/>
        <pt x="313" y="105" on="1"/>
        <pt x="467" y="105" on="0"/>
        <pt x="467" y="281" on="1"/>
        <pt x="467" y="455" on="0"/>
      </contour>
      <contour>
        <pt x="78" y="0" on="1"/>
        <pt x="78" y="560" on="1"/>
        <pt x="311" y="560" on="1"/>
        <pt x="451" y="560" on="0"/>
        <pt x="604" y="414" on="0"/>
        <pt x="604" y="281" on="1"/>
        <pt x="604" y="147" on="0"/>
        <pt x="451" y="0" on="0"/>
        <pt x="311" y="0" on="1"/>
      </contour>
    </TTGlyph>
    <TTGlyph name="uni0065" xMin="46" yMin="-10" xMax="538" yMax="510">
      <contour>
        <pt x="298" y="409" on="1"/>
        <pt x="195" y="409" on="0"/>
        <pt x="180" y="291" on="1"/>
        <pt x="408" y="291" on="1"/>
        <pt x="394" y="409" on="0"/>
      </contour>
      <contour>
        <pt x="528" y="113" on="1"/>
        <pt x="479" y="-10" on="0"/>
        <pt x="306" y="-10" on="1"/>
        <pt x="182" y="-10" on="0"/>
        <pt x="46" y="127" on="0"/>
        <pt x="46" y="250" on="1"/>
        <pt x="46" y="373" on="0"/>
        <pt x="177" y="510" on="0"/>
        <pt x="298" y="510" on="1"/>
        <pt x="415" y="510" on="0"/>
        <pt x="538" y="374" on="0"/>
        <pt x="538" y="272" on="1"/>
        <pt x="538" y="237" on="0"/>
        <pt x="533" y="215" on="1"/>
        <pt x="179" y="215" on="1"/>
        <pt x="192" y="92" on="0"/>
        <pt x="306" y="92" on="1"/>
        <pt x="394" y="92" on="0"/>
        <pt x="416" y="154" on="1"/>
      </contour>
    </TTGlyph>
    <TTGlyph name="uni0065.sc" xMin="78" yMin="0" xMax="541" yMax="560">
      <contour>
        <pt x="78" y="0" on="1"/>
        <pt x="78" y="560" on="1"/>
        <pt x="532" y="560" on="1"/>
        <pt x="532" y="459" on="1"/>
        <pt x="214" y="459" on="1"/>
        <pt x="214" y="331" on="1"/>
        <pt x="462" y="331" on="1"/>
        <pt x="462" y="234" on="1"/>
        <pt x="214" y="234" on="1"/>
        <pt x="214" y="101" on="1"/>
        <pt x="541" y="101" on="1"/>
        <pt x="541" y="0" on="1"/>
      </contour>
    </TTGlyph>
    <TTGlyph name="uni0066" xMin="21" yMin="0" xMax="401" yMax="729">
      <contour>
        <pt x="397" y="398" on="1"/>
        <pt x="245" y="398" on="1"/>
        <pt x="245" y="0" on="1"/>
        <pt x="108" y="0" on="1"/>
        <pt x="108" y="398" on="1"/>
        <pt x="21" y="398" on="1"/>
        <pt x="21" y="500" on="1"/>
        <pt x="108" y="500" on="1"/>
        <pt x="108" y="560" on="1"/>
        <pt x="108" y="645" on="0"/>
        <pt x="213" y="729" on="0"/>
        <pt x="297" y="729" on="1"/>
        <pt x="367" y="729" on="0"/>
        <pt x="401" y="703" on="1"/>
        <pt x="382" y="612" on="1"/>
        <pt x="360" y="627" on="0"/>
        <pt x="325" y="627" on="1"/>
        <pt x="239" y="627" on="0"/>
        <pt x="239" y="550" on="1"/>
        <pt x="239" y="500" on="1"/>
        <pt x="397" y="500" on="1"/>
      </contour>
    </TTGlyph>
    <TTGlyph name="uni0066.sc" xMin="78" yMin="0" xMax="532" yMax="560">
      <contour>
        <pt x="462" y="226" on="1"/>
        <pt x="214" y="226" on="1"/>
        <pt x="214" y="0" on="1"/>
        <pt x="78" y="0" on="1"/>
        <pt x="78" y="560" on="1"/>
        <pt x="532" y="560" on="1"/>
        <pt x="532" y="459" on="1"/>
        <pt x="214" y="459" on="1"/>
        <pt x="214" y="327" on="1"/>
        <pt x="462" y="327" on="1"/>
      </contour>
    </TTGlyph>
    <TTGlyph name="uni0067" xMin="25" yMin="-215" xMax="549" yMax="623">
      <contour>
        <pt x="379" y="465" on="1"/>
        <pt x="378" y="530" on="0"/>
        <pt x="458" y="623" on="0"/>
        <pt x="531" y="619" on="1"/>
        <pt x="549" y="521" on="1"/>
        <pt x="494" y="526" on="0"/>
        <pt x="434" y="483" on="0"/>
        <pt x="435" y="445" on="1"/>
      </contour>
      <contour>
        <pt x="373" y="341" on="1"/>
        <pt x="373" y="423" on="0"/>
        <pt x="279" y="423" on="1"/>
        <pt x="184" y="423" on="0"/>
        <pt x="184" y="341" on="1"/>
        <pt x="184" y="258" on="0"/>
        <pt x="279" y="258" on="1"/>
        <pt x="373" y="258" on="0"/>
      </contour>
      <contour>
        <pt x="545" y="-45" on="1"/>
        <pt x="545" y="-127" on="0"/>
        <pt x="396" y="-215" on="0"/>
        <pt x="275" y="-215" on="1"/>
        <pt x="143" y="-215" on="0"/>
        <pt x="25" y="-147" on="0"/>
        <pt x="25" y="-92" on="1"/>
        <pt x="25" y="-17" on="0"/>
        <pt x="109" y="8" on="1"/>
        <pt x="81" y="23" on="0"/>
        <pt x="43" y="71" on="0"/>
        <pt x="43" y="105" on="1"/>
        <pt x="43" y="141" on="0"/>
        <pt x="88" y="193" on="0"/>
        <pt x="124" y="206" on="1"/>
        <pt x="47" y="250" on="0"/>
        <pt x="47" y="340" on="1"/>
        <pt x="47" y="420" on="0"/>
        <pt x="170" y="510" on="0"/>
        <pt x="279" y="510" on="1"/>
        <pt x="388" y="510" on="0"/>
        <pt x="510" y="420" on="0"/>
        <pt x="510" y="340" on="1"/>
        <pt x="510" y="261" on="0"/>
        <pt x="388" y="171" on="0"/>
        <pt x="279" y="171" on="1"/>
        <pt x="230" y="171" on="0"/>
        <pt x="190" y="180" on="1"/>
        <pt x="145" y="171" on="0"/>
        <pt x="145" y="137" on="1"/>
        <pt x="145" y="94" on="0"/>
        <pt x="221" y="94" on="1"/>
        <pt x="369" y="94" on="1"/>
        <pt x="452" y="94" on="0"/>
        <pt x="545" y="23" on="0"/>
      </contour>
      <contour>
        <pt x="286" y="-121" on="1"/>
        <pt x="362" y="-121" on="0"/>
        <pt x="434" y="-85" on="0"/>
        <pt x="434" y="-59" on="1"/>
        <pt x="434" y="-40" on="0"/>
        <pt x="399" y="-17" on="0"/>
        <pt x="355" y="-17" on="1"/>
        <pt x="222" y="-17" on="1"/>
        <pt x="134" y="-17" on="0"/>
        <pt x="134" y="-64" on="1"/>
        <pt x="134" y="-121" on="0"/>
      </contour>
    </TTGlyph>
    <TTGlyph name="uni0067.sc" xMin="47" yMin="-8" xMax="590" yMax="568">
      <contour>
        <pt x="498" y="0" on="1"/>
        <pt x="493" y="83" on="1"/>
        <pt x="471" y="43" on="0"/>
        <pt x="385" y="-8" on="0"/>
        <pt x="318" y="-8" on="1"/>
        <pt x="197" y="-8" on="0"/>
        <pt x="47" y="144" on="0"/>
        <pt x="47" y="280" on="1"/>
        <pt x="47" y="416" on="0"/>
        <pt x="203" y="568" on="0"/>
        <pt x="336" y="568" on="1"/>
        <pt x="531" y="568" on="0"/>
        <pt x="588" y="417" on="1"/>
        <pt x="469" y="374" on="1"/>
        <pt x="454" y="422" on="0"/>
        <pt x="387" y="464" on="0"/>
        <pt x="340" y="464" on="1"/>
        <pt x="270" y="464" on="0"/>
        <pt x="183" y="369" on="0"/>
        <pt x="183" y="280" on="1"/>
        <pt x="183" y="94" on="0"/>
        <pt x="345" y="94" on="1"/>
        <pt x="405" y="94" on="0"/>
        <pt x="474" y="151" on="0"/>
        <pt x="474" y="200" on="1"/>
        <pt x="474" y="212" on="1"/>
        <pt x="330" y="212" on="1"/>
        <pt x="330" y="294" on="1"/>
        <pt x="590" y="294" on="1"/>
        <pt x="590" y="0" on="1"/>
      </contour>
    </TTGlyph>
    <TTGlyph name="uni0067.sc.ss04" xMin="49" yMin="-8" xMax="596" yMax="568">
      <contour>
        <pt x="596" y="244" on="1"/>
        <pt x="596" y="123" on="0"/>
        <pt x="465" y="-8" on="0"/>
        <pt x="337" y="-8" on="1"/>
        <pt x="204" y="-8" on="0"/>
        <pt x="49" y="143" on="0"/>
        <pt x="49" y="279" on="1"/>
        <pt x="49" y="414" on="0"/>
        <pt x="204" y="568" on="0"/>
        <pt x="338" y="568" on="1"/>
        <pt x="430" y="568" on="0"/>
        <pt x="561" y="495" on="0"/>
        <pt x="590" y="417" on="1"/>
        <pt x="470" y="377" on="1"/>
        <pt x="441" y="464" on="0"/>
        <pt x="341" y="464" on="1"/>
        <pt x="271" y="464" on="0"/>
        <pt x="186" y="368" on="0"/>
        <pt x="186" y="280" on="1"/>
        <pt x="186" y="94" on="0"/>
        <pt x="344" y="94" on="1"/>
        <pt x="418" y="94" on="0"/>
        <pt x="480" y="168" on="0"/>
        <pt x="480" y="208" on="1"/>
        <pt x="480" y="212" on="1"/>
        <pt x="332" y="212" on="1"/>
        <pt x="332" y="294" on="1"/>
        <pt x="596" y="294" on="1"/>
      </contour>
    </TTGlyph>
    <TTGlyph name="uni0067.ss01" xMin="48" yMin="-215" xMax="556" yMax="510">
      <contour>
        <pt x="303" y="113" on="1"/>
        <pt x="356" y="113" on="0"/>
        <pt x="419" y="187" on="0"/>
        <pt x="419" y="254" on="1"/>
        <pt x="419" y="264" on="1"/>
        <pt x="419" y="331" on="0"/>
        <pt x="357" y="405" on="0"/>
        <pt x="303" y="405" on="1"/>
        <pt x="186" y="405" on="0"/>
        <pt x="186" y="259" on="1"/>
        <pt x="186" y="113" on="0"/>
      </contour>
      <contour>
        <pt x="286" y="-215" on="1"/>
        <pt x="201" y="-215" on="0"/>
        <pt x="77" y="-155" on="0"/>
        <pt x="63" y="-78" on="1"/>
        <pt x="194" y="-38" on="1"/>
        <pt x="204" y="-121" on="0"/>
        <pt x="301" y="-121" on="1"/>
        <pt x="354" y="-121" on="0"/>
        <pt x="419" y="-52" on="0"/>
        <pt x="419" y="7" on="1"/>
        <pt x="419" y="87" on="1"/>
        <pt x="395" y="52" on="0"/>
        <pt x="315" y="9" on="0"/>
        <pt x="262" y="9" on="1"/>
        <pt x="162" y="9" on="0"/>
        <pt x="48" y="140" on="0"/>
        <pt x="48" y="258" on="1"/>
        <pt x="48" y="377" on="0"/>
        <pt x="163" y="510" on="0"/>
        <pt x="262" y="510" on="1"/>
        <pt x="323" y="510" on="0"/>
        <pt x="408" y="454" on="0"/>
        <pt x="428" y="409" on="1"/>
        <pt x="436" y="500" on="1"/>
        <pt x="556" y="500" on="1"/>
        <pt x="556" y="40" on="1"/>
        <pt x="556" y="-95" on="0"/>
        <pt x="413" y="-215" on="0"/>
      </contour>
    </TTGlyph>
    <TTGlyph name="uni0068" xMin="72" yMin="0" xMax="550" yMax="719">
      <contour>
        <pt x="209" y="264" on="1"/>
        <pt x="209" y="0" on="1"/>
        <pt x="72" y="0" on="1"/>
        <pt x="72" y="719" on="1"/>
        <pt x="209" y="719" on="1"/>
        <pt x="209" y="414" on="1"/>
        <pt x="256" y="510" on="0"/>
        <pt x="370" y="510" on="1"/>
        <pt x="448" y="510" on="0"/>
        <pt x="550" y="419" on="0"/>
        <pt x="550" y="328" on="1"/>
        <pt x="550" y="0" on="1"/>
        <pt x="413" y="0" on="1"/>
        <pt x="413" y="288" on="1"/>
        <pt x="413" y="353" on="0"/>
        <pt x="363" y="402" on="0"/>
        <pt x="324" y="402" on="1"/>
        <pt x="281" y="402" on="0"/>
        <pt x="209" y="339" on="0"/>
      </contour>
    </TTGlyph>
    <TTGlyph name="uni0068.sc" xMin="78" yMin="0" xMax="595" yMax="560">
      <contour>
        <pt x="460" y="0" on="1"/>
        <pt x="460" y="230" on="1"/>
        <pt x="214" y="230" on="1"/>
        <pt x="214" y="0" on="1"/>
        <pt x="78" y="0" on="1"/>
        <pt x="78" y="560" on="1"/>
        <pt x="214" y="560" on="1"/>
        <pt x="214" y="337" on="1"/>
        <pt x="460" y="337" on="1"/>
        <pt x="460" y="560" on="1"/>
        <pt x="595" y="560" on="1"/>
        <pt x="595" y="0" on="1"/>
      </contour>
    </TTGlyph>
    <TTGlyph name="uni0069" xMin="56" yMin="0" xMax="226" yMax="719">
      <contour>
        <pt x="226" y="645" on="1"/>
        <pt x="226" y="572" on="0"/>
        <pt x="141" y="572" on="1"/>
        <pt x="56" y="572" on="0"/>
        <pt x="56" y="645" on="1"/>
        <pt x="56" y="719" on="0"/>
        <pt x="141" y="719" on="1"/>
        <pt x="226" y="719" on="0"/>
      </contour>
      <contour>
        <pt x="72" y="500" on="1"/>
        <pt x="209" y="500" on="1"/>
        <pt x="209" y="0" on="1"/>
        <pt x="72" y="0" on="1"/>
      </contour>
    </TTGlyph>
    <TTGlyph name="uni0069.sc" xMin="78" yMin="0" xMax="215" yMax="560">
      <contour>
        <pt x="78" y="560" on="1"/>
        <pt x="215" y="560" on="1"/>
        <pt x="215" y="0" on="1"/>
        <pt x="78" y="0" on="1"/>
      </contour>
    </TTGlyph>
    <TTGlyph name="uni006A" xMin="-89" yMin="-215" xMax="226" yMax="719">
      <contour>
        <pt x="56" y="645" on="1"/>
        <pt x="56" y="719" on="0"/>
        <pt x="141" y="719" on="1"/>
        <pt x="226" y="719" on="0"/>
        <pt x="226" y="645" on="1"/>
        <pt x="226" y="572" on="0"/>
        <pt x="141" y="572" on="1"/>
        <pt x="56" y="572" on="0"/>
      </contour>
      <contour>
        <pt x="72" y="500" on="1"/>
        <pt x="209" y="500" on="1"/>
        <pt x="209" y="-37" on="1"/>
        <pt x="209" y="-135" on="0"/>
        <pt x="107" y="-215" on="0"/>
        <pt x="31" y="-215" on="1"/>
        <pt x="-41" y="-215" on="0"/>
        <pt x="-89" y="-183" on="1"/>
        <pt x="-67" y="-85" on="1"/>
        <pt x="-40" y="-109" on="0"/>
        <pt x="3" y="-109" on="1"/>
        <pt x="35" y="-109" on="0"/>
        <pt x="72" y="-71" on="0"/>
        <pt x="72" y="-24" on="1"/>
      </contour>
    </TTGlyph>
    <TTGlyph name="uni006A.sc" xMin="19" yMin="-8" xMax="481" yMax="560">
      <contour>
        <pt x="344" y="560" on="1"/>
        <pt x="481" y="560" on="1"/>
        <pt x="481" y="208" on="1"/>
        <pt x="481" y="-8" on="0"/>
        <pt x="249" y="-8" on="1"/>
        <pt x="125" y="-8" on="0"/>
        <pt x="19" y="118" on="0"/>
        <pt x="38" y="218" on="1"/>
        <pt x="167" y="241" on="1"/>
        <pt x="157" y="163" on="0"/>
        <pt x="197" y="99" on="0"/>
        <pt x="247" y="99" on="1"/>
        <pt x="302" y="99" on="0"/>
        <pt x="344" y="161" on="0"/>
        <pt x="344" y="222" on="1"/>
      </contour>
    </TTGlyph>
    <TTGlyph name="uni006B" xMin="72" yMin="0" xMax="593" yMax="719">
      <contour>
        <pt x="438" y="0" on="1"/>
        <pt x="300" y="221" on="1"/>
        <pt x="209" y="124" on="1"/>
        <pt x="209" y="0" on="1"/>
        <pt x="72" y="0" on="1"/>
        <pt x="72" y="719" on="1"/>
        <pt x="209" y="719" on="1"/>
        <pt x="209" y="271" on="1"/>
        <pt x="426" y="500" on="1"/>
        <pt x="581" y="500" on="1"/>
        <pt x="393" y="304" on="1"/>
        <pt x="593" y="0" on="1"/>
      </contour>
    </TTGlyph>
    <TTGlyph name="uni006B.sc" xMin="78" yMin="0" xMax="618" yMax="560">
      <contour>
        <pt x="460" y="0" on="1"/>
        <pt x="301" y="245" on="1"/>
        <pt x="214" y="156" on="1"/>
        <pt x="214" y="0" on="1"/>
        <pt x="78" y="0" on="1"/>
        <pt x="78" y="560" on="1"/>
        <pt x="214" y="560" on="1"/>
        <pt x="214" y="298" on="1"/>
        <pt x="461" y="560" on="1"/>
        <pt x="612" y="560" on="1"/>
        <pt x="397" y="328" on="1"/>
        <pt x="618" y="0" on="1"/>
      </contour>
    </TTGlyph>
    <TTGlyph name="uni006C" xMin="70" yMin="-10" xMax="315" yMax="719">
      <contour>
        <pt x="70" y="719" on="1"/>
        <pt x="207" y="719" on="1"/>
        <pt x="207" y="159" on="1"/>
        <pt x="207" y="95" on="0"/>
        <pt x="256" y="95" on="1"/>
        <pt x="285" y="95" on="0"/>
        <pt x="315" y="106" on="1"/>
        <pt x="303" y="11" on="1"/>
        <pt x="267" y="-10" on="0"/>
        <pt x="210" y="-10" on="1"/>
        <pt x="70" y="-10" on="0"/>
        <pt x="70" y="139" on="1"/>
      </contour>
    </TTGlyph>
    <TTGlyph name="uni006C.sc" xMin="78" yMin="0" xMax="524" yMax="560">
      <contour>
        <pt x="78" y="0" on="1"/>
        <pt x="78" y="560" on="1"/>
        <pt x="215" y="560" on="1"/>
        <pt x="215" y="107" on="1"/>
        <pt x="524" y="107" on="1"/>
        <pt x="524" y="0" on="1"/>
      </contour>
    </TTGlyph>
    <TTGlyph name="uni006C.ss02" xMin="74" yMin="0" xMax="211" yMax="719">
      <contour>
        <pt x="74" y="719" on="1"/>
        <pt x="211" y="719" on="1"/>
        <pt x="211" y="0" on="1"/>
        <pt x="74" y="0" on="1"/>
      </contour>
    </TTGlyph>
    <TTGlyph name="uni006D" xMin="72" yMin="0" xMax="877" yMax="510">
      <contour>
        <pt x="209" y="265" on="1"/>
        <pt x="209" y="0" on="1"/>
        <pt x="72" y="0" on="1"/>
        <pt x="72" y="500" on="1"/>
        <pt x="195" y="500" on="1"/>
        <pt x="200" y="412" on="1"/>
        <pt x="225" y="461" on="0"/>
        <pt x="312" y="510" on="0"/>
        <pt x="365" y="510" on="1"/>
        <pt x="419" y="510" on="0"/>
        <pt x="508" y="460" on="0"/>
        <pt x="528" y="409" on="1"/>
        <pt x="553" y="460" on="0"/>
        <pt x="646" y="510" on="0"/>
        <pt x="698" y="510" on="1"/>
        <pt x="771" y="510" on="0"/>
        <pt x="877" y="420" on="0"/>
        <pt x="876" y="328" on="1"/>
        <pt x="875" y="0" on="1"/>
        <pt x="739" y="0" on="1"/>
        <pt x="739" y="301" on="1"/>
        <pt x="739" y="356" on="0"/>
        <pt x="691" y="402" on="0"/>
        <pt x="653" y="402" on="1"/>
        <pt x="607" y="402" on="0"/>
        <pt x="543" y="334" on="0"/>
        <pt x="543" y="269" on="1"/>
        <pt x="543" y="0" on="1"/>
        <pt x="406" y="0" on="1"/>
        <pt x="406" y="301" on="1"/>
        <pt x="406" y="356" on="0"/>
        <pt x="357" y="402" on="0"/>
        <pt x="319" y="402" on="1"/>
        <pt x="279" y="402" on="0"/>
        <pt x="209" y="339" on="0"/>
      </contour>
    </TTGlyph>
    <TTGlyph name="uni006D.sc" xMin="78" yMin="0" xMax="738" yMax="560">
      <contour>
        <pt x="203" y="0" on="1"/>
        <pt x="78" y="0" on="1"/>
        <pt x="78" y="560" on="1"/>
        <pt x="269" y="560" on="1"/>
        <pt x="374" y="259" on="1"/>
        <pt x="407" y="148" on="1"/>
        <pt x="411" y="148" on="1"/>
        <pt x="444" y="259" on="1"/>
        <pt x="548" y="560" on="1"/>
        <pt x="738" y="560" on="1"/>
        <pt x="738" y="0" on="1"/>
        <pt x="612" y="0" on="1"/>
        <pt x="612" y="252" on="1"/>
        <pt x="621" y="437" on="1"/>
        <pt x="619" y="437" on="1"/>
        <pt x="462" y="0" on="1"/>
        <pt x="354" y="0" on="1"/>
        <pt x="197" y="437" on="1"/>
        <pt x="196" y="437" on="1"/>
        <pt x="203" y="252" on="1"/>
      </contour>
    </TTGlyph>
    <TTGlyph name="uni006E" xMin="72" yMin="0" xMax="550" yMax="510">
      <contour>
        <pt x="209" y="264" on="1"/>
        <pt x="209" y="0" on="1"/>
        <pt x="72" y="0" on="1"/>
        <pt x="72" y="500" on="1"/>
        <pt x="195" y="500" on="1"/>
        <pt x="200" y="411" on="1"/>
        <pt x="225" y="462" on="0"/>
        <pt x="314" y="510" on="0"/>
        <pt x="370" y="510" on="1"/>
        <pt x="448" y="510" on="0"/>
        <pt x="550" y="419" on="0"/>
        <pt x="550" y="328" on="1"/>
        <pt x="550" y="0" on="1"/>
        <pt x="413" y="0" on="1"/>
        <pt x="413" y="288" on="1"/>
        <pt x="413" y="353" on="0"/>
        <pt x="363" y="402" on="0"/>
        <pt x="324" y="402" on="1"/>
        <pt x="281" y="402" on="0"/>
        <pt x="209" y="339" on="0"/>
      </contour>
    </TTGlyph>
    <TTGlyph name="uni006E.sc" xMin="78" yMin="0" xMax="601" yMax="560">
      <contour>
        <pt x="474" y="560" on="1"/>
        <pt x="601" y="560" on="1"/>
        <pt x="601" y="0" on="1"/>
        <pt x="441" y="0" on="1"/>
        <pt x="247" y="330" on="1"/>
        <pt x="202" y="417" on="1"/>
        <pt x="200" y="417" on="1"/>
        <pt x="206" y="312" on="1"/>
        <pt x="206" y="0" on="1"/>
        <pt x="78" y="0" on="1"/>
        <pt x="78" y="560" on="1"/>
        <pt x="239" y="560" on="1"/>
        <pt x="432" y="230" on="1"/>
        <pt x="477" y="143" on="1"/>
        <pt x="479" y="143" on="1"/>
        <pt x="474" y="248" on="1"/>
      </contour>
    </TTGlyph>
    <TTGlyph name="uni006E.swsh" xMin="72" yMin="-98" xMax="643" yMax="510">
      <contour>
        <pt x="544" y="-98" on="1"/>
        <pt x="485" y="-98" on="0"/>
        <pt x="413" y="-30" on="0"/>
        <pt x="413" y="35" on="1"/>
        <pt x="413" y="288" on="1"/>
        <pt x="413" y="353" on="0"/>
        <pt x="363" y="402" on="0"/>
        <pt x="324" y="402" on="1"/>
        <pt x="281" y="402" on="0"/>
        <pt x="209" y="339" on="0"/>
        <pt x="209" y="264" on="1"/>
        <pt x="209" y="0" on="1"/>
        <pt x="72" y="0" on="1"/>
        <pt x="72" y="500" on="1"/>
        <pt x="195" y="500" on="1"/>
        <pt x="200" y="411" on="1"/>
        <pt x="225" y="462" on="0"/>
        <pt x="314" y="510" on="0"/>
        <pt x="370" y="510" on="1"/>
        <pt x="448" y="510" on="0"/>
        <pt x="550" y="419" on="0"/>
        <pt x="550" y="328" on="1"/>
        <pt x="550" y="47" on="1"/>
        <pt x="550" y="20" on="0"/>
        <pt x="577" y="-2" on="0"/>
        <pt x="595" y="-2" on="1"/>
        <pt x="623" y="-2" on="0"/>
        <pt x="643" y="8" on="1"/>
        <pt x="630" y="-78" on="1"/>
        <pt x="611" y="-88" on="0"/>
        <pt x="575" y="-98" on="0"/>
      </contour>
    </TTGlyph>
    <TTGlyph name="uni006F" xMin="46" yMin="-10" xMax="558" yMax="510">
      <contour>
        <pt x="46" y="250" on="1"/>
        <pt x="46" y="372" on="0"/>
        <pt x="181" y="510" on="0"/>
        <pt x="302" y="510" on="1"/>
        <pt x="423" y="510" on="0"/>
        <pt x="558" y="372" on="0"/>
        <pt x="558" y="250" on="1"/>
        <pt x="558" y="128" on="0"/>
        <pt x="423" y="-10" on="0"/>
        <pt x="302" y="-10" on="1"/>
        <pt x="181" y="-10" on="0"/>
        <pt x="46" y="128" on="0"/>
      </contour>
      <contour>
        <pt x="421" y="250" on="1"/>
        <pt x="421" y="408" on="0"/>
        <pt x="302" y="408" on="1"/>
        <pt x="183" y="408" on="0"/>
        <pt x="183" y="250" on="1"/>
        <pt x="183" y="92" on="0"/>
        <pt x="302" y="92" on="1"/>
        <pt x="421" y="92" on="0"/>
      </contour>
    </TTGlyph>
    <TTGlyph name="uni006F.sc" xMin="47" yMin="-8" xMax="620" yMax="568">
      <contour>
        <pt x="47" y="280" on="1"/>
        <pt x="47" y="415" on="0"/>
        <pt x="201" y="568" on="0"/>
        <pt x="334" y="568" on="1"/>
        <pt x="467" y="568" on="0"/>
        <pt x="620" y="415" on="0"/>
        <pt x="620" y="280" on="1"/>
        <pt x="620" y="145" on="0"/>
        <pt x="467" y="-8" on="0"/>
        <pt x="334" y="-8" on="1"/>
        <pt x="201" y="-8" on="0"/>
        <pt x="47" y="145" on="0"/>
      </contour>
      <contour>
        <pt x="483" y="280" on="1"/>
        <pt x="483" y="461" on="0"/>
        <pt x="334" y="461" on="1"/>
        <pt x="184" y="461" on="0"/>
        <pt x="184" y="280" on="1"/>
        <pt x="184" y="99" on="0"/>
        <pt x="334" y="99" on="1"/>
        <pt x="483" y="99" on="0"/>
      </contour>
    </TTGlyph>
    <TTGlyph name="uni0070" xMin="72" yMin="-210" xMax="580" yMax="510">
      <contour>
        <pt x="209" y="-210" on="1"/>
        <pt x="72" y="-210" on="1"/>
        <pt x="72" y="500" on="1"/>
        <pt x="193" y="500" on="1"/>
        <pt x="200" y="366" on="1"/>
        <pt x="209" y="340" on="1"/>
      </contour>
      <contour>
        <pt x="580" y="251" on="1"/>
        <pt x="580" y="128" on="0"/>
        <pt x="465" y="-10" on="0"/>
        <pt x="366" y="-10" on="1"/>
        <pt x="281" y="-10" on="0"/>
        <pt x="186" y="103" on="0"/>
        <pt x="186" y="185" on="1"/>
        <pt x="209" y="245" on="1"/>
        <pt x="209" y="174" on="0"/>
        <pt x="271" y="95" on="0"/>
        <pt x="325" y="95" on="1"/>
        <pt x="442" y="95" on="0"/>
        <pt x="442" y="250" on="1"/>
        <pt x="442" y="405" on="0"/>
        <pt x="325" y="405" on="1"/>
        <pt x="272" y="405" on="0"/>
        <pt x="209" y="328" on="0"/>
        <pt x="209" y="255" on="1"/>
        <pt x="180" y="315" on="1"/>
        <pt x="180" y="396" on="0"/>
        <pt x="281" y="510" on="0"/>
        <pt x="366" y="510" on="1"/>
        <pt x="466" y="510" on="0"/>
        <pt x="580" y="373" on="0"/>
      </contour>
    </TTGlyph>
    <TTGlyph name="uni0070.sc" xMin="78" yMin="0" xMax="555" yMax="560">
      <contour>
        <pt x="321" y="460" on="1"/>
        <pt x="214" y="460" on="1"/>
        <pt x="214" y="290" on="1"/>
        <pt x="321" y="290" on="1"/>
        <pt x="420" y="290" on="0"/>
        <pt x="420" y="374" on="1"/>
        <pt x="420" y="460" on="0"/>
      </contour>
      <contour>
        <pt x="339" y="192" on="1"/>
        <pt x="214" y="192" on="1"/>
        <pt x="214" y="0" on="1"/>
        <pt x="78" y="0" on="1"/>
        <pt x="78" y="560" on="1"/>
        <pt x="339" y="560" on="1"/>
        <pt x="439" y="560" on="0"/>
        <pt x="555" y="463" on="0"/>
        <pt x="555" y="375" on="1"/>
        <pt x="555" y="289" on="0"/>
        <pt x="439" y="192" on="0"/>
      </contour>
    </TTGlyph>
    <TTGlyph name="uni0071" xMin="49" yMin="-210" xMax="557" yMax="510">
      <contour>
        <pt x="557" y="-210" on="1"/>
        <pt x="420" y="-210" on="1"/>
        <pt x="420" y="341" on="1"/>
        <pt x="429" y="366" on="1"/>
        <pt x="437" y="500" on="1"/>
        <pt x="557" y="500" on="1"/>
      </contour>
      <contour>
        <pt x="49" y="251" on="1"/>
        <pt x="49" y="128" on="0"/>
        <pt x="164" y="-10" on="0"/>
        <pt x="263" y="-10" on="1"/>
        <pt x="348" y="-10" on="0"/>
        <pt x="443" y="103" on="0"/>
        <pt x="443" y="185" on="1"/>
        <pt x="420" y="245" on="1"/>
        <pt x="420" y="174" on="0"/>
        <pt x="358" y="95" on="0"/>
        <pt x="304" y="95" on="1"/>
        <pt x="187" y="95" on="0"/>
        <pt x="187" y="250" on="1"/>
        <pt x="187" y="405" on="0"/>
        <pt x="304" y="405" on="1"/>
        <pt x="357" y="405" on="0"/>
        <pt x="420" y="328" on="0"/>
        <pt x="420" y="255" on="1"/>
        <pt x="449" y="315" on="1"/>
        <pt x="449" y="396" on="0"/>
        <pt x="348" y="510" on="0"/>
        <pt x="263" y="510" on="1"/>
        <pt x="163" y="510" on="0"/>
        <pt x="49" y="373" on="0"/>
      </contour>
    </TTGlyph>
    <TTGlyph name="uni0071.sc" xMin="47" yMin="-173" xMax="620" yMax="568">
      <contour>
        <pt x="293" y="22" on="1"/>
        <pt x="372" y="30" on="1"/>
        <pt x="367" y="-29" on="0"/>
        <pt x="426" y="-71" on="0"/>
        <pt x="475" y="-71" on="1"/>
        <pt x="542" y="-71" on="0"/>
        <pt x="577" y="-34" on="1"/>
        <pt x="612" y="-130" on="1"/>
        <pt x="589" y="-149" on="0"/>
        <pt x="514" y="-173" on="0"/>
        <pt x="473" y="-172" on="1"/>
        <pt x="385" y="-171" on="0"/>
        <pt x="282" y="-80" on="0"/>
      </contour>
      <contour>
        <pt x="47" y="280" on="1"/>
        <pt x="47" y="415" on="0"/>
        <pt x="201" y="568" on="0"/>
        <pt x="334" y="568" on="1"/>
        <pt x="467" y="568" on="0"/>
        <pt x="620" y="415" on="0"/>
        <pt x="620" y="280" on="1"/>
        <pt x="620" y="145" on="0"/>
        <pt x="467" y="-8" on="0"/>
        <pt x="334" y="-8" on="1"/>
        <pt x="201" y="-8" on="0"/>
        <pt x="47" y="145" on="0"/>
      </contour>
      <contour>
        <pt x="483" y="280" on="1"/>
        <pt x="483" y="461" on="0"/>
        <pt x="334" y="461" on="1"/>
        <pt x="184" y="461" on="0"/>
        <pt x="184" y="280" on="1"/>
        <pt x="184" y="99" on="0"/>
        <pt x="334" y="99" on="1"/>
        <pt x="483" y="99" on="0"/>
      </contour>
    </TTGlyph>
    <TTGlyph name="uni0072" xMin="72" yMin="0" xMax="409" yMax="510">
      <contour>
        <pt x="209" y="259" on="1"/>
        <pt x="209" y="0" on="1"/>
        <pt x="72" y="0" on="1"/>
        <pt x="72" y="500" on="1"/>
        <pt x="191" y="500" on="1"/>
        <pt x="200" y="402" on="1"/>
        <pt x="240" y="510" on="0"/>
        <pt x="355" y="510" on="1"/>
        <pt x="390" y="510" on="0"/>
        <pt x="409" y="499" on="1"/>
        <pt x="392" y="379" on="1"/>
        <pt x="369" y="394" on="0"/>
        <pt x="329" y="394" on="1"/>
        <pt x="284" y="394" on="0"/>
        <pt x="209" y="327" on="0"/>
      </contour>
    </TTGlyph>
    <TTGlyph name="uni0072.sc" xMin="78" yMin="0" xMax="593" yMax="560">
      <contour>
        <pt x="329" y="462" on="1"/>
        <pt x="214" y="462" on="1"/>
        <pt x="214" y="299" on="1"/>
        <pt x="329" y="299" on="1"/>
        <pt x="428" y="299" on="0"/>
        <pt x="428" y="380" on="1"/>
        <pt x="428" y="462" on="0"/>
      </contour>
      <contour>
        <pt x="444" y="0" on="1"/>
        <pt x="320" y="207" on="1"/>
        <pt x="214" y="207" on="1"/>
        <pt x="214" y="0" on="1"/>
        <pt x="78" y="0" on="1"/>
        <pt x="78" y="560" on="1"/>
        <pt x="344" y="560" on="1"/>
        <pt x="446" y="560" on="0"/>
        <pt x="563" y="467" on="0"/>
        <pt x="563" y="383" on="1"/>
        <pt x="563" y="261" on="0"/>
        <pt x="446" y="222" on="1"/>
        <pt x="593" y="0" on="1"/>
      </contour>
    </TTGlyph>
    <TTGlyph name="uni0072.sc.ss03" xMin="78" yMin="0" xMax="572" yMax="560">
      <contour>
        <pt x="214" y="460" on="1"/>
        <pt x="214" y="298" on="1"/>
        <pt x="326" y="298" on="1"/>
        <pt x="428" y="298" on="0"/>
        <pt x="428" y="379" on="1"/>
        <pt x="428" y="460" on="0"/>
        <pt x="326" y="460" on="1"/>
      </contour>
      <contour>
        <pt x="214" y="0" on="1"/>
        <pt x="78" y="0" on="1"/>
        <pt x="78" y="560" on="1"/>
        <pt x="344" y="560" on="1"/>
        <pt x="446" y="560" on="0"/>
        <pt x="563" y="469" on="0"/>
        <pt x="563" y="390" on="1"/>
        <pt x="563" y="330" on="0"/>
        <pt x="497" y="256" on="0"/>
        <pt x="441" y="245" on="1"/>
        <pt x="441" y="243" on="1"/>
        <pt x="489" y="234" on="0"/>
        <pt x="536" y="180" on="0"/>
        <pt x="540" y="144" on="1"/>
        <pt x="547" y="83" on="0"/>
        <pt x="560" y="24" on="0"/>
        <pt x="572" y="4" on="1"/>
        <pt x="572" y="0" on="1"/>
        <pt x="428" y="0" on="1"/>
        <pt x="419" y="22" on="0"/>
        <pt x="411" y="84" on="0"/>
        <pt x="405" y="131" on="1"/>
        <pt x="396" y="207" on="0"/>
        <pt x="300" y="207" on="1"/>
        <pt x="214" y="207" on="1"/>
      </contour>
    </TTGlyph>
    <TTGlyph name="uni0072.swsh" xMin="72" yMin="0" xMax="572" yMax="510">
      <contour>
        <pt x="209" y="251" on="1"/>
        <pt x="209" y="0" on="1"/>
        <pt x="72" y="0" on="1"/>
        <pt x="72" y="500" on="1"/>
        <pt x="191" y="500" on="1"/>
        <pt x="200" y="401" on="1"/>
        <pt x="221" y="459" on="0"/>
        <pt x="301" y="510" on="0"/>
        <pt x="351" y="510" on="1"/>
        <pt x="407" y="510" on="0"/>
        <pt x="469" y="477" on="0"/>
        <pt x="525" y="440" on="0"/>
        <pt x="572" y="432" on="1"/>
        <pt x="506" y="333" on="1"/>
        <pt x="450" y="344" on="0"/>
        <pt x="389" y="395" on="0"/>
        <pt x="337" y="395" on="1"/>
        <pt x="280" y="395" on="0"/>
        <pt x="209" y="316" on="0"/>
      </contour>
    </TTGlyph>
    <TTGlyph name="uni0073" xMin="32" yMin="-10" xMax="494" yMax="510">
      <contour>
        <pt x="494" y="150" on="1"/>
        <pt x="494" y="83" on="0"/>
        <pt x="378" y="-10" on="0"/>
        <pt x="266" y="-10" on="1"/>
        <pt x="189" y="-10" on="0"/>
        <pt x="67" y="37" on="0"/>
        <pt x="32" y="88" on="1"/>
        <pt x="111" y="162" on="1"/>
        <pt x="132" y="125" on="0"/>
        <pt x="214" y="86" on="0"/>
        <pt x="265" y="86" on="1"/>
        <pt x="356" y="86" on="0"/>
        <pt x="356" y="137" on="1"/>
        <pt x="356" y="158" on="0"/>
        <pt x="309" y="186" on="0"/>
        <pt x="247" y="197" on="1"/>
        <pt x="139" y="217" on="0"/>
        <pt x="48" y="289" on="0"/>
        <pt x="48" y="351" on="1"/>
        <pt x="48" y="412" on="0"/>
        <pt x="162" y="510" on="0"/>
        <pt x="273" y="510" on="1"/>
        <pt x="359" y="510" on="0"/>
        <pt x="463" y="456" on="0"/>
        <pt x="487" y="408" on="1"/>
        <pt x="409" y="341" on="1"/>
        <pt x="389" y="382" on="0"/>
        <pt x="320" y="414" on="0"/>
        <pt x="277" y="414" on="1"/>
        <pt x="235" y="414" on="0"/>
        <pt x="185" y="382" on="0"/>
        <pt x="185" y="362" on="1"/>
        <pt x="185" y="340" on="0"/>
        <pt x="232" y="313" on="0"/>
        <pt x="292" y="304" on="1"/>
        <pt x="401" y="287" on="0"/>
        <pt x="494" y="215" on="0"/>
      </contour>
    </TTGlyph>
    <TTGlyph name="uni0073.sc" xMin="33" yMin="-8" xMax="541" yMax="568">
      <contour>
        <pt x="48" y="389" on="1"/>
        <pt x="48" y="468" on="0"/>
        <pt x="179" y="568" on="0"/>
        <pt x="293" y="568" on="1"/>
        <pt x="381" y="568" on="0"/>
        <pt x="495" y="519" on="0"/>
        <pt x="540" y="469" on="1"/>
        <pt x="471" y="380" on="1"/>
        <pt x="433" y="427" on="0"/>
        <pt x="356" y="466" on="0"/>
        <pt x="294" y="466" on="1"/>
        <pt x="242" y="466" on="0"/>
        <pt x="185" y="428" on="0"/>
        <pt x="185" y="400" on="1"/>
        <pt x="185" y="367" on="0"/>
        <pt x="257" y="340" on="0"/>
        <pt x="363" y="325" on="0"/>
        <pt x="469" y="296" on="0"/>
        <pt x="541" y="231" on="0"/>
        <pt x="541" y="166" on="1"/>
        <pt x="541" y="85" on="0"/>
        <pt x="405" y="-8" on="0"/>
        <pt x="293" y="-8" on="1"/>
        <pt x="202" y="-8" on="0"/>
        <pt x="76" y="43" on="0"/>
        <pt x="33" y="91" on="1"/>
        <pt x="101" y="181" on="1"/>
        <pt x="136" y="137" on="0"/>
        <pt x="226" y="94" on="0"/>
        <pt x="292" y="94" on="1"/>
        <pt x="344" y="94" on="0"/>
        <pt x="404" y="126" on="0"/>
        <pt x="404" y="156" on="1"/>
        <pt x="404" y="188" on="0"/>
        <pt x="332" y="214" on="0"/>
        <pt x="226" y="229" on="0"/>
        <pt x="120" y="258" on="0"/>
        <pt x="48" y="324" on="0"/>
      </contour>
    </TTGlyph>
    <TTGlyph name="uni00730074" xMin="32" yMin="-10" xMax="882" yMax="727">
      <contour>
        <pt x="745" y="-10" on="1"/>
        <pt x="671" y="-10" on="0"/>
        <pt x="578" y="59" on="0"/>
        <pt x="578" y="141" on="1"/>
        <pt x="578" y="519" on="1"/>
        <pt x="578" y="575" on="0"/>
        <pt x="534" y="621" on="0"/>
        <pt x="505" y="621" on="1"/>
        <pt x="439" y="621" on="0"/>
        <pt x="439" y="543" on="1"/>
        <pt x="439" y="512" on="0"/>
        <pt x="457" y="451" on="0"/>
        <pt x="488" y="408" on="1"/>
        <pt x="411" y="346" on="1"/>
        <pt x="391" y="384" on="0"/>
        <pt x="320" y="414" on="0"/>
        <pt x="277" y="414" on="1"/>
        <pt x="235" y="414" on="0"/>
        <pt x="185" y="382" on="0"/>
        <pt x="185" y="362" on="1"/>
        <pt x="185" y="340" on="0"/>
        <pt x="232" y="314" on="0"/>
        <pt x="296" y="303" on="1"/>
        <pt x="402" y="285" on="0"/>
        <pt x="494" y="215" on="0"/>
        <pt x="494" y="150" on="1"/>
        <pt x="494" y="83" on="0"/>
        <pt x="378" y="-10" on="0"/>
        <pt x="266" y="-10" on="1"/>
        <pt x="189" y="-10" on="0"/>
        <pt x="67" y="37" on="0"/>
        <pt x="32" y="88" on="1"/>
        <pt x="111" y="162" on="1"/>
        <pt x="132" y="125" on="0"/>
        <pt x="214" y="86" on="0"/>
        <pt x="265" y="86" on="1"/>
        <pt x="356" y="86" on="0"/>
        <pt x="356" y="137" on="1"/>
        <pt x="356" y="158" on="0"/>
        <pt x="309" y="187" on="0"/>
        <pt x="247" y="197" on="1"/>
        <pt x="139" y="217" on="0"/>
        <pt x="48" y="290" on="0"/>
        <pt x="48" y="351" on="1"/>
        <pt x="48" y="412" on="0"/>
        <pt x="162" y="510" on="0"/>
        <pt x="273" y="510" on="1"/>
        <pt x="312" y="510" on="0"/>
        <pt x="348" y="502" on="1"/>
        <pt x="332" y="529" on="0"/>
        <pt x="332" y="557" on="1"/>
        <pt x="332" y="645" on="0"/>
        <pt x="444" y="727" on="0"/>
        <pt x="523" y="727" on="1"/>
        <pt x="602" y="727" on="0"/>
        <pt x="715" y="646" on="0"/>
        <pt x="715" y="549" on="1"/>
        <pt x="715" y="500" on="1"/>
        <pt x="877" y="500" on="1"/>
        <pt x="877" y="398" on="1"/>
        <pt x="715" y="398" on="1"/>
        <pt x="715" y="163" on="1"/>
        <pt x="715" y="94" on="0"/>
        <pt x="784" y="94" on="1"/>
        <pt x="828" y="94" on="0"/>
        <pt x="861" y="122" on="1"/>
        <pt x="882" y="31" on="1"/>
        <pt x="832" y="-10" on="0"/>
      </contour>
    </TTGlyph>
    <TTGlyph name="uni0074" xMin="20" yMin="-10" xMax="415" yMax="653">
      <contour>
        <pt x="415" y="31" on="1"/>
        <pt x="365" y="-10" on="0"/>
        <pt x="278" y="-10" on="1"/>
        <pt x="204" y="-10" on="0"/>
        <pt x="111" y="59" on="0"/>
        <pt x="111" y="141" on="1"/>
        <pt x="111" y="398" on="1"/>
        <pt x="20" y="398" on="1"/>
        <pt x="20" y="500" on="1"/>
        <pt x="111" y="500" on="1"/>
        <pt x="111" y="615" on="1"/>
        <pt x="248" y="653" on="1"/>
        <pt x="248" y="500" on="1"/>
        <pt x="410" y="500" on="1"/>
        <pt x="410" y="398" on="1"/>
        <pt x="248" y="398" on="1"/>
        <pt x="248" y="163" on="1"/>
        <pt x="248" y="94" on="0"/>
        <pt x="317" y="94" on="1"/>
        <pt x="361" y="94" on="0"/>
        <pt x="394" y="122" on="1"/>
      </contour>
    </TTGlyph>
    <TTGlyph name="uni0074.sc" xMin="29" yMin="0" xMax="558" yMax="560">
      <contour>
        <pt x="558" y="453" on="1"/>
        <pt x="362" y="453" on="1"/>
        <pt x="362" y="0" on="1"/>
        <pt x="225" y="0" on="1"/>
        <pt x="225" y="453" on="1"/>
        <pt x="29" y="453" on="1"/>
        <pt x="29" y="560" on="1"/>
        <pt x="558" y="560" on="1"/>
      </contour>
    </TTGlyph>
    <TTGlyph name="uni0074.swsh" xMin="20" yMin="-10" xMax="584" yMax="653">
      <contour>
        <pt x="415" y="31" on="1"/>
        <pt x="365" y="-10" on="0"/>
        <pt x="278" y="-10" on="1"/>
        <pt x="204" y="-10" on="0"/>
        <pt x="111" y="59" on="0"/>
        <pt x="111" y="141" on="1"/>
        <pt x="111" y="398" on="1"/>
        <pt x="20" y="398" on="1"/>
        <pt x="20" y="500" on="1"/>
        <pt x="111" y="500" on="1"/>
        <pt x="111" y="615" on="1"/>
        <pt x="248" y="653" on="1"/>
        <pt x="248" y="500" on="1"/>
        <pt x="383" y="500" on="1"/>
        <pt x="489" y="500" on="0"/>
        <pt x="539" y="546" on="1"/>
        <pt x="584" y="467" on="1"/>
        <pt x="525" y="398" on="0"/>
        <pt x="385" y="398" on="1"/>
        <pt x="248" y="398" on="1"/>
        <pt x="248" y="163" on="1"/>
        <pt x="248" y="94" on="0"/>
        <pt x="317" y="94" on="1"/>
        <pt x="361" y="94" on="0"/>
        <pt x="394" y="122" on="1"/>
      </contour>
    </TTGlyph>
    <TTGlyph name="uni0075" xMin="69" yMin="-10" xMax="547" yMax="500">
      <contour>
        <pt x="425" y="0" on="1"/>
        <pt x="420" y="86" on="1"/>
        <pt x="372" y="-10" on="0"/>
        <pt x="245" y="-10" on="1"/>
        <pt x="169" y="-10" on="0"/>
        <pt x="69" y="73" on="0"/>
        <pt x="69" y="169" on="1"/>
        <pt x="69" y="500" on="1"/>
        <pt x="206" y="500" on="1"/>
        <pt x="206" y="204" on="1"/>
        <pt x="206" y="143" on="0"/>
        <pt x="253" y="98" on="0"/>
        <pt x="293" y="98" on="1"/>
        <pt x="342" y="98" on="0"/>
        <pt x="410" y="162" on="0"/>
        <pt x="410" y="232" on="1"/>
        <pt x="410" y="500" on="1"/>
        <pt x="547" y="500" on="1"/>
        <pt x="547" y="0" on="1"/>
      </contour>
    </TTGlyph>
    <TTGlyph name="uni0075.sc" xMin="70" yMin="-8" xMax="584" yMax="560">
      <contour>
        <pt x="447" y="560" on="1"/>
        <pt x="584" y="560" on="1"/>
        <pt x="584" y="226" on="1"/>
        <pt x="584" y="-8" on="0"/>
        <pt x="326" y="-8" on="1"/>
        <pt x="70" y="-8" on="0"/>
        <pt x="70" y="226" on="1"/>
        <pt x="70" y="560" on="1"/>
        <pt x="207" y="560" on="1"/>
        <pt x="207" y="228" on="1"/>
        <pt x="207" y="99" on="0"/>
        <pt x="326" y="99" on="1"/>
        <pt x="447" y="99" on="0"/>
        <pt x="447" y="228" on="1"/>
      </contour>
    </TTGlyph>
    <TTGlyph name="uni0076" xMin="4" yMin="0" xMax="542" yMax="500">
      <contour>
        <pt x="194" y="0" on="1"/>
        <pt x="4" y="500" on="1"/>
        <pt x="151" y="500" on="1"/>
        <pt x="274" y="96" on="1"/>
        <pt x="400" y="500" on="1"/>
        <pt x="542" y="500" on="1"/>
        <pt x="352" y="0" on="1"/>
      </contour>
    </TTGlyph>
    <TTGlyph name="uni0076.sc" xMin="12" yMin="0" xMax="606" yMax="560">
      <contour>
        <pt x="465" y="560" on="1"/>
        <pt x="606" y="560" on="1"/>
        <pt x="390" y="0" on="1"/>
        <pt x="229" y="0" on="1"/>
        <pt x="12" y="560" on="1"/>
        <pt x="158" y="560" on="1"/>
        <pt x="274" y="237" on="1"/>
        <pt x="311" y="109" on="1"/>
        <pt x="312" y="109" on="1"/>
        <pt x="349" y="236" on="1"/>
      </contour>
    </TTGlyph>
    <TTGlyph name="uni0077" xMin="20" yMin="0" xMax="869" yMax="500">
      <contour>
        <pt x="179" y="0" on="1"/>
        <pt x="20" y="500" on="1"/>
        <pt x="165" y="500" on="1"/>
        <pt x="265" y="110" on="1"/>
        <pt x="377" y="500" on="1"/>
        <pt x="512" y="500" on="1"/>
        <pt x="624" y="110" on="1"/>
        <pt x="724" y="500" on="1"/>
        <pt x="869" y="500" on="1"/>
        <pt x="710" y="0" on="1"/>
        <pt x="551" y="0" on="1"/>
        <pt x="442" y="353" on="1"/>
        <pt x="337" y="0" on="1"/>
      </contour>
    </TTGlyph>
    <TTGlyph name="uni0077.sc" xMin="17" yMin="0" xMax="897" yMax="560">
      <contour>
        <pt x="459" y="439" on="1"/>
        <pt x="457" y="439" on="1"/>
        <pt x="420" y="255" on="1"/>
        <pt x="353" y="0" on="1"/>
        <pt x="183" y="0" on="1"/>
        <pt x="17" y="560" on="1"/>
        <pt x="162" y="560" on="1"/>
        <pt x="241" y="245" on="1"/>
        <pt x="276" y="104" on="1"/>
        <pt x="386" y="560" on="1"/>
        <pt x="530" y="560" on="1"/>
        <pt x="642" y="103" on="1"/>
        <pt x="677" y="245" on="1"/>
        <pt x="756" y="560" on="1"/>
        <pt x="897" y="560" on="1"/>
        <pt x="731" y="0" on="1"/>
        <pt x="565" y="0" on="1"/>
        <pt x="497" y="255" on="1"/>
      </contour>
    </TTGlyph>
    <TTGlyph name="uni0078" xMin="14" yMin="0" xMax="552" yMax="500">
      <contour>
        <pt x="395" y="0" on="1"/>
        <pt x="282" y="183" on="1"/>
        <pt x="167" y="0" on="1"/>
        <pt x="14" y="0" on="1"/>
        <pt x="198" y="253" on="1"/>
        <pt x="23" y="500" on="1"/>
        <pt x="181" y="500" on="1"/>
        <pt x="288" y="325" on="1"/>
        <pt x="395" y="500" on="1"/>
        <pt x="549" y="500" on="1"/>
        <pt x="372" y="254" on="1"/>
        <pt x="552" y="0" on="1"/>
      </contour>
    </TTGlyph>
    <TTGlyph name="uni0078.sc" xMin="8" yMin="0" xMax="562" yMax="560">
      <contour>
        <pt x="405" y="0" on="1"/>
        <pt x="280" y="192" on="1"/>
        <pt x="156" y="0" on="1"/>
        <pt x="8" y="0" on="1"/>
        <pt x="214" y="284" on="1"/>
        <pt x="21" y="560" on="1"/>
        <pt x="178" y="560" on="1"/>
        <pt x="296" y="377" on="1"/>
        <pt x="413" y="560" on="1"/>
        <pt x="557" y="560" on="1"/>
        <pt x="361" y="286" on="1"/>
        <pt x="562" y="0" on="1"/>
      </contour>
    </TTGlyph>
</ttFont>
